G04 #@! TF.GenerationSoftware,KiCad,Pcbnew,9.0.6*
G04 #@! TF.CreationDate,2025-12-20T18:09:35+05:30*
G04 #@! TF.ProjectId,BloodHound_VENOM_LiPo,426c6f6f-6448-46f7-956e-645f56454e4f,1*
G04 #@! TF.SameCoordinates,Original*
G04 #@! TF.FileFunction,Legend,Top*
G04 #@! TF.FilePolarity,Positive*
%FSLAX46Y46*%
G04 Gerber Fmt 4.6, Leading zero omitted, Abs format (unit mm)*
G04 Created by KiCad (PCBNEW 9.0.6) date 2025-12-20 18:09:35*
%MOMM*%
%LPD*%
G01*
G04 APERTURE LIST*
%ADD10C,0.150000*%
%ADD11C,0.120000*%
%ADD12R,1.700000X1.700000*%
%ADD13C,2.200000*%
%ADD14O,1.700000X1.700000*%
%ADD15C,0.900000*%
G04 APERTURE END LIST*
D10*
G36*
X134622500Y-91139636D02*
G01*
X134622500Y-92104823D01*
X133098424Y-92104823D01*
X133098424Y-91901948D01*
X134440783Y-91901948D01*
X134440783Y-91139636D01*
X134622500Y-91139636D01*
G37*
G36*
X133286003Y-90745245D02*
G01*
X133286003Y-90962499D01*
X133086700Y-90962499D01*
X133086700Y-90745245D01*
X133286003Y-90745245D01*
G37*
G36*
X134622500Y-90757610D02*
G01*
X134622500Y-90950226D01*
X133479443Y-90950226D01*
X133479443Y-90757610D01*
X134622500Y-90757610D01*
G37*
G36*
X133657280Y-89371967D02*
G01*
X133746523Y-89398307D01*
X133827522Y-89440924D01*
X133896366Y-89497133D01*
X133944382Y-89552792D01*
X133983672Y-89614745D01*
X134014518Y-89683704D01*
X134035300Y-89756480D01*
X134048945Y-89845953D01*
X134053902Y-89955180D01*
X134053902Y-90158055D01*
X134622500Y-90158055D01*
X134622500Y-90360929D01*
X133098424Y-90360929D01*
X133098424Y-89957195D01*
X133274279Y-89957195D01*
X133274279Y-90158055D01*
X133878047Y-90158055D01*
X133878047Y-89986962D01*
X133871957Y-89869825D01*
X133856249Y-89787111D01*
X133827255Y-89716154D01*
X133786731Y-89662089D01*
X133735602Y-89620208D01*
X133684241Y-89593945D01*
X133628344Y-89579165D01*
X133563524Y-89573978D01*
X133488704Y-89581246D01*
X133427511Y-89601639D01*
X133375245Y-89636234D01*
X133333172Y-89685628D01*
X133306408Y-89737604D01*
X133288018Y-89797918D01*
X133278085Y-89865076D01*
X133274279Y-89957195D01*
X133098424Y-89957195D01*
X133098424Y-89947029D01*
X133104722Y-89814992D01*
X133121505Y-89714387D01*
X133151463Y-89623455D01*
X133193587Y-89545310D01*
X133236117Y-89491084D01*
X133284394Y-89446439D01*
X133338851Y-89410580D01*
X133398656Y-89385148D01*
X133471084Y-89368819D01*
X133558761Y-89362952D01*
X133657280Y-89371967D01*
G37*
G36*
X134190503Y-88196040D02*
G01*
X134307710Y-88224280D01*
X134406833Y-88268901D01*
X134490792Y-88329439D01*
X134560619Y-88406383D01*
X134610382Y-88494439D01*
X134641074Y-88595809D01*
X134651809Y-88713663D01*
X134641032Y-88832657D01*
X134610273Y-88934622D01*
X134560501Y-89022824D01*
X134490792Y-89099537D01*
X134406868Y-89159822D01*
X134307757Y-89204276D01*
X134190538Y-89232419D01*
X134051521Y-89242419D01*
X133912519Y-89232427D01*
X133795195Y-89204295D01*
X133695889Y-89159841D01*
X133611700Y-89099537D01*
X133541728Y-89022790D01*
X133491791Y-88934575D01*
X133460941Y-88832622D01*
X133450134Y-88713663D01*
X133620127Y-88713663D01*
X133627301Y-88790385D01*
X133647662Y-88855079D01*
X133680491Y-88910120D01*
X133726464Y-88957112D01*
X133781008Y-88992189D01*
X133850911Y-89019256D01*
X133939683Y-89037115D01*
X134051521Y-89043666D01*
X134159161Y-89037208D01*
X134246246Y-89019442D01*
X134316350Y-88992221D01*
X134372456Y-88956563D01*
X134419955Y-88909157D01*
X134453685Y-88854027D01*
X134474504Y-88789638D01*
X134481816Y-88713663D01*
X134474603Y-88638760D01*
X134454019Y-88574940D01*
X134420597Y-88519981D01*
X134373463Y-88472413D01*
X134317826Y-88436613D01*
X134247813Y-88409219D01*
X134160296Y-88391292D01*
X134051521Y-88384760D01*
X133939725Y-88391347D01*
X133850966Y-88409309D01*
X133781046Y-88436544D01*
X133726464Y-88471863D01*
X133680370Y-88519082D01*
X133647549Y-88573979D01*
X133627256Y-88638082D01*
X133620127Y-88713663D01*
X133450134Y-88713663D01*
X133460898Y-88595843D01*
X133491681Y-88494486D01*
X133541610Y-88406418D01*
X133611700Y-88329439D01*
X133695923Y-88268882D01*
X133795243Y-88224261D01*
X133912554Y-88196032D01*
X134051521Y-88186007D01*
X134190503Y-88196040D01*
G37*
G36*
X134622500Y-86148747D02*
G01*
X134200448Y-86298315D01*
X134200448Y-86958229D01*
X134622500Y-87107797D01*
X134622500Y-87313786D01*
X133098424Y-86758377D01*
X133098424Y-86628318D01*
X133275470Y-86628318D01*
X134024593Y-86896771D01*
X134024593Y-86360872D01*
X133275470Y-86628318D01*
X133098424Y-86628318D01*
X133098424Y-86487909D01*
X134622500Y-85932501D01*
X134622500Y-86148747D01*
G37*
G36*
X134622500Y-84980503D02*
G01*
X134500958Y-84980503D01*
X134565119Y-85066405D01*
X134612058Y-85153702D01*
X134641703Y-85246853D01*
X134651809Y-85349340D01*
X134641597Y-85448427D01*
X134612212Y-85533958D01*
X134563930Y-85608807D01*
X134494913Y-85674763D01*
X134414381Y-85724707D01*
X134317244Y-85762286D01*
X134200292Y-85786446D01*
X134059672Y-85795114D01*
X133963789Y-85790203D01*
X133878238Y-85776122D01*
X133801752Y-85753623D01*
X133695564Y-85703965D01*
X133609136Y-85641424D01*
X133540624Y-85565691D01*
X133490892Y-85479033D01*
X133460275Y-85384375D01*
X133450134Y-85286875D01*
X133452009Y-85254086D01*
X133625989Y-85254086D01*
X133633513Y-85333103D01*
X133654915Y-85399971D01*
X133689533Y-85457114D01*
X133738188Y-85506144D01*
X133795884Y-85543437D01*
X133866317Y-85571569D01*
X133952053Y-85589728D01*
X134056192Y-85596270D01*
X134190413Y-85587133D01*
X134290712Y-85562806D01*
X134364579Y-85526661D01*
X134409809Y-85487621D01*
X134442295Y-85438911D01*
X134462749Y-85378515D01*
X134470092Y-85303270D01*
X134461289Y-85221909D01*
X134433913Y-85137307D01*
X134392550Y-85056164D01*
X134340582Y-84980503D01*
X133687172Y-84980503D01*
X133656886Y-85057072D01*
X133639269Y-85119905D01*
X133629433Y-85182936D01*
X133625989Y-85254086D01*
X133452009Y-85254086D01*
X133455126Y-85199562D01*
X133469002Y-85127049D01*
X133492406Y-85057277D01*
X133527620Y-84980503D01*
X133028082Y-84980503D01*
X133028082Y-84787795D01*
X134622500Y-84787795D01*
X134622500Y-84980503D01*
G37*
G36*
X134622500Y-83673315D02*
G01*
X134500958Y-83673315D01*
X134565119Y-83759217D01*
X134612058Y-83846514D01*
X134641703Y-83939666D01*
X134651809Y-84042153D01*
X134641597Y-84141239D01*
X134612212Y-84226770D01*
X134563930Y-84301619D01*
X134494913Y-84367576D01*
X134414381Y-84417520D01*
X134317244Y-84455098D01*
X134200292Y-84479258D01*
X134059672Y-84487926D01*
X133963789Y-84483016D01*
X133878238Y-84468934D01*
X133801752Y-84446436D01*
X133695564Y-84396778D01*
X133609136Y-84334237D01*
X133540624Y-84258503D01*
X133490892Y-84171846D01*
X133460275Y-84077187D01*
X133450134Y-83979687D01*
X133452009Y-83946898D01*
X133625989Y-83946898D01*
X133633513Y-84025915D01*
X133654915Y-84092783D01*
X133689533Y-84149926D01*
X133738188Y-84198957D01*
X133795884Y-84236249D01*
X133866317Y-84264382D01*
X133952053Y-84282540D01*
X134056192Y-84289082D01*
X134190413Y-84279945D01*
X134290712Y-84255619D01*
X134364579Y-84219473D01*
X134409809Y-84180434D01*
X134442295Y-84131724D01*
X134462749Y-84071327D01*
X134470092Y-83996082D01*
X134461289Y-83914721D01*
X134433913Y-83830119D01*
X134392550Y-83748976D01*
X134340582Y-83673315D01*
X133687172Y-83673315D01*
X133656886Y-83749884D01*
X133639269Y-83812717D01*
X133629433Y-83875748D01*
X133625989Y-83946898D01*
X133452009Y-83946898D01*
X133455126Y-83892375D01*
X133469002Y-83819861D01*
X133492406Y-83750089D01*
X133527620Y-83673315D01*
X133028082Y-83673315D01*
X133028082Y-83480608D01*
X134622500Y-83480608D01*
X134622500Y-83673315D01*
G37*
G36*
X134190503Y-82136375D02*
G01*
X134307710Y-82164615D01*
X134406833Y-82209236D01*
X134490792Y-82269774D01*
X134560619Y-82346718D01*
X134610382Y-82434774D01*
X134641074Y-82536144D01*
X134651809Y-82653998D01*
X134641032Y-82772992D01*
X134610273Y-82874957D01*
X134560501Y-82963159D01*
X134490792Y-83039872D01*
X134406868Y-83100157D01*
X134307757Y-83144611D01*
X134190538Y-83172754D01*
X134051521Y-83182754D01*
X133912519Y-83172762D01*
X133795195Y-83144630D01*
X133695889Y-83100176D01*
X133611700Y-83039872D01*
X133541728Y-82963125D01*
X133491791Y-82874910D01*
X133460941Y-82772957D01*
X133450134Y-82653998D01*
X133620127Y-82653998D01*
X133627301Y-82730720D01*
X133647662Y-82795414D01*
X133680491Y-82850455D01*
X133726464Y-82897447D01*
X133781008Y-82932524D01*
X133850911Y-82959591D01*
X133939683Y-82977450D01*
X134051521Y-82984001D01*
X134159161Y-82977543D01*
X134246246Y-82959777D01*
X134316350Y-82932556D01*
X134372456Y-82896898D01*
X134419955Y-82849492D01*
X134453685Y-82794362D01*
X134474504Y-82729973D01*
X134481816Y-82653998D01*
X134474603Y-82579095D01*
X134454019Y-82515275D01*
X134420597Y-82460316D01*
X134373463Y-82412747D01*
X134317826Y-82376948D01*
X134247813Y-82349554D01*
X134160296Y-82331627D01*
X134051521Y-82325095D01*
X133939725Y-82331682D01*
X133850966Y-82349644D01*
X133781046Y-82376879D01*
X133726464Y-82412198D01*
X133680370Y-82459417D01*
X133647549Y-82514314D01*
X133627256Y-82578417D01*
X133620127Y-82653998D01*
X133450134Y-82653998D01*
X133460898Y-82536178D01*
X133491681Y-82434821D01*
X133541610Y-82346753D01*
X133611700Y-82269774D01*
X133695923Y-82209217D01*
X133795243Y-82164596D01*
X133912554Y-82136367D01*
X134051521Y-82126342D01*
X134190503Y-82136375D01*
G37*
G36*
X134622500Y-80871270D02*
G01*
X134622500Y-81063886D01*
X133972295Y-81063886D01*
X133824558Y-81073137D01*
X133760187Y-81087097D01*
X133716664Y-81106934D01*
X133679474Y-81137978D01*
X133652825Y-81180756D01*
X133637634Y-81232910D01*
X133631851Y-81305686D01*
X133641128Y-81384570D01*
X133670685Y-81470733D01*
X133714601Y-81554521D01*
X133769878Y-81635689D01*
X134622500Y-81635689D01*
X134622500Y-81828305D01*
X133479443Y-81828305D01*
X133479443Y-81635689D01*
X133608403Y-81635689D01*
X133541243Y-81542709D01*
X133491991Y-81449209D01*
X133460508Y-81351170D01*
X133450134Y-81251464D01*
X133457899Y-81159659D01*
X133479669Y-81083808D01*
X133514160Y-81020866D01*
X133561509Y-80968631D01*
X133619251Y-80928233D01*
X133690026Y-80897883D01*
X133776525Y-80878322D01*
X133882077Y-80871270D01*
X134622500Y-80871270D01*
G37*
G36*
X136653298Y-92856063D02*
G01*
X136697453Y-92865756D01*
X136736946Y-92881392D01*
X136789915Y-92915284D01*
X136832079Y-92958573D01*
X136870589Y-93018952D01*
X136896010Y-93084602D01*
X136909740Y-93157987D01*
X136915000Y-93259114D01*
X136915000Y-93619800D01*
X135898949Y-93619800D01*
X135898949Y-93323350D01*
X136016186Y-93323350D01*
X136016186Y-93484550D01*
X136309277Y-93484550D01*
X136309277Y-93309672D01*
X136308134Y-93272120D01*
X136426514Y-93272120D01*
X136426514Y-93484550D01*
X136797763Y-93484550D01*
X136797763Y-93305581D01*
X136795244Y-93220793D01*
X136788726Y-93160135D01*
X136775321Y-93106882D01*
X136755570Y-93067200D01*
X136726839Y-93033390D01*
X136695914Y-93011208D01*
X136659400Y-92998274D01*
X136609452Y-92993439D01*
X136552759Y-92998562D01*
X136513647Y-93011879D01*
X136482003Y-93036509D01*
X136453319Y-93078802D01*
X136439867Y-93113845D01*
X136431582Y-93158425D01*
X136426514Y-93272120D01*
X136308134Y-93272120D01*
X136307442Y-93249407D01*
X136302805Y-93208617D01*
X136292833Y-93172368D01*
X136275877Y-93138885D01*
X136252165Y-93111229D01*
X136223060Y-93093456D01*
X136188861Y-93083677D01*
X136146367Y-93080145D01*
X136111372Y-93083447D01*
X136084330Y-93092479D01*
X136061802Y-93108224D01*
X136043480Y-93132047D01*
X136028867Y-93166516D01*
X136020643Y-93209960D01*
X136016186Y-93323350D01*
X135898949Y-93323350D01*
X135898949Y-93318587D01*
X135901374Y-93214265D01*
X135907192Y-93151891D01*
X135919798Y-93097867D01*
X135941386Y-93046012D01*
X135963669Y-93011063D01*
X135988839Y-92984356D01*
X136017041Y-92964740D01*
X136066404Y-92946104D01*
X136127622Y-92939461D01*
X136174826Y-92943788D01*
X136215630Y-92956187D01*
X136251270Y-92976342D01*
X136296923Y-93018807D01*
X136333824Y-93074711D01*
X136339258Y-93074711D01*
X136359336Y-93009134D01*
X136389375Y-92955626D01*
X136429323Y-92912167D01*
X136478279Y-92879658D01*
X136535642Y-92859697D01*
X136603651Y-92852694D01*
X136653298Y-92856063D01*
G37*
G36*
X136915000Y-92540918D02*
G01*
X136915000Y-92669329D01*
X135852055Y-92669329D01*
X135852055Y-92540918D01*
X136915000Y-92540918D01*
G37*
G36*
X136627002Y-91643114D02*
G01*
X136705140Y-91661941D01*
X136771222Y-91691688D01*
X136827194Y-91732047D01*
X136873746Y-91783343D01*
X136906921Y-91842047D01*
X136927383Y-91909627D01*
X136934539Y-91988196D01*
X136927354Y-92067525D01*
X136906848Y-92135502D01*
X136873667Y-92194304D01*
X136827194Y-92245445D01*
X136771245Y-92285636D01*
X136705171Y-92315271D01*
X136627025Y-92334033D01*
X136534347Y-92340700D01*
X136441679Y-92334039D01*
X136363463Y-92315284D01*
X136297259Y-92285648D01*
X136241133Y-92245445D01*
X136194485Y-92194280D01*
X136161194Y-92135471D01*
X136140627Y-92067502D01*
X136133422Y-91988196D01*
X136246751Y-91988196D01*
X136251534Y-92039344D01*
X136265108Y-92082473D01*
X136286994Y-92119167D01*
X136317643Y-92150496D01*
X136354005Y-92173880D01*
X136400607Y-92191925D01*
X136459789Y-92203831D01*
X136534347Y-92208198D01*
X136606107Y-92203893D01*
X136664164Y-92192049D01*
X136710900Y-92173901D01*
X136748304Y-92150129D01*
X136779970Y-92118526D01*
X136802456Y-92081772D01*
X136816336Y-92038846D01*
X136821210Y-91988196D01*
X136816402Y-91938261D01*
X136802679Y-91895714D01*
X136780398Y-91859075D01*
X136748975Y-91827362D01*
X136711884Y-91803496D01*
X136665209Y-91785234D01*
X136606864Y-91773282D01*
X136534347Y-91768927D01*
X136459817Y-91773319D01*
X136400644Y-91785293D01*
X136354031Y-91803450D01*
X136317643Y-91826996D01*
X136286913Y-91858475D01*
X136265032Y-91895074D01*
X136251504Y-91937809D01*
X136246751Y-91988196D01*
X136133422Y-91988196D01*
X136140599Y-91909650D01*
X136161121Y-91842078D01*
X136194407Y-91783366D01*
X136241133Y-91732047D01*
X136297282Y-91691676D01*
X136363495Y-91661928D01*
X136441702Y-91643109D01*
X136534347Y-91636426D01*
X136627002Y-91643114D01*
G37*
G36*
X136627002Y-90794126D02*
G01*
X136705140Y-90812953D01*
X136771222Y-90842700D01*
X136827194Y-90883059D01*
X136873746Y-90934355D01*
X136906921Y-90993059D01*
X136927383Y-91060639D01*
X136934539Y-91139208D01*
X136927354Y-91218537D01*
X136906848Y-91286514D01*
X136873667Y-91345315D01*
X136827194Y-91396457D01*
X136771245Y-91436647D01*
X136705171Y-91466283D01*
X136627025Y-91485045D01*
X136534347Y-91491712D01*
X136441679Y-91485051D01*
X136363463Y-91466296D01*
X136297259Y-91436660D01*
X136241133Y-91396457D01*
X136194485Y-91345292D01*
X136161194Y-91286483D01*
X136140627Y-91218514D01*
X136133422Y-91139208D01*
X136246751Y-91139208D01*
X136251534Y-91190356D01*
X136265108Y-91233485D01*
X136286994Y-91270179D01*
X136317643Y-91301508D01*
X136354005Y-91324892D01*
X136400607Y-91342937D01*
X136459789Y-91354843D01*
X136534347Y-91359210D01*
X136606107Y-91354905D01*
X136664164Y-91343061D01*
X136710900Y-91324913D01*
X136748304Y-91301141D01*
X136779970Y-91269537D01*
X136802456Y-91232784D01*
X136816336Y-91189858D01*
X136821210Y-91139208D01*
X136816402Y-91089273D01*
X136802679Y-91046726D01*
X136780398Y-91010086D01*
X136748975Y-90978374D01*
X136711884Y-90954508D01*
X136665209Y-90936246D01*
X136606864Y-90924294D01*
X136534347Y-90919939D01*
X136459817Y-90924331D01*
X136400644Y-90936305D01*
X136354031Y-90954462D01*
X136317643Y-90978008D01*
X136286913Y-91009487D01*
X136265032Y-91046086D01*
X136251504Y-91088821D01*
X136246751Y-91139208D01*
X136133422Y-91139208D01*
X136140599Y-91060662D01*
X136161121Y-90993090D01*
X136194407Y-90934378D01*
X136241133Y-90883059D01*
X136297282Y-90842687D01*
X136363495Y-90812940D01*
X136441702Y-90794120D01*
X136534347Y-90787437D01*
X136627002Y-90794126D01*
G37*
G36*
X136915000Y-90098306D02*
G01*
X136833972Y-90098306D01*
X136876746Y-90155574D01*
X136908039Y-90213772D01*
X136927802Y-90275873D01*
X136934539Y-90344198D01*
X136927731Y-90410256D01*
X136908141Y-90467276D01*
X136875953Y-90517175D01*
X136829942Y-90561146D01*
X136776254Y-90594442D01*
X136711496Y-90619495D01*
X136633528Y-90635601D01*
X136539781Y-90641380D01*
X136475859Y-90638106D01*
X136418825Y-90628719D01*
X136367834Y-90613720D01*
X136297043Y-90580614D01*
X136239424Y-90538920D01*
X136193749Y-90488431D01*
X136160594Y-90430660D01*
X136140183Y-90367554D01*
X136133422Y-90302554D01*
X136134672Y-90280695D01*
X136250659Y-90280695D01*
X136255675Y-90333373D01*
X136269943Y-90377951D01*
X136293022Y-90416047D01*
X136325458Y-90448734D01*
X136363922Y-90473595D01*
X136410878Y-90492351D01*
X136468035Y-90504456D01*
X136537461Y-90508817D01*
X136626942Y-90502726D01*
X136693808Y-90486508D01*
X136743053Y-90462411D01*
X136773206Y-90436385D01*
X136794863Y-90403912D01*
X136808499Y-90363648D01*
X136813394Y-90313484D01*
X136807526Y-90259243D01*
X136789275Y-90202842D01*
X136761700Y-90148747D01*
X136727055Y-90098306D01*
X136291448Y-90098306D01*
X136271257Y-90149352D01*
X136259513Y-90191241D01*
X136252955Y-90233262D01*
X136250659Y-90280695D01*
X136134672Y-90280695D01*
X136136750Y-90244346D01*
X136146001Y-90196003D01*
X136161604Y-90149489D01*
X136185080Y-90098306D01*
X135852055Y-90098306D01*
X135852055Y-89969835D01*
X136915000Y-89969835D01*
X136915000Y-90098306D01*
G37*
G36*
X136915000Y-88928994D02*
G01*
X136915000Y-89064243D01*
X136418698Y-89064243D01*
X136418698Y-89571780D01*
X136915000Y-89571780D01*
X136915000Y-89707029D01*
X135898949Y-89707029D01*
X135898949Y-89571780D01*
X136297554Y-89571780D01*
X136297554Y-89064243D01*
X135898949Y-89064243D01*
X135898949Y-88928994D01*
X136915000Y-88928994D01*
G37*
G36*
X136627002Y-88022458D02*
G01*
X136705140Y-88041285D01*
X136771222Y-88071032D01*
X136827194Y-88111391D01*
X136873746Y-88162687D01*
X136906921Y-88221391D01*
X136927383Y-88288971D01*
X136934539Y-88367540D01*
X136927354Y-88446869D01*
X136906848Y-88514846D01*
X136873667Y-88573648D01*
X136827194Y-88624789D01*
X136771245Y-88664980D01*
X136705171Y-88694615D01*
X136627025Y-88713377D01*
X136534347Y-88720044D01*
X136441679Y-88713383D01*
X136363463Y-88694628D01*
X136297259Y-88664992D01*
X136241133Y-88624789D01*
X136194485Y-88573625D01*
X136161194Y-88514815D01*
X136140627Y-88446846D01*
X136133422Y-88367540D01*
X136246751Y-88367540D01*
X136251534Y-88418688D01*
X136265108Y-88461817D01*
X136286994Y-88498511D01*
X136317643Y-88529840D01*
X136354005Y-88553224D01*
X136400607Y-88571269D01*
X136459789Y-88583175D01*
X136534347Y-88587542D01*
X136606107Y-88583237D01*
X136664164Y-88571393D01*
X136710900Y-88553245D01*
X136748304Y-88529473D01*
X136779970Y-88497870D01*
X136802456Y-88461116D01*
X136816336Y-88418190D01*
X136821210Y-88367540D01*
X136816402Y-88317605D01*
X136802679Y-88275058D01*
X136780398Y-88238419D01*
X136748975Y-88206706D01*
X136711884Y-88182840D01*
X136665209Y-88164578D01*
X136606864Y-88152626D01*
X136534347Y-88148271D01*
X136459817Y-88152663D01*
X136400644Y-88164637D01*
X136354031Y-88182794D01*
X136317643Y-88206340D01*
X136286913Y-88237819D01*
X136265032Y-88274418D01*
X136251504Y-88317153D01*
X136246751Y-88367540D01*
X136133422Y-88367540D01*
X136140599Y-88288994D01*
X136161121Y-88221422D01*
X136194407Y-88162710D01*
X136241133Y-88111391D01*
X136297282Y-88071020D01*
X136363495Y-88041272D01*
X136441702Y-88022453D01*
X136534347Y-88015770D01*
X136627002Y-88022458D01*
G37*
G36*
X136915000Y-87184550D02*
G01*
X136915000Y-87312961D01*
X136829026Y-87312961D01*
X136875313Y-87378398D01*
X136907306Y-87437280D01*
X136927574Y-87499025D01*
X136934539Y-87568439D01*
X136929512Y-87627816D01*
X136915315Y-87677713D01*
X136892659Y-87719897D01*
X136861388Y-87755651D01*
X136823244Y-87783384D01*
X136776083Y-87804235D01*
X136717990Y-87817704D01*
X136646577Y-87822574D01*
X136152962Y-87822574D01*
X136152962Y-87694163D01*
X136586432Y-87694163D01*
X136685594Y-87688728D01*
X136724690Y-87679880D01*
X136756120Y-87665464D01*
X136782287Y-87644037D01*
X136799778Y-87617654D01*
X136809475Y-87584696D01*
X136813394Y-87532230D01*
X136807344Y-87481888D01*
X136787505Y-87423298D01*
X136758065Y-87366223D01*
X136721376Y-87312961D01*
X136152962Y-87312961D01*
X136152962Y-87184550D01*
X136915000Y-87184550D01*
G37*
G36*
X136915000Y-86293919D02*
G01*
X136915000Y-86422329D01*
X136481530Y-86422329D01*
X136383039Y-86428496D01*
X136340124Y-86437803D01*
X136311109Y-86451028D01*
X136286316Y-86471724D01*
X136268550Y-86500243D01*
X136258423Y-86535012D01*
X136254567Y-86583530D01*
X136260752Y-86636119D01*
X136280457Y-86693561D01*
X136309734Y-86749419D01*
X136346585Y-86803531D01*
X136915000Y-86803531D01*
X136915000Y-86931942D01*
X136152962Y-86931942D01*
X136152962Y-86803531D01*
X136238935Y-86803531D01*
X136194162Y-86741545D01*
X136161327Y-86679212D01*
X136140339Y-86613852D01*
X136133422Y-86547382D01*
X136138599Y-86486178D01*
X136153112Y-86435611D01*
X136176106Y-86393650D01*
X136207672Y-86358826D01*
X136246167Y-86331894D01*
X136293350Y-86311661D01*
X136351017Y-86298620D01*
X136421385Y-86293919D01*
X136915000Y-86293919D01*
G37*
G36*
X136915000Y-85556366D02*
G01*
X136833972Y-85556366D01*
X136876746Y-85613634D01*
X136908039Y-85671832D01*
X136927802Y-85733933D01*
X136934539Y-85802258D01*
X136927731Y-85868316D01*
X136908141Y-85925336D01*
X136875953Y-85975235D01*
X136829942Y-86019206D01*
X136776254Y-86052502D01*
X136711496Y-86077555D01*
X136633528Y-86093661D01*
X136539781Y-86099440D01*
X136475859Y-86096166D01*
X136418825Y-86086779D01*
X136367834Y-86071780D01*
X136297043Y-86038674D01*
X136239424Y-85996980D01*
X136193749Y-85946491D01*
X136160594Y-85888720D01*
X136140183Y-85825614D01*
X136133422Y-85760614D01*
X136134672Y-85738755D01*
X136250659Y-85738755D01*
X136255675Y-85791433D01*
X136269943Y-85836011D01*
X136293022Y-85874107D01*
X136325458Y-85906794D01*
X136363922Y-85931655D01*
X136410878Y-85950411D01*
X136468035Y-85962516D01*
X136537461Y-85966877D01*
X136626942Y-85960786D01*
X136693808Y-85944568D01*
X136743053Y-85920471D01*
X136773206Y-85894445D01*
X136794863Y-85861972D01*
X136808499Y-85821708D01*
X136813394Y-85771544D01*
X136807526Y-85717303D01*
X136789275Y-85660902D01*
X136761700Y-85606807D01*
X136727055Y-85556366D01*
X136291448Y-85556366D01*
X136271257Y-85607412D01*
X136259513Y-85649301D01*
X136252955Y-85691322D01*
X136250659Y-85738755D01*
X136134672Y-85738755D01*
X136136750Y-85702406D01*
X136146001Y-85654063D01*
X136161604Y-85607549D01*
X136185080Y-85556366D01*
X135852055Y-85556366D01*
X135852055Y-85427895D01*
X136915000Y-85427895D01*
X136915000Y-85556366D01*
G37*
G36*
X137118210Y-84409585D02*
G01*
X137118210Y-85304491D01*
X137036144Y-85304491D01*
X137036144Y-84409585D01*
X137118210Y-84409585D01*
G37*
G36*
X135898949Y-83473097D02*
G01*
X136915000Y-83843369D01*
X136915000Y-84023681D01*
X135898949Y-84393954D01*
X135898949Y-84249117D01*
X136792878Y-83930136D01*
X135898949Y-83611094D01*
X135898949Y-83473097D01*
G37*
G36*
X136915000Y-82648533D02*
G01*
X136915000Y-83318613D01*
X135898949Y-83318613D01*
X135898949Y-82648533D01*
X136020094Y-82648533D01*
X136020094Y-83183364D01*
X136297554Y-83183364D01*
X136297554Y-82648533D01*
X136418698Y-82648533D01*
X136418698Y-83183364D01*
X136793855Y-83183364D01*
X136793855Y-82648533D01*
X136915000Y-82648533D01*
G37*
G36*
X136915000Y-81657457D02*
G01*
X136915000Y-81824824D01*
X136006111Y-82307143D01*
X136915000Y-82307143D01*
X136915000Y-82433477D01*
X135898949Y-82433477D01*
X135898949Y-82223795D01*
X136728703Y-81783852D01*
X135898949Y-81783852D01*
X135898949Y-81657457D01*
X136915000Y-81657457D01*
G37*
G36*
X136490303Y-80504475D02*
G01*
X136564688Y-80515954D01*
X136631495Y-80534306D01*
X136695401Y-80560627D01*
X136750011Y-80592205D01*
X136796420Y-80628889D01*
X136838582Y-80673459D01*
X136872930Y-80722809D01*
X136899856Y-80777450D01*
X136918696Y-80835578D01*
X136930447Y-80900491D01*
X136934539Y-80973210D01*
X136930437Y-81044002D01*
X136918524Y-81108747D01*
X136899185Y-81168238D01*
X136871787Y-81224227D01*
X136837612Y-81273758D01*
X136796420Y-81317471D01*
X136749106Y-81354651D01*
X136694323Y-81386229D01*
X136631128Y-81412115D01*
X136565036Y-81430023D01*
X136490802Y-81441276D01*
X136407341Y-81445210D01*
X136325245Y-81441337D01*
X136251517Y-81430212D01*
X136185202Y-81412420D01*
X136121780Y-81386727D01*
X136065935Y-81354846D01*
X136016857Y-81316799D01*
X135976217Y-81273891D01*
X135942262Y-81224385D01*
X135914825Y-81167505D01*
X135895366Y-81107156D01*
X135883474Y-81042612D01*
X135879410Y-80973210D01*
X135879449Y-80972539D01*
X135996646Y-80972539D01*
X136003792Y-81048250D01*
X136024163Y-81112710D01*
X136057165Y-81168144D01*
X136103564Y-81216049D01*
X136158749Y-81252730D01*
X136226052Y-81280332D01*
X136307921Y-81298121D01*
X136407341Y-81304526D01*
X136507817Y-81297972D01*
X136590034Y-81279814D01*
X136657162Y-81251704D01*
X136711789Y-81214400D01*
X136757734Y-81165753D01*
X136790306Y-81110249D01*
X136810317Y-81046520D01*
X136817302Y-80972539D01*
X136810312Y-80898554D01*
X136790293Y-80834894D01*
X136757723Y-80779516D01*
X136711789Y-80731044D01*
X136657182Y-80693877D01*
X136590062Y-80665860D01*
X136507839Y-80647758D01*
X136407341Y-80641223D01*
X136307946Y-80647651D01*
X136226085Y-80665506D01*
X136158773Y-80693221D01*
X136103564Y-80730067D01*
X136057087Y-80778123D01*
X136024090Y-80833468D01*
X136003764Y-80897553D01*
X135996646Y-80972539D01*
X135879449Y-80972539D01*
X135883589Y-80901036D01*
X135895659Y-80835887D01*
X135915130Y-80776839D01*
X135942601Y-80721177D01*
X135976445Y-80672075D01*
X136016857Y-80628889D01*
X136064651Y-80591324D01*
X136119903Y-80559545D01*
X136183553Y-80533634D01*
X136250089Y-80515662D01*
X136324347Y-80504403D01*
X136407341Y-80500478D01*
X136490303Y-80504475D01*
G37*
G36*
X136915000Y-79380320D02*
G01*
X136915000Y-79515569D01*
X136039206Y-79515569D01*
X136633632Y-79798402D01*
X136633632Y-79879002D01*
X136039206Y-80159760D01*
X136915000Y-80159760D01*
X136915000Y-80286094D01*
X135898949Y-80286094D01*
X135898949Y-80101691D01*
X136463394Y-79830459D01*
X135898949Y-79568142D01*
X135898949Y-79380320D01*
X136915000Y-79380320D01*
G37*
D11*
X149670000Y-70210000D02*
X149670000Y-70330000D01*
X149670000Y-70330000D02*
X152330000Y-70330000D01*
X151000000Y-67670000D02*
X152330000Y-67670000D01*
X152330000Y-67670000D02*
X152330000Y-69000000D01*
X152330000Y-70210000D02*
X152330000Y-70330000D01*
X134755000Y-94970000D02*
X132155000Y-94970000D01*
X134755000Y-94970000D02*
X134755000Y-97630000D01*
X132155000Y-94970000D02*
X132155000Y-97630000D01*
X137355000Y-96300000D02*
X137355000Y-97630000D01*
X137355000Y-97630000D02*
X136025000Y-97630000D01*
X134755000Y-97630000D02*
X132155000Y-97630000D01*
X147410000Y-71430000D02*
X147530000Y-71430000D01*
X147530000Y-71430000D02*
X147530000Y-68770000D01*
X144870000Y-70100000D02*
X144870000Y-68770000D01*
X144870000Y-68770000D02*
X146200000Y-68770000D01*
X147410000Y-68770000D02*
X147530000Y-68770000D01*
%LPC*%
D12*
X151000000Y-69000000D03*
D13*
X132000000Y-123850000D03*
X172300000Y-123850000D03*
D12*
X136025000Y-96300000D03*
D14*
X133485000Y-96300000D03*
D13*
X172300000Y-68900000D03*
D12*
X146200000Y-70100000D03*
D13*
X132000000Y-68900000D03*
D15*
X139150000Y-68070000D03*
X142150000Y-68070000D03*
%LPD*%
M02*
