G04 #@! TF.GenerationSoftware,KiCad,Pcbnew,9.0.6*
G04 #@! TF.CreationDate,2025-12-20T18:09:35+05:30*
G04 #@! TF.ProjectId,BloodHound_VENOM_LiPo,426c6f6f-6448-46f7-956e-645f56454e4f,1*
G04 #@! TF.SameCoordinates,Original*
G04 #@! TF.FileFunction,Profile,NP*
%FSLAX46Y46*%
G04 Gerber Fmt 4.6, Leading zero omitted, Abs format (unit mm)*
G04 Created by KiCad (PCBNEW 9.0.6) date 2025-12-20 18:09:35*
%MOMM*%
%LPD*%
G01*
G04 APERTURE LIST*
G04 #@! TA.AperFunction,Profile*
%ADD10C,0.050000*%
G04 #@! TD*
G04 APERTURE END LIST*
D10*
X135700000Y-67000000D02*
G75*
G02*
X136200000Y-66500000I500000J0D01*
G01*
X152850000Y-71600000D02*
X152850000Y-69500000D01*
X134700000Y-72600000D02*
X132150000Y-72600000D01*
X152350000Y-69000000D02*
X149400000Y-69000000D01*
X131150000Y-73600000D02*
X131150000Y-85950000D01*
X130600000Y-86200000D02*
X130900000Y-86200000D01*
X130400000Y-86400000D02*
G75*
G02*
X130600000Y-86200000I200000J0D01*
G01*
X130800000Y-94600000D02*
G75*
G02*
X130400000Y-94200000I0J400000D01*
G01*
X146100000Y-69000000D02*
G75*
G02*
X145600000Y-68500000I0J500000D01*
G01*
X131300000Y-97600000D02*
X131300000Y-95100000D01*
X135700000Y-71600000D02*
G75*
G02*
X134700000Y-72600000I-1000000J0D01*
G01*
X138900000Y-86200000D02*
G75*
G02*
X138650000Y-85950000I0J250000D01*
G01*
X139100000Y-94200000D02*
G75*
G02*
X138700000Y-94600000I-400000J0D01*
G01*
X145600000Y-68500000D02*
X145600000Y-67000000D01*
X145100000Y-66500000D02*
G75*
G02*
X145600000Y-67000000I0J-500000D01*
G01*
X138900000Y-86200000D02*
G75*
G02*
X139100000Y-86400000I0J-200000D01*
G01*
X131800000Y-98100000D02*
X137700000Y-98100000D01*
X152850000Y-71600000D02*
G75*
G02*
X152350000Y-72100000I-500000J0D01*
G01*
X139100000Y-94200000D02*
X139100000Y-86400000D01*
X135700000Y-67000000D02*
X135700000Y-71600000D01*
X138650000Y-85950000D02*
X138650000Y-73600000D01*
X138650000Y-73600000D02*
G75*
G02*
X140150000Y-72100000I1500000J0D01*
G01*
X131150000Y-73600000D02*
G75*
G02*
X132150000Y-72600000I1000000J0D01*
G01*
X130800000Y-94600000D02*
G75*
G02*
X131300000Y-95100000I0J-500000D01*
G01*
X149400000Y-69000000D02*
G75*
G02*
X147500000Y-69000000I-950000J0D01*
G01*
X138200000Y-97600000D02*
G75*
G02*
X137700000Y-98100000I-500000J0D01*
G01*
X138200000Y-95100000D02*
X138200000Y-97600000D01*
X140150000Y-72100000D02*
X152350000Y-72100000D01*
X138200000Y-95100000D02*
G75*
G02*
X138700000Y-94600000I500000J0D01*
G01*
X131150000Y-85950000D02*
G75*
G02*
X130900000Y-86200000I-250000J0D01*
G01*
X130400000Y-94200000D02*
X130400000Y-86400000D01*
X131800000Y-98100000D02*
G75*
G02*
X131300000Y-97600000I0J500000D01*
G01*
X145100000Y-66500000D02*
X136200000Y-66500000D01*
X152350000Y-69000000D02*
G75*
G02*
X152850000Y-69500000I0J-500000D01*
G01*
X147500000Y-69000000D02*
X146100000Y-69000000D01*
M02*
