G04 #@! TF.GenerationSoftware,KiCad,Pcbnew,9.0.6*
G04 #@! TF.CreationDate,2025-12-20T18:09:35+05:30*
G04 #@! TF.ProjectId,BloodHound_VENOM_LiPo,426c6f6f-6448-46f7-956e-645f56454e4f,1*
G04 #@! TF.SameCoordinates,Original*
G04 #@! TF.FileFunction,Legend,Bot*
G04 #@! TF.FilePolarity,Positive*
%FSLAX46Y46*%
G04 Gerber Fmt 4.6, Leading zero omitted, Abs format (unit mm)*
G04 Created by KiCad (PCBNEW 9.0.6) date 2025-12-20 18:09:35*
%MOMM*%
%LPD*%
G01*
G04 APERTURE LIST*
G04 Aperture macros list*
%AMRoundRect*
0 Rectangle with rounded corners*
0 $1 Rounding radius*
0 $2 $3 $4 $5 $6 $7 $8 $9 X,Y pos of 4 corners*
0 Add a 4 corners polygon primitive as box body*
4,1,4,$2,$3,$4,$5,$6,$7,$8,$9,$2,$3,0*
0 Add four circle primitives for the rounded corners*
1,1,$1+$1,$2,$3*
1,1,$1+$1,$4,$5*
1,1,$1+$1,$6,$7*
1,1,$1+$1,$8,$9*
0 Add four rect primitives between the rounded corners*
20,1,$1+$1,$2,$3,$4,$5,0*
20,1,$1+$1,$4,$5,$6,$7,0*
20,1,$1+$1,$6,$7,$8,$9,0*
20,1,$1+$1,$8,$9,$2,$3,0*%
G04 Aperture macros list end*
%ADD10C,0.200000*%
%ADD11C,0.150000*%
%ADD12C,0.120000*%
%ADD13C,0.010000*%
%ADD14C,0.300000*%
%ADD15C,0.250000*%
%ADD16R,1.700000X1.700000*%
%ADD17C,2.200000*%
%ADD18O,1.700000X1.700000*%
%ADD19RoundRect,0.225000X0.225000X0.250000X-0.225000X0.250000X-0.225000X-0.250000X0.225000X-0.250000X0*%
%ADD20R,1.160000X0.490000*%
%ADD21R,1.180000X0.490000*%
%ADD22R,1.000000X0.800000*%
%ADD23C,0.900000*%
%ADD24R,0.700000X1.500000*%
%ADD25RoundRect,0.135000X-0.185000X0.135000X-0.185000X-0.135000X0.185000X-0.135000X0.185000X0.135000X0*%
%ADD26R,0.700000X1.000000*%
%ADD27R,0.750000X1.000000*%
%ADD28R,1.000000X3.500000*%
%ADD29R,1.500000X3.500000*%
%ADD30RoundRect,0.135000X-0.135000X-0.185000X0.135000X-0.185000X0.135000X0.185000X-0.135000X0.185000X0*%
%ADD31RoundRect,0.225000X-0.250000X0.225000X-0.250000X-0.225000X0.250000X-0.225000X0.250000X0.225000X0*%
G04 APERTURE END LIST*
D10*
X138071428Y-84612100D02*
X136928571Y-84612100D01*
X137499999Y-85183528D02*
X137499999Y-84040671D01*
D11*
X151609523Y-70700390D02*
X151685713Y-70662295D01*
X151685713Y-70662295D02*
X151799999Y-70662295D01*
X151799999Y-70662295D02*
X151914285Y-70700390D01*
X151914285Y-70700390D02*
X151990475Y-70776580D01*
X151990475Y-70776580D02*
X152028570Y-70852771D01*
X152028570Y-70852771D02*
X152066666Y-71005152D01*
X152066666Y-71005152D02*
X152066666Y-71119438D01*
X152066666Y-71119438D02*
X152028570Y-71271819D01*
X152028570Y-71271819D02*
X151990475Y-71348009D01*
X151990475Y-71348009D02*
X151914285Y-71424200D01*
X151914285Y-71424200D02*
X151799999Y-71462295D01*
X151799999Y-71462295D02*
X151723808Y-71462295D01*
X151723808Y-71462295D02*
X151609523Y-71424200D01*
X151609523Y-71424200D02*
X151571427Y-71386104D01*
X151571427Y-71386104D02*
X151571427Y-71119438D01*
X151571427Y-71119438D02*
X151723808Y-71119438D01*
X151228570Y-71462295D02*
X151228570Y-70662295D01*
X151228570Y-70662295D02*
X150771427Y-71462295D01*
X150771427Y-71462295D02*
X150771427Y-70662295D01*
X150390475Y-71462295D02*
X150390475Y-70662295D01*
X150390475Y-70662295D02*
X150199999Y-70662295D01*
X150199999Y-70662295D02*
X150085713Y-70700390D01*
X150085713Y-70700390D02*
X150009523Y-70776580D01*
X150009523Y-70776580D02*
X149971428Y-70852771D01*
X149971428Y-70852771D02*
X149933332Y-71005152D01*
X149933332Y-71005152D02*
X149933332Y-71119438D01*
X149933332Y-71119438D02*
X149971428Y-71271819D01*
X149971428Y-71271819D02*
X150009523Y-71348009D01*
X150009523Y-71348009D02*
X150085713Y-71424200D01*
X150085713Y-71424200D02*
X150199999Y-71462295D01*
X150199999Y-71462295D02*
X150390475Y-71462295D01*
D10*
X132571428Y-84612100D02*
X131428571Y-84612100D01*
X132230951Y-96271266D02*
X131469047Y-96271266D01*
X138030951Y-96271266D02*
X137269047Y-96271266D01*
X137649999Y-96652219D02*
X137649999Y-95890314D01*
D11*
X144837704Y-71052380D02*
X144837704Y-71433332D01*
X144837704Y-71433332D02*
X144456752Y-71471428D01*
X144456752Y-71471428D02*
X144494847Y-71433332D01*
X144494847Y-71433332D02*
X144532942Y-71357142D01*
X144532942Y-71357142D02*
X144532942Y-71166666D01*
X144532942Y-71166666D02*
X144494847Y-71090475D01*
X144494847Y-71090475D02*
X144456752Y-71052380D01*
X144456752Y-71052380D02*
X144380561Y-71014285D01*
X144380561Y-71014285D02*
X144190085Y-71014285D01*
X144190085Y-71014285D02*
X144113895Y-71052380D01*
X144113895Y-71052380D02*
X144075800Y-71090475D01*
X144075800Y-71090475D02*
X144037704Y-71166666D01*
X144037704Y-71166666D02*
X144037704Y-71357142D01*
X144037704Y-71357142D02*
X144075800Y-71433332D01*
X144075800Y-71433332D02*
X144113895Y-71471428D01*
X144837704Y-70785713D02*
X144037704Y-70519046D01*
X144037704Y-70519046D02*
X144837704Y-70252380D01*
D12*
X134915580Y-84010000D02*
X134634420Y-84010000D01*
X134915580Y-82990000D02*
X134634420Y-82990000D01*
D13*
X133436520Y-73042876D02*
X133442288Y-73046004D01*
X133479146Y-73076334D01*
X133506858Y-73118173D01*
X133522852Y-73167800D01*
X133527598Y-73216499D01*
X133524779Y-73289383D01*
X133512371Y-73374649D01*
X133490569Y-73471556D01*
X133459568Y-73579366D01*
X133419564Y-73697340D01*
X133370751Y-73824739D01*
X133313326Y-73960822D01*
X133258136Y-74086278D01*
X133293213Y-74160089D01*
X133298548Y-74171552D01*
X133316921Y-74214106D01*
X133333720Y-74257134D01*
X133345866Y-74292866D01*
X133353288Y-74323329D01*
X133361931Y-74379115D01*
X133367440Y-74442487D01*
X133369542Y-74507982D01*
X133367964Y-74570134D01*
X133362431Y-74623480D01*
X133350929Y-74680577D01*
X133317768Y-74784112D01*
X133270821Y-74880650D01*
X133211402Y-74968989D01*
X133140827Y-75047926D01*
X133060410Y-75116258D01*
X132971467Y-75172784D01*
X132875314Y-75216302D01*
X132773266Y-75245608D01*
X132666637Y-75259501D01*
X132576641Y-75264301D01*
X132521655Y-75341657D01*
X132515108Y-75350843D01*
X132432080Y-75463315D01*
X132350542Y-75566427D01*
X132271239Y-75659448D01*
X132194918Y-75741650D01*
X132122327Y-75812302D01*
X132054212Y-75870674D01*
X131991321Y-75916036D01*
X131934398Y-75947658D01*
X131884192Y-75964811D01*
X131842171Y-75968643D01*
X131793280Y-75959920D01*
X131750915Y-75937501D01*
X131717603Y-75902826D01*
X131695867Y-75857337D01*
X131690305Y-75830662D01*
X131686452Y-75784189D01*
X131686546Y-75757635D01*
X131854429Y-75757635D01*
X131857661Y-75779343D01*
X131866795Y-75786933D01*
X131881443Y-75781826D01*
X131906602Y-75765639D01*
X131939574Y-75739874D01*
X131978503Y-75706076D01*
X132021533Y-75665788D01*
X132066807Y-75620556D01*
X132096180Y-75589950D01*
X132139138Y-75543604D01*
X132180007Y-75497131D01*
X132221713Y-75447079D01*
X132267181Y-75389994D01*
X132319337Y-75322422D01*
X132342322Y-75291903D01*
X132361824Y-75265178D01*
X132375017Y-75246136D01*
X132379867Y-75237626D01*
X132375887Y-75233963D01*
X132359742Y-75226000D01*
X132335417Y-75216618D01*
X132320272Y-75211003D01*
X132258567Y-75182536D01*
X132193557Y-75144846D01*
X132130923Y-75101140D01*
X132076968Y-75059786D01*
X132024504Y-75184176D01*
X132022174Y-75189716D01*
X131991039Y-75266825D01*
X131962057Y-75344147D01*
X131935642Y-75420091D01*
X131912213Y-75493065D01*
X131892186Y-75561475D01*
X131875978Y-75623730D01*
X131864004Y-75678236D01*
X131856682Y-75723402D01*
X131854429Y-75757635D01*
X131686546Y-75757635D01*
X131686645Y-75729830D01*
X131690823Y-75672464D01*
X131698923Y-75616973D01*
X131707378Y-75577066D01*
X131727952Y-75497821D01*
X131755150Y-75408390D01*
X131787957Y-75311704D01*
X131825359Y-75210691D01*
X131866343Y-75108281D01*
X131909893Y-75007404D01*
X131954253Y-74908575D01*
X131917198Y-74833404D01*
X131910445Y-74819516D01*
X131883349Y-74757661D01*
X131864216Y-74699974D01*
X131851892Y-74641262D01*
X131845222Y-74576335D01*
X131843053Y-74500000D01*
X131843295Y-74448321D01*
X131844823Y-74405939D01*
X131848101Y-74371327D01*
X131853582Y-74339794D01*
X131861719Y-74306649D01*
X131895269Y-74208421D01*
X131945668Y-74108145D01*
X132008997Y-74017308D01*
X132076968Y-73944595D01*
X132084085Y-73936982D01*
X132169759Y-73868239D01*
X132264848Y-73812152D01*
X132368180Y-73769793D01*
X132417682Y-73757436D01*
X132835933Y-73757436D01*
X132839136Y-73762700D01*
X132847001Y-73766471D01*
X132888493Y-73784241D01*
X132940652Y-73809809D01*
X132992242Y-73838006D01*
X133038152Y-73866018D01*
X133073268Y-73891031D01*
X133081422Y-73897457D01*
X133105873Y-73914897D01*
X133124515Y-73925482D01*
X133133832Y-73927119D01*
X133139408Y-73919543D01*
X133152248Y-73895337D01*
X133168711Y-73858796D01*
X133187924Y-73812322D01*
X133209013Y-73758319D01*
X133231106Y-73699189D01*
X133253328Y-73637336D01*
X133274806Y-73575163D01*
X133294668Y-73515073D01*
X133312039Y-73459469D01*
X133326047Y-73410755D01*
X133335817Y-73371332D01*
X133339478Y-73353505D01*
X133346679Y-73312104D01*
X133351668Y-73274309D01*
X133353533Y-73246539D01*
X133353533Y-73203516D01*
X133317842Y-73223108D01*
X133310020Y-73227690D01*
X133274419Y-73253465D01*
X133230977Y-73291103D01*
X133181187Y-73339020D01*
X133126544Y-73395631D01*
X133068543Y-73459353D01*
X133008678Y-73528600D01*
X132948444Y-73601789D01*
X132889334Y-73677336D01*
X132865883Y-73708277D01*
X132848147Y-73732666D01*
X132838550Y-73748239D01*
X132835933Y-73757436D01*
X132417682Y-73757436D01*
X132478582Y-73742234D01*
X132486436Y-73740904D01*
X132526807Y-73735064D01*
X132565383Y-73730872D01*
X132594759Y-73729162D01*
X132638100Y-73728792D01*
X132692851Y-73650846D01*
X132716159Y-73618320D01*
X132764912Y-73553293D01*
X132818928Y-73484372D01*
X132875262Y-73415146D01*
X132930970Y-73349202D01*
X132983109Y-73290129D01*
X133028733Y-73241513D01*
X133081461Y-73189934D01*
X133154798Y-73126463D01*
X133222277Y-73078671D01*
X133284044Y-73046487D01*
X133340244Y-73029840D01*
X133353533Y-73029531D01*
X133391021Y-73028660D01*
X133436520Y-73042876D01*
G36*
X133436520Y-73042876D02*
G01*
X133442288Y-73046004D01*
X133479146Y-73076334D01*
X133506858Y-73118173D01*
X133522852Y-73167800D01*
X133527598Y-73216499D01*
X133524779Y-73289383D01*
X133512371Y-73374649D01*
X133490569Y-73471556D01*
X133459568Y-73579366D01*
X133419564Y-73697340D01*
X133370751Y-73824739D01*
X133313326Y-73960822D01*
X133258136Y-74086278D01*
X133293213Y-74160089D01*
X133298548Y-74171552D01*
X133316921Y-74214106D01*
X133333720Y-74257134D01*
X133345866Y-74292866D01*
X133353288Y-74323329D01*
X133361931Y-74379115D01*
X133367440Y-74442487D01*
X133369542Y-74507982D01*
X133367964Y-74570134D01*
X133362431Y-74623480D01*
X133350929Y-74680577D01*
X133317768Y-74784112D01*
X133270821Y-74880650D01*
X133211402Y-74968989D01*
X133140827Y-75047926D01*
X133060410Y-75116258D01*
X132971467Y-75172784D01*
X132875314Y-75216302D01*
X132773266Y-75245608D01*
X132666637Y-75259501D01*
X132576641Y-75264301D01*
X132521655Y-75341657D01*
X132515108Y-75350843D01*
X132432080Y-75463315D01*
X132350542Y-75566427D01*
X132271239Y-75659448D01*
X132194918Y-75741650D01*
X132122327Y-75812302D01*
X132054212Y-75870674D01*
X131991321Y-75916036D01*
X131934398Y-75947658D01*
X131884192Y-75964811D01*
X131842171Y-75968643D01*
X131793280Y-75959920D01*
X131750915Y-75937501D01*
X131717603Y-75902826D01*
X131695867Y-75857337D01*
X131690305Y-75830662D01*
X131686452Y-75784189D01*
X131686546Y-75757635D01*
X131854429Y-75757635D01*
X131857661Y-75779343D01*
X131866795Y-75786933D01*
X131881443Y-75781826D01*
X131906602Y-75765639D01*
X131939574Y-75739874D01*
X131978503Y-75706076D01*
X132021533Y-75665788D01*
X132066807Y-75620556D01*
X132096180Y-75589950D01*
X132139138Y-75543604D01*
X132180007Y-75497131D01*
X132221713Y-75447079D01*
X132267181Y-75389994D01*
X132319337Y-75322422D01*
X132342322Y-75291903D01*
X132361824Y-75265178D01*
X132375017Y-75246136D01*
X132379867Y-75237626D01*
X132375887Y-75233963D01*
X132359742Y-75226000D01*
X132335417Y-75216618D01*
X132320272Y-75211003D01*
X132258567Y-75182536D01*
X132193557Y-75144846D01*
X132130923Y-75101140D01*
X132076968Y-75059786D01*
X132024504Y-75184176D01*
X132022174Y-75189716D01*
X131991039Y-75266825D01*
X131962057Y-75344147D01*
X131935642Y-75420091D01*
X131912213Y-75493065D01*
X131892186Y-75561475D01*
X131875978Y-75623730D01*
X131864004Y-75678236D01*
X131856682Y-75723402D01*
X131854429Y-75757635D01*
X131686546Y-75757635D01*
X131686645Y-75729830D01*
X131690823Y-75672464D01*
X131698923Y-75616973D01*
X131707378Y-75577066D01*
X131727952Y-75497821D01*
X131755150Y-75408390D01*
X131787957Y-75311704D01*
X131825359Y-75210691D01*
X131866343Y-75108281D01*
X131909893Y-75007404D01*
X131954253Y-74908575D01*
X131917198Y-74833404D01*
X131910445Y-74819516D01*
X131883349Y-74757661D01*
X131864216Y-74699974D01*
X131851892Y-74641262D01*
X131845222Y-74576335D01*
X131843053Y-74500000D01*
X131843295Y-74448321D01*
X131844823Y-74405939D01*
X131848101Y-74371327D01*
X131853582Y-74339794D01*
X131861719Y-74306649D01*
X131895269Y-74208421D01*
X131945668Y-74108145D01*
X132008997Y-74017308D01*
X132076968Y-73944595D01*
X132084085Y-73936982D01*
X132169759Y-73868239D01*
X132264848Y-73812152D01*
X132368180Y-73769793D01*
X132417682Y-73757436D01*
X132835933Y-73757436D01*
X132839136Y-73762700D01*
X132847001Y-73766471D01*
X132888493Y-73784241D01*
X132940652Y-73809809D01*
X132992242Y-73838006D01*
X133038152Y-73866018D01*
X133073268Y-73891031D01*
X133081422Y-73897457D01*
X133105873Y-73914897D01*
X133124515Y-73925482D01*
X133133832Y-73927119D01*
X133139408Y-73919543D01*
X133152248Y-73895337D01*
X133168711Y-73858796D01*
X133187924Y-73812322D01*
X133209013Y-73758319D01*
X133231106Y-73699189D01*
X133253328Y-73637336D01*
X133274806Y-73575163D01*
X133294668Y-73515073D01*
X133312039Y-73459469D01*
X133326047Y-73410755D01*
X133335817Y-73371332D01*
X133339478Y-73353505D01*
X133346679Y-73312104D01*
X133351668Y-73274309D01*
X133353533Y-73246539D01*
X133353533Y-73203516D01*
X133317842Y-73223108D01*
X133310020Y-73227690D01*
X133274419Y-73253465D01*
X133230977Y-73291103D01*
X133181187Y-73339020D01*
X133126544Y-73395631D01*
X133068543Y-73459353D01*
X133008678Y-73528600D01*
X132948444Y-73601789D01*
X132889334Y-73677336D01*
X132865883Y-73708277D01*
X132848147Y-73732666D01*
X132838550Y-73748239D01*
X132835933Y-73757436D01*
X132417682Y-73757436D01*
X132478582Y-73742234D01*
X132486436Y-73740904D01*
X132526807Y-73735064D01*
X132565383Y-73730872D01*
X132594759Y-73729162D01*
X132638100Y-73728792D01*
X132692851Y-73650846D01*
X132716159Y-73618320D01*
X132764912Y-73553293D01*
X132818928Y-73484372D01*
X132875262Y-73415146D01*
X132930970Y-73349202D01*
X132983109Y-73290129D01*
X133028733Y-73241513D01*
X133081461Y-73189934D01*
X133154798Y-73126463D01*
X133222277Y-73078671D01*
X133284044Y-73046487D01*
X133340244Y-73029840D01*
X133353533Y-73029531D01*
X133391021Y-73028660D01*
X133436520Y-73042876D01*
G37*
D11*
X135515000Y-78970000D02*
X133815000Y-78970000D01*
X133815000Y-80980000D02*
X133815000Y-80020000D01*
X135515000Y-82030000D02*
X133815000Y-82030000D01*
D14*
X135955000Y-78850000D02*
G75*
G02*
X135655000Y-78850000I-150000J0D01*
G01*
X135655000Y-78850000D02*
G75*
G02*
X135955000Y-78850000I150000J0D01*
G01*
D12*
X137200000Y-68470000D02*
X137200000Y-67680000D01*
X139050000Y-69520000D02*
X140750000Y-69520000D01*
X142050000Y-69520000D02*
X142250000Y-69520000D01*
X144100000Y-67680000D02*
X144100000Y-68470000D01*
X137980000Y-77446359D02*
X137980000Y-77753641D01*
X137220000Y-77446359D02*
X137220000Y-77753641D01*
D15*
X131250000Y-77800000D02*
X131520000Y-77800000D01*
X131250000Y-77800000D02*
X131250000Y-79400000D01*
X131250000Y-79400000D02*
X131520000Y-79400000D01*
D11*
X134470000Y-75450000D02*
X134470000Y-73690000D01*
X135930000Y-75450000D02*
X135930000Y-73690000D01*
X135930000Y-75040000D02*
X134470000Y-75040000D01*
X134470000Y-73690000D02*
X134680000Y-73690000D01*
X135930000Y-73690000D02*
X135730000Y-73690000D01*
D15*
X138800000Y-90590000D02*
X138800000Y-86500000D01*
X138800000Y-86500000D02*
X137850000Y-86500000D01*
X137850000Y-88000000D02*
X136530000Y-88000000D01*
X137850000Y-86500000D02*
X137850000Y-88000000D01*
X136530000Y-88000000D02*
X136480000Y-88000000D01*
X135020000Y-88000000D02*
X134480000Y-88000000D01*
X134590000Y-94170000D02*
X137120000Y-94170000D01*
X134590000Y-94170000D02*
X132380000Y-94170000D01*
X131700000Y-88000000D02*
X133020000Y-88000000D01*
X131700000Y-86500000D02*
X131700000Y-88000000D01*
X130750000Y-86500000D02*
X131700000Y-86500000D01*
X130750000Y-86500000D02*
X130750000Y-90490000D01*
X137340000Y-87000000D02*
G75*
G02*
X136720000Y-87000000I-310000J0D01*
G01*
X136720000Y-87000000D02*
G75*
G02*
X137340000Y-87000000I310000J0D01*
G01*
D12*
X134046359Y-77720000D02*
X134353641Y-77720000D01*
X134046359Y-78480000D02*
X134353641Y-78480000D01*
X132610000Y-82059420D02*
X132610000Y-82340580D01*
X131590000Y-82059420D02*
X131590000Y-82340580D01*
%LPC*%
D16*
X151000000Y-69000000D03*
D17*
X132000000Y-123850000D03*
X172300000Y-123850000D03*
D16*
X136025000Y-96300000D03*
D18*
X133485000Y-96300000D03*
D17*
X172300000Y-68900000D03*
D16*
X146200000Y-70100000D03*
D17*
X132000000Y-68900000D03*
D19*
X135550000Y-83500000D03*
X134000000Y-83500000D03*
D20*
X135815000Y-79550000D03*
X135815000Y-80500000D03*
X135815000Y-81450000D03*
D21*
X133515000Y-81450000D03*
X133515000Y-79550000D03*
D22*
X137000000Y-66970000D03*
X137000000Y-69180000D03*
D23*
X139150000Y-68070000D03*
X142150000Y-68070000D03*
D22*
X144300000Y-66970000D03*
X144300000Y-69180000D03*
D24*
X138400000Y-69830000D03*
X141400000Y-69830000D03*
X142900000Y-69830000D03*
D25*
X137600000Y-77090000D03*
X137600000Y-78110000D03*
D26*
X132100000Y-79600000D03*
X132100000Y-77600000D03*
D27*
X135200000Y-75770000D03*
X135200000Y-73430000D03*
D28*
X135750000Y-86850000D03*
X133750000Y-86850000D03*
D29*
X131400000Y-92550000D03*
X138100000Y-92550000D03*
D30*
X133690000Y-78100000D03*
X134710000Y-78100000D03*
D31*
X132100000Y-81425000D03*
X132100000Y-82975000D03*
%LPD*%
M02*
