G04 #@! TF.GenerationSoftware,KiCad,Pcbnew,9.0.6*
G04 #@! TF.CreationDate,2025-12-20T18:09:35+05:30*
G04 #@! TF.ProjectId,BloodHound_VENOM_LiPo,426c6f6f-6448-46f7-956e-645f56454e4f,1*
G04 #@! TF.SameCoordinates,Original*
G04 #@! TF.FileFunction,Copper,L1,Top*
G04 #@! TF.FilePolarity,Positive*
%FSLAX46Y46*%
G04 Gerber Fmt 4.6, Leading zero omitted, Abs format (unit mm)*
G04 Created by KiCad (PCBNEW 9.0.6) date 2025-12-20 18:09:35*
%MOMM*%
%LPD*%
G01*
G04 APERTURE LIST*
G04 #@! TA.AperFunction,CastellatedPad*
%ADD10R,1.700000X1.700000*%
G04 #@! TD*
G04 #@! TA.AperFunction,ComponentPad*
%ADD11R,1.700000X1.700000*%
G04 #@! TD*
G04 #@! TA.AperFunction,ComponentPad*
%ADD12O,1.700000X1.700000*%
G04 #@! TD*
G04 #@! TA.AperFunction,ViaPad*
%ADD13C,0.800000*%
G04 #@! TD*
G04 #@! TA.AperFunction,Conductor*
%ADD14C,0.400000*%
G04 #@! TD*
G04 APERTURE END LIST*
D10*
X151000000Y-69000000D03*
D11*
X136025000Y-96300000D03*
D12*
X133485000Y-96300000D03*
D11*
X146200000Y-70100000D03*
D13*
X135200000Y-74600000D03*
X134600000Y-80500000D03*
X137500000Y-80500000D03*
X135700000Y-78000000D03*
X133100000Y-83500000D03*
X135815000Y-82400000D03*
X136565332Y-74065332D03*
X132000000Y-76300000D03*
X134300000Y-77100000D03*
D14*
X139075000Y-70100000D02*
X146200000Y-70100000D01*
X135200000Y-73975000D02*
X139075000Y-70100000D01*
X135200000Y-74600000D02*
X135200000Y-73975000D01*
X151000000Y-69000000D02*
X151000000Y-70450000D01*
X151000000Y-70450000D02*
X149800000Y-71650000D01*
X149800000Y-71650000D02*
X138750000Y-71650000D01*
X138750000Y-71650000D02*
X137500000Y-72900000D01*
X137500000Y-72900000D02*
X137500000Y-80500000D01*
X136500000Y-74130664D02*
X136500000Y-81715000D01*
X136500000Y-81715000D02*
X135815000Y-82400000D01*
X136565332Y-74065332D02*
X136500000Y-74130664D01*
X133500000Y-76300000D02*
X134300000Y-77100000D01*
X132000000Y-76300000D02*
X133500000Y-76300000D01*
G04 #@! TA.AperFunction,Conductor*
G36*
X145108059Y-66526561D02*
G01*
X145206623Y-66539537D01*
X145237890Y-66547915D01*
X145282649Y-66566454D01*
X145322168Y-66582823D01*
X145350197Y-66599005D01*
X145385460Y-66626064D01*
X145422571Y-66654541D01*
X145445458Y-66677428D01*
X145500991Y-66749798D01*
X145517177Y-66777834D01*
X145552084Y-66862109D01*
X145560462Y-66893375D01*
X145573439Y-66991939D01*
X145574500Y-67008125D01*
X145574500Y-68559214D01*
X145583332Y-68597907D01*
X145579059Y-68667646D01*
X145537760Y-68724004D01*
X145472548Y-68749087D01*
X145462442Y-68749500D01*
X145302130Y-68749500D01*
X145302123Y-68749501D01*
X145242516Y-68755908D01*
X145107671Y-68806202D01*
X145107664Y-68806206D01*
X144992455Y-68892452D01*
X144992452Y-68892455D01*
X144906206Y-69007664D01*
X144906202Y-69007671D01*
X144855908Y-69142517D01*
X144849501Y-69202116D01*
X144849500Y-69202135D01*
X144849500Y-69275500D01*
X144829815Y-69342539D01*
X144777011Y-69388294D01*
X144725500Y-69399500D01*
X139006004Y-69399500D01*
X138870677Y-69426418D01*
X138870667Y-69426421D01*
X138743192Y-69479222D01*
X138628454Y-69555887D01*
X134655887Y-73528454D01*
X134590168Y-73626811D01*
X134579224Y-73643190D01*
X134579222Y-73643193D01*
X134526421Y-73770667D01*
X134526418Y-73770677D01*
X134499500Y-73906004D01*
X134499500Y-73989899D01*
X134479815Y-74056938D01*
X134478602Y-74058790D01*
X134401988Y-74173449D01*
X134401987Y-74173452D01*
X134334106Y-74337332D01*
X134334103Y-74337341D01*
X134299500Y-74511304D01*
X134299500Y-74688695D01*
X134334103Y-74862658D01*
X134334106Y-74862667D01*
X134401983Y-75026540D01*
X134401990Y-75026553D01*
X134500535Y-75174034D01*
X134500538Y-75174038D01*
X134625961Y-75299461D01*
X134625965Y-75299464D01*
X134773446Y-75398009D01*
X134773459Y-75398016D01*
X134860583Y-75434103D01*
X134937334Y-75465894D01*
X134937336Y-75465894D01*
X134937341Y-75465896D01*
X135111304Y-75500499D01*
X135111307Y-75500500D01*
X135111309Y-75500500D01*
X135288693Y-75500500D01*
X135288694Y-75500499D01*
X135385286Y-75481286D01*
X135462658Y-75465896D01*
X135462661Y-75465894D01*
X135462666Y-75465894D01*
X135626547Y-75398013D01*
X135626548Y-75398012D01*
X135628048Y-75397391D01*
X135697517Y-75389922D01*
X135759996Y-75421197D01*
X135795648Y-75481286D01*
X135799500Y-75511952D01*
X135799500Y-81373479D01*
X135790854Y-81402921D01*
X135784330Y-81432910D01*
X135780576Y-81437923D01*
X135779815Y-81440518D01*
X135763178Y-81461164D01*
X135751071Y-81473270D01*
X135689746Y-81506752D01*
X135687585Y-81507202D01*
X135552340Y-81534104D01*
X135552332Y-81534106D01*
X135388459Y-81601983D01*
X135388446Y-81601990D01*
X135240965Y-81700535D01*
X135240961Y-81700538D01*
X135115538Y-81825961D01*
X135115535Y-81825965D01*
X135016990Y-81973446D01*
X135016983Y-81973459D01*
X134949106Y-82137332D01*
X134949103Y-82137341D01*
X134914500Y-82311304D01*
X134914500Y-82488695D01*
X134949103Y-82662658D01*
X134949106Y-82662667D01*
X135016983Y-82826540D01*
X135016990Y-82826553D01*
X135115535Y-82974034D01*
X135115538Y-82974038D01*
X135240961Y-83099461D01*
X135240965Y-83099464D01*
X135388446Y-83198009D01*
X135388459Y-83198016D01*
X135511363Y-83248923D01*
X135552334Y-83265894D01*
X135552336Y-83265894D01*
X135552341Y-83265896D01*
X135726304Y-83300499D01*
X135726307Y-83300500D01*
X135726309Y-83300500D01*
X135903693Y-83300500D01*
X135903694Y-83300499D01*
X135961682Y-83288964D01*
X136077658Y-83265896D01*
X136077661Y-83265894D01*
X136077666Y-83265894D01*
X136241547Y-83198013D01*
X136389035Y-83099464D01*
X136514464Y-82974035D01*
X136613013Y-82826547D01*
X136680894Y-82662666D01*
X136707797Y-82527408D01*
X136740180Y-82465503D01*
X136741620Y-82464035D01*
X137044114Y-82161543D01*
X137074819Y-82115587D01*
X137120775Y-82046811D01*
X137173580Y-81919328D01*
X137200500Y-81783993D01*
X137200500Y-74755025D01*
X137220185Y-74687986D01*
X137236815Y-74667347D01*
X137264796Y-74639367D01*
X137363345Y-74491879D01*
X137431226Y-74327998D01*
X137465832Y-74154023D01*
X137465832Y-73976641D01*
X137465832Y-73976638D01*
X137465831Y-73976636D01*
X137431228Y-73802673D01*
X137431225Y-73802664D01*
X137363348Y-73638791D01*
X137363341Y-73638778D01*
X137264796Y-73491297D01*
X137264793Y-73491293D01*
X137139370Y-73365870D01*
X137139366Y-73365867D01*
X137061434Y-73313794D01*
X137016629Y-73260182D01*
X137007922Y-73190857D01*
X137038077Y-73127829D01*
X137042624Y-73123031D01*
X139328838Y-70836819D01*
X139390161Y-70803334D01*
X139416519Y-70800500D01*
X144725501Y-70800500D01*
X144792540Y-70820185D01*
X144838295Y-70872989D01*
X144849501Y-70924500D01*
X144849501Y-70997876D01*
X144855908Y-71057483D01*
X144906202Y-71192328D01*
X144906206Y-71192335D01*
X144992452Y-71307544D01*
X144992455Y-71307547D01*
X145107664Y-71393793D01*
X145107671Y-71393797D01*
X145242517Y-71444091D01*
X145242516Y-71444091D01*
X145249444Y-71444835D01*
X145302127Y-71450500D01*
X147097872Y-71450499D01*
X147157483Y-71444091D01*
X147292331Y-71393796D01*
X147407546Y-71307546D01*
X147493796Y-71192331D01*
X147544091Y-71057483D01*
X147550500Y-70997873D01*
X147550499Y-69781357D01*
X147570184Y-69714319D01*
X147622987Y-69668564D01*
X147692146Y-69658620D01*
X147755702Y-69687645D01*
X147766137Y-69697821D01*
X147789995Y-69723992D01*
X147849190Y-69768694D01*
X147934266Y-69832941D01*
X148096094Y-69913521D01*
X148096096Y-69913521D01*
X148096099Y-69913523D01*
X148269984Y-69962998D01*
X148449999Y-69979679D01*
X148450000Y-69979679D01*
X148450001Y-69979679D01*
X148510005Y-69974118D01*
X148630016Y-69962998D01*
X148803901Y-69913523D01*
X148803905Y-69913521D01*
X148803906Y-69913521D01*
X148965733Y-69832941D01*
X148965733Y-69832940D01*
X148965735Y-69832940D01*
X149110005Y-69723992D01*
X149231801Y-69590388D01*
X149326973Y-69436681D01*
X149392280Y-69268102D01*
X149404112Y-69204806D01*
X149435779Y-69142528D01*
X149496092Y-69107255D01*
X149565900Y-69110189D01*
X149623040Y-69150398D01*
X149649371Y-69215116D01*
X149650000Y-69227594D01*
X149650000Y-69897844D01*
X149656401Y-69957372D01*
X149656403Y-69957379D01*
X149706645Y-70092086D01*
X149706649Y-70092093D01*
X149792809Y-70207187D01*
X149792812Y-70207190D01*
X149907906Y-70293350D01*
X149907913Y-70293354D01*
X150042620Y-70343596D01*
X150042627Y-70343598D01*
X150102155Y-70349999D01*
X150102172Y-70350000D01*
X150750000Y-70350000D01*
X150750000Y-69433012D01*
X150807007Y-69465925D01*
X150934174Y-69500000D01*
X151065826Y-69500000D01*
X151192993Y-69465925D01*
X151250000Y-69433012D01*
X151250000Y-70350000D01*
X151897828Y-70350000D01*
X151897844Y-70349999D01*
X151957372Y-70343598D01*
X151957379Y-70343596D01*
X152092086Y-70293354D01*
X152092093Y-70293350D01*
X152207187Y-70207190D01*
X152207190Y-70207187D01*
X152293350Y-70092093D01*
X152293354Y-70092086D01*
X152343596Y-69957379D01*
X152343598Y-69957372D01*
X152349999Y-69897844D01*
X152350000Y-69897827D01*
X152350000Y-69176377D01*
X152359241Y-69144903D01*
X152367358Y-69113104D01*
X152369038Y-69111539D01*
X152369685Y-69109338D01*
X152394466Y-69087864D01*
X152418495Y-69065493D01*
X152420755Y-69065085D01*
X152422489Y-69063583D01*
X152454952Y-69058915D01*
X152487255Y-69053087D01*
X152490220Y-69053844D01*
X152491647Y-69053639D01*
X152521447Y-69061814D01*
X152572171Y-69082825D01*
X152600197Y-69099005D01*
X152635278Y-69125924D01*
X152672571Y-69154541D01*
X152695458Y-69177428D01*
X152750991Y-69249798D01*
X152767177Y-69277834D01*
X152802084Y-69362109D01*
X152810462Y-69393375D01*
X152823439Y-69491939D01*
X152824500Y-69508125D01*
X152824500Y-71591874D01*
X152823439Y-71608060D01*
X152810462Y-71706624D01*
X152802084Y-71737890D01*
X152767177Y-71822165D01*
X152750991Y-71850201D01*
X152695458Y-71922571D01*
X152672571Y-71945458D01*
X152600201Y-72000991D01*
X152572165Y-72017177D01*
X152487890Y-72052084D01*
X152456624Y-72060462D01*
X152368244Y-72072098D01*
X152358058Y-72073439D01*
X152341874Y-72074500D01*
X140040894Y-72074500D01*
X139824907Y-72105553D01*
X139824897Y-72105556D01*
X139615531Y-72167032D01*
X139417038Y-72257680D01*
X139417033Y-72257682D01*
X139233467Y-72375654D01*
X139233459Y-72375660D01*
X139068553Y-72518551D01*
X139068551Y-72518553D01*
X138925660Y-72683459D01*
X138925654Y-72683467D01*
X138807682Y-72867033D01*
X138807680Y-72867038D01*
X138717032Y-73065531D01*
X138655556Y-73274897D01*
X138655553Y-73274907D01*
X138633143Y-73430780D01*
X138624500Y-73490894D01*
X138624500Y-73589438D01*
X138624500Y-85941715D01*
X138624500Y-85950000D01*
X138624500Y-85993635D01*
X138651468Y-86076633D01*
X138702764Y-86147236D01*
X138773367Y-86198532D01*
X138856365Y-86225500D01*
X138887789Y-86225500D01*
X138911973Y-86227881D01*
X138942587Y-86233971D01*
X138987280Y-86252482D01*
X139002881Y-86262906D01*
X139037093Y-86297118D01*
X139047516Y-86312717D01*
X139066029Y-86357413D01*
X139072117Y-86388018D01*
X139074500Y-86412210D01*
X139074500Y-94191873D01*
X139073439Y-94208058D01*
X139073439Y-94208060D01*
X139063869Y-94280745D01*
X139055491Y-94312010D01*
X139030574Y-94372166D01*
X139014388Y-94400201D01*
X138974748Y-94451860D01*
X138951860Y-94474748D01*
X138900201Y-94514388D01*
X138872166Y-94530574D01*
X138812010Y-94555491D01*
X138780745Y-94563869D01*
X138731386Y-94570367D01*
X138708056Y-94573439D01*
X138691874Y-94574500D01*
X138640788Y-94574500D01*
X138525335Y-94600852D01*
X138418651Y-94652228D01*
X138326064Y-94726064D01*
X138252228Y-94818651D01*
X138200852Y-94925335D01*
X138174500Y-95040788D01*
X138174500Y-97591874D01*
X138173439Y-97608059D01*
X138173439Y-97608060D01*
X138160462Y-97706624D01*
X138152084Y-97737890D01*
X138117177Y-97822165D01*
X138100991Y-97850201D01*
X138045458Y-97922571D01*
X138022571Y-97945458D01*
X137950201Y-98000991D01*
X137922165Y-98017177D01*
X137837890Y-98052084D01*
X137806624Y-98060462D01*
X137718244Y-98072098D01*
X137708058Y-98073439D01*
X137691874Y-98074500D01*
X131808126Y-98074500D01*
X131791941Y-98073439D01*
X131780208Y-98071894D01*
X131693375Y-98060462D01*
X131662109Y-98052084D01*
X131577834Y-98017177D01*
X131549800Y-98000992D01*
X131514540Y-97973936D01*
X131477428Y-97945458D01*
X131454541Y-97922571D01*
X131422912Y-97881352D01*
X131399005Y-97850197D01*
X131382823Y-97822168D01*
X131363145Y-97774660D01*
X131347915Y-97737890D01*
X131339537Y-97706623D01*
X131326561Y-97608059D01*
X131325500Y-97591874D01*
X131325500Y-96050000D01*
X132157769Y-96050000D01*
X133051988Y-96050000D01*
X133019075Y-96107007D01*
X132985000Y-96234174D01*
X132985000Y-96365826D01*
X133019075Y-96492993D01*
X133051988Y-96550000D01*
X132157769Y-96550000D01*
X132168242Y-96616126D01*
X132168242Y-96616129D01*
X132233904Y-96818217D01*
X132330379Y-97007557D01*
X132455272Y-97179459D01*
X132455276Y-97179464D01*
X132605535Y-97329723D01*
X132605540Y-97329727D01*
X132777442Y-97454620D01*
X132966782Y-97551095D01*
X133168871Y-97616757D01*
X133235000Y-97627231D01*
X133235000Y-96733012D01*
X133292007Y-96765925D01*
X133419174Y-96800000D01*
X133550826Y-96800000D01*
X133677993Y-96765925D01*
X133735000Y-96733012D01*
X133735000Y-97627230D01*
X133801126Y-97616757D01*
X133801129Y-97616757D01*
X134003217Y-97551095D01*
X134192557Y-97454620D01*
X134364458Y-97329728D01*
X134478133Y-97216053D01*
X134539456Y-97182568D01*
X134609148Y-97187552D01*
X134665082Y-97229423D01*
X134681997Y-97260401D01*
X134731202Y-97392328D01*
X134731206Y-97392335D01*
X134817452Y-97507544D01*
X134817455Y-97507547D01*
X134932664Y-97593793D01*
X134932671Y-97593797D01*
X135067517Y-97644091D01*
X135067516Y-97644091D01*
X135074444Y-97644835D01*
X135127127Y-97650500D01*
X136922872Y-97650499D01*
X136982483Y-97644091D01*
X137117331Y-97593796D01*
X137232546Y-97507546D01*
X137318796Y-97392331D01*
X137369091Y-97257483D01*
X137375500Y-97197873D01*
X137375499Y-95402128D01*
X137369091Y-95342517D01*
X137368002Y-95339598D01*
X137318797Y-95207671D01*
X137318793Y-95207664D01*
X137232547Y-95092455D01*
X137232544Y-95092452D01*
X137117335Y-95006206D01*
X137117328Y-95006202D01*
X136982482Y-94955908D01*
X136982483Y-94955908D01*
X136922883Y-94949501D01*
X136922881Y-94949500D01*
X136922873Y-94949500D01*
X136922864Y-94949500D01*
X135127129Y-94949500D01*
X135127123Y-94949501D01*
X135067516Y-94955908D01*
X134932671Y-95006202D01*
X134932664Y-95006206D01*
X134817455Y-95092452D01*
X134817452Y-95092455D01*
X134731206Y-95207664D01*
X134731202Y-95207671D01*
X134681997Y-95339598D01*
X134640126Y-95395532D01*
X134574661Y-95419949D01*
X134506388Y-95405097D01*
X134478134Y-95383946D01*
X134364464Y-95270276D01*
X134364459Y-95270272D01*
X134192557Y-95145379D01*
X134003215Y-95048903D01*
X133801124Y-94983241D01*
X133735000Y-94972768D01*
X133735000Y-95866988D01*
X133677993Y-95834075D01*
X133550826Y-95800000D01*
X133419174Y-95800000D01*
X133292007Y-95834075D01*
X133235000Y-95866988D01*
X133235000Y-94972768D01*
X133234999Y-94972768D01*
X133168875Y-94983241D01*
X132966784Y-95048903D01*
X132777442Y-95145379D01*
X132605540Y-95270272D01*
X132605535Y-95270276D01*
X132455276Y-95420535D01*
X132455272Y-95420540D01*
X132330379Y-95592442D01*
X132233904Y-95781782D01*
X132168242Y-95983870D01*
X132168242Y-95983873D01*
X132157769Y-96050000D01*
X131325500Y-96050000D01*
X131325500Y-95040790D01*
X131299149Y-94925340D01*
X131299147Y-94925335D01*
X131247771Y-94818651D01*
X131247769Y-94818648D01*
X131173936Y-94726064D01*
X131081352Y-94652231D01*
X131081351Y-94652230D01*
X131081348Y-94652228D01*
X130974664Y-94600852D01*
X130974665Y-94600852D01*
X130859211Y-94574500D01*
X130859210Y-94574500D01*
X130808126Y-94574500D01*
X130791943Y-94573439D01*
X130764215Y-94569788D01*
X130719254Y-94563869D01*
X130687989Y-94555491D01*
X130627833Y-94530574D01*
X130599798Y-94514388D01*
X130548139Y-94474748D01*
X130525251Y-94451860D01*
X130485611Y-94400201D01*
X130469425Y-94372166D01*
X130444508Y-94312010D01*
X130436130Y-94280743D01*
X130426561Y-94208058D01*
X130425500Y-94191873D01*
X130425500Y-86412210D01*
X130427881Y-86388027D01*
X130433971Y-86357410D01*
X130437159Y-86349715D01*
X130437251Y-86344555D01*
X130452480Y-86312722D01*
X130462908Y-86297115D01*
X130497115Y-86262908D01*
X130512721Y-86252481D01*
X130557410Y-86233971D01*
X130588026Y-86227881D01*
X130612211Y-86225500D01*
X130943634Y-86225500D01*
X130943635Y-86225500D01*
X131026633Y-86198532D01*
X131097236Y-86147236D01*
X131148532Y-86076633D01*
X131175500Y-85993635D01*
X131175500Y-85950000D01*
X131175500Y-85941715D01*
X131175500Y-77048362D01*
X131195185Y-76981323D01*
X131247989Y-76935568D01*
X131317147Y-76925624D01*
X131380703Y-76954649D01*
X131387181Y-76960681D01*
X131425961Y-76999461D01*
X131425965Y-76999464D01*
X131573446Y-77098009D01*
X131573459Y-77098016D01*
X131696363Y-77148923D01*
X131737334Y-77165894D01*
X131737336Y-77165894D01*
X131737341Y-77165896D01*
X131911304Y-77200499D01*
X131911307Y-77200500D01*
X131911309Y-77200500D01*
X132088693Y-77200500D01*
X132088694Y-77200499D01*
X132148058Y-77188691D01*
X132262658Y-77165896D01*
X132262661Y-77165894D01*
X132262666Y-77165894D01*
X132426547Y-77098013D01*
X132541209Y-77021397D01*
X132607886Y-77000520D01*
X132610100Y-77000500D01*
X133158481Y-77000500D01*
X133187921Y-77009144D01*
X133217908Y-77015668D01*
X133222923Y-77019422D01*
X133225520Y-77020185D01*
X133246162Y-77036819D01*
X133373266Y-77163923D01*
X133406751Y-77225246D01*
X133407202Y-77227413D01*
X133434103Y-77362658D01*
X133434106Y-77362667D01*
X133501983Y-77526540D01*
X133501990Y-77526553D01*
X133600535Y-77674034D01*
X133600538Y-77674038D01*
X133725961Y-77799461D01*
X133725965Y-77799464D01*
X133873446Y-77898009D01*
X133873459Y-77898016D01*
X133996363Y-77948923D01*
X134037334Y-77965894D01*
X134037336Y-77965894D01*
X134037341Y-77965896D01*
X134211304Y-78000499D01*
X134211307Y-78000500D01*
X134211309Y-78000500D01*
X134388693Y-78000500D01*
X134388694Y-78000499D01*
X134446682Y-77988964D01*
X134562658Y-77965896D01*
X134562661Y-77965894D01*
X134562666Y-77965894D01*
X134726547Y-77898013D01*
X134874035Y-77799464D01*
X134999464Y-77674035D01*
X135098013Y-77526547D01*
X135165894Y-77362666D01*
X135200500Y-77188691D01*
X135200500Y-77011309D01*
X135200500Y-77011306D01*
X135200499Y-77011304D01*
X135165896Y-76837341D01*
X135165893Y-76837332D01*
X135098016Y-76673459D01*
X135098009Y-76673446D01*
X134999464Y-76525965D01*
X134999461Y-76525961D01*
X134874038Y-76400538D01*
X134874034Y-76400535D01*
X134726553Y-76301990D01*
X134726540Y-76301983D01*
X134562667Y-76234106D01*
X134562658Y-76234103D01*
X134427413Y-76207202D01*
X134365502Y-76174817D01*
X134363923Y-76173266D01*
X133946546Y-75755888D01*
X133946545Y-75755887D01*
X133831807Y-75679222D01*
X133704332Y-75626421D01*
X133704322Y-75626418D01*
X133568996Y-75599500D01*
X133568994Y-75599500D01*
X133568993Y-75599500D01*
X132610100Y-75599500D01*
X132543061Y-75579815D01*
X132541209Y-75578602D01*
X132426549Y-75501988D01*
X132426547Y-75501987D01*
X132262667Y-75434106D01*
X132262658Y-75434103D01*
X132088694Y-75399500D01*
X132088691Y-75399500D01*
X131911309Y-75399500D01*
X131911306Y-75399500D01*
X131737341Y-75434103D01*
X131737332Y-75434106D01*
X131573459Y-75501983D01*
X131573446Y-75501990D01*
X131425965Y-75600535D01*
X131425961Y-75600538D01*
X131387181Y-75639319D01*
X131325858Y-75672804D01*
X131256166Y-75667820D01*
X131200233Y-75625948D01*
X131175816Y-75560484D01*
X131175500Y-75551638D01*
X131175500Y-73605412D01*
X131175972Y-73594605D01*
X131181759Y-73528457D01*
X131189359Y-73441587D01*
X131193112Y-73420303D01*
X131201190Y-73390157D01*
X131231464Y-73277169D01*
X131238849Y-73256880D01*
X131301481Y-73122564D01*
X131312274Y-73103871D01*
X131378319Y-73009551D01*
X131397271Y-72982485D01*
X131411158Y-72965934D01*
X131515934Y-72861158D01*
X131532485Y-72847271D01*
X131595960Y-72802825D01*
X131653871Y-72762274D01*
X131672564Y-72751481D01*
X131806880Y-72688849D01*
X131827169Y-72681464D01*
X131970306Y-72643111D01*
X131991587Y-72639359D01*
X132144605Y-72625971D01*
X132155412Y-72625500D01*
X134789718Y-72625500D01*
X134789720Y-72625500D01*
X134966433Y-72594340D01*
X135135050Y-72532969D01*
X135290449Y-72443249D01*
X135427908Y-72327908D01*
X135543249Y-72190449D01*
X135632969Y-72035050D01*
X135694340Y-71866433D01*
X135725500Y-71689720D01*
X135725500Y-71600000D01*
X135725500Y-71591715D01*
X135725500Y-68138995D01*
X138449499Y-68138995D01*
X138476418Y-68274322D01*
X138476421Y-68274332D01*
X138529221Y-68401804D01*
X138529228Y-68401817D01*
X138605885Y-68516541D01*
X138605888Y-68516545D01*
X138703454Y-68614111D01*
X138703458Y-68614114D01*
X138818182Y-68690771D01*
X138818195Y-68690778D01*
X138898411Y-68724004D01*
X138945672Y-68743580D01*
X138945676Y-68743580D01*
X138945677Y-68743581D01*
X139081004Y-68770500D01*
X139081007Y-68770500D01*
X139218995Y-68770500D01*
X139324566Y-68749500D01*
X139354328Y-68743580D01*
X139481811Y-68690775D01*
X139596542Y-68614114D01*
X139694114Y-68516542D01*
X139770775Y-68401811D01*
X139823580Y-68274328D01*
X139850500Y-68138995D01*
X141449499Y-68138995D01*
X141476418Y-68274322D01*
X141476421Y-68274332D01*
X141529221Y-68401804D01*
X141529228Y-68401817D01*
X141605885Y-68516541D01*
X141605888Y-68516545D01*
X141703454Y-68614111D01*
X141703458Y-68614114D01*
X141818182Y-68690771D01*
X141818195Y-68690778D01*
X141898411Y-68724004D01*
X141945672Y-68743580D01*
X141945676Y-68743580D01*
X141945677Y-68743581D01*
X142081004Y-68770500D01*
X142081007Y-68770500D01*
X142218995Y-68770500D01*
X142324566Y-68749500D01*
X142354328Y-68743580D01*
X142481811Y-68690775D01*
X142596542Y-68614114D01*
X142694114Y-68516542D01*
X142770775Y-68401811D01*
X142823580Y-68274328D01*
X142850500Y-68138993D01*
X142850500Y-68001007D01*
X142850500Y-68001004D01*
X142823581Y-67865677D01*
X142823580Y-67865676D01*
X142823580Y-67865672D01*
X142823578Y-67865667D01*
X142770778Y-67738195D01*
X142770771Y-67738182D01*
X142694114Y-67623458D01*
X142694111Y-67623454D01*
X142596545Y-67525888D01*
X142596541Y-67525885D01*
X142481817Y-67449228D01*
X142481804Y-67449221D01*
X142354332Y-67396421D01*
X142354322Y-67396418D01*
X142218995Y-67369500D01*
X142218993Y-67369500D01*
X142081007Y-67369500D01*
X142081005Y-67369500D01*
X141945677Y-67396418D01*
X141945667Y-67396421D01*
X141818195Y-67449221D01*
X141818182Y-67449228D01*
X141703458Y-67525885D01*
X141703454Y-67525888D01*
X141605888Y-67623454D01*
X141605885Y-67623458D01*
X141529228Y-67738182D01*
X141529221Y-67738195D01*
X141476421Y-67865667D01*
X141476418Y-67865677D01*
X141449500Y-68001004D01*
X141449500Y-68001007D01*
X141449500Y-68138993D01*
X141449500Y-68138995D01*
X141449499Y-68138995D01*
X139850500Y-68138995D01*
X139850500Y-68138993D01*
X139850500Y-68001007D01*
X139850500Y-68001004D01*
X139823581Y-67865677D01*
X139823580Y-67865676D01*
X139823580Y-67865672D01*
X139823578Y-67865667D01*
X139770778Y-67738195D01*
X139770771Y-67738182D01*
X139694114Y-67623458D01*
X139694111Y-67623454D01*
X139596545Y-67525888D01*
X139596541Y-67525885D01*
X139481817Y-67449228D01*
X139481804Y-67449221D01*
X139354332Y-67396421D01*
X139354322Y-67396418D01*
X139218995Y-67369500D01*
X139218993Y-67369500D01*
X139081007Y-67369500D01*
X139081005Y-67369500D01*
X138945677Y-67396418D01*
X138945667Y-67396421D01*
X138818195Y-67449221D01*
X138818182Y-67449228D01*
X138703458Y-67525885D01*
X138703454Y-67525888D01*
X138605888Y-67623454D01*
X138605885Y-67623458D01*
X138529228Y-67738182D01*
X138529221Y-67738195D01*
X138476421Y-67865667D01*
X138476418Y-67865677D01*
X138449500Y-68001004D01*
X138449500Y-68001007D01*
X138449500Y-68138993D01*
X138449500Y-68138995D01*
X138449499Y-68138995D01*
X135725500Y-68138995D01*
X135725500Y-67008125D01*
X135726561Y-66991940D01*
X135739537Y-66893376D01*
X135739537Y-66893375D01*
X135747915Y-66862109D01*
X135763145Y-66825340D01*
X135782825Y-66777828D01*
X135799003Y-66749805D01*
X135854541Y-66677427D01*
X135877428Y-66654541D01*
X135949805Y-66599003D01*
X135977828Y-66582825D01*
X136062109Y-66547915D01*
X136093375Y-66539537D01*
X136191941Y-66526561D01*
X136208126Y-66525500D01*
X136208285Y-66525500D01*
X145091715Y-66525500D01*
X145091874Y-66525500D01*
X145108059Y-66526561D01*
G37*
G04 #@! TD.AperFunction*
M02*
