M48
; DRILL file {KiCad 9.0.6} date 2025-11-17T18:09:36+0530
; FORMAT={-:-/ absolute / metric / decimal}
; #@! TF.CreationDate,2025-11-17T18:09:36+05:30
; #@! TF.GenerationSoftware,Kicad,Pcbnew,9.0.6
; #@! TF.FileFunction,Plated,1,2,PTH
FMAT,2
METRIC
; #@! TA.AperFunction,Plated,PTH,ViaDrill
T1C0.400
; #@! TA.AperFunction,Plated,PTH,ComponentDrill
T2C0.700
; #@! TA.AperFunction,Plated,PTH,ComponentDrill
T3C1.000
; #@! TA.AperFunction,Plated,PTH,ComponentDrill
T4C1.100
%
G90
G05
T1
X152.2Y-80.1
X152.2Y-86.2
X157.7Y-86.2
X158.2Y-106.8
T2
X160.19Y-69.2
X167.81Y-69.2
T3
X147.24Y-73.7
X147.24Y-96.56
X148.48Y-69.0
X149.78Y-73.7
X149.78Y-96.56
X151.02Y-69.0
X152.32Y-73.7
X152.32Y-96.56
X153.56Y-69.0
X154.86Y-73.7
X154.86Y-96.56
X156.1Y-69.0
X157.4Y-73.7
X157.4Y-96.56
X159.94Y-73.7
X159.94Y-96.56
X162.48Y-73.7
X162.48Y-96.56
X165.02Y-73.7
X165.02Y-96.56
T4
X132.74Y-112.01
X132.74Y-116.51
X139.24Y-112.01
X139.24Y-116.51
X140.65Y-104.45
X140.65Y-108.95
X140.65Y-119.55
X140.65Y-124.05
X147.15Y-104.45
X147.15Y-108.95
X147.15Y-119.55
X147.15Y-124.05
X148.54Y-112.01
X148.54Y-116.51
X155.04Y-112.01
X155.04Y-116.51
X159.45Y-115.95
X159.45Y-122.45
X163.95Y-115.95
X163.95Y-122.45
X166.95Y-107.95
X166.95Y-114.45
X171.45Y-107.95
X171.45Y-114.45
M30
