G04 #@! TF.GenerationSoftware,KiCad,Pcbnew,9.0.6*
G04 #@! TF.CreationDate,2025-11-17T18:11:24+05:30*
G04 #@! TF.ProjectId,BloodHound_VENOM,426c6f6f-6448-46f7-956e-645f56454e4f,1*
G04 #@! TF.SameCoordinates,Original*
G04 #@! TF.FileFunction,Soldermask,Bot*
G04 #@! TF.FilePolarity,Negative*
%FSLAX46Y46*%
G04 Gerber Fmt 4.6, Leading zero omitted, Abs format (unit mm)*
G04 Created by KiCad (PCBNEW 9.0.6) date 2025-11-17 18:11:24*
%MOMM*%
%LPD*%
G01*
G04 APERTURE LIST*
G04 Aperture macros list*
%AMRoundRect*
0 Rectangle with rounded corners*
0 $1 Rounding radius*
0 $2 $3 $4 $5 $6 $7 $8 $9 X,Y pos of 4 corners*
0 Add a 4 corners polygon primitive as box body*
4,1,4,$2,$3,$4,$5,$6,$7,$8,$9,$2,$3,0*
0 Add four circle primitives for the rounded corners*
1,1,$1+$1,$2,$3*
1,1,$1+$1,$4,$5*
1,1,$1+$1,$6,$7*
1,1,$1+$1,$8,$9*
0 Add four rect primitives between the rounded corners*
20,1,$1+$1,$2,$3,$4,$5,0*
20,1,$1+$1,$4,$5,$6,$7,0*
20,1,$1+$1,$6,$7,$8,$9,0*
20,1,$1+$1,$8,$9,$2,$3,0*%
G04 Aperture macros list end*
%ADD10C,1.800000*%
%ADD11R,1.700000X1.700000*%
%ADD12O,1.700000X1.700000*%
%ADD13C,2.200000*%
%ADD14R,2.000000X2.000000*%
%ADD15O,1.600000X2.000000*%
%ADD16C,1.400000*%
%ADD17O,1.400000X1.400000*%
%ADD18RoundRect,0.250000X0.400000X0.625000X-0.400000X0.625000X-0.400000X-0.625000X0.400000X-0.625000X0*%
G04 APERTURE END LIST*
D10*
X139240000Y-112010000D03*
X132740000Y-112010000D03*
X139240000Y-116510000D03*
X132740000Y-116510000D03*
X159450000Y-115950000D03*
X159450000Y-122450000D03*
X163950000Y-115950000D03*
X163950000Y-122450000D03*
X166950000Y-107950000D03*
X166950000Y-114450000D03*
X171450000Y-107950000D03*
X171450000Y-114450000D03*
X147150000Y-119550000D03*
X140650000Y-119550000D03*
X147150000Y-124050000D03*
X140650000Y-124050000D03*
X147150000Y-104450000D03*
X140650000Y-104450000D03*
X147150000Y-108950000D03*
X140650000Y-108950000D03*
X155040000Y-112010000D03*
X148540000Y-112010000D03*
X155040000Y-116510000D03*
X148540000Y-116510000D03*
D11*
X148480000Y-69000000D03*
D12*
X151020000Y-69000000D03*
X153560000Y-69000000D03*
X156100000Y-69000000D03*
D13*
X132000000Y-123850000D03*
X172300000Y-123850000D03*
X172300000Y-68900000D03*
X132000000Y-68900000D03*
D14*
X147240000Y-73700000D03*
D15*
X149780000Y-73700000D03*
X152320000Y-73700000D03*
X154860000Y-73700000D03*
X157400000Y-73700000D03*
X159940000Y-73700000D03*
X162480000Y-73700000D03*
X165020000Y-73700000D03*
X165020000Y-96560000D03*
X162480000Y-96560000D03*
X159940000Y-96560000D03*
X157400000Y-96560000D03*
X154860000Y-96560000D03*
X152320000Y-96560000D03*
X149780000Y-96560000D03*
X147240000Y-96560000D03*
D16*
X167810000Y-69200000D03*
D17*
X160190000Y-69200000D03*
D18*
X165500000Y-69200000D03*
X162400000Y-69200000D03*
M02*
