G04 #@! TF.GenerationSoftware,KiCad,Pcbnew,9.0.6*
G04 #@! TF.CreationDate,2025-11-17T18:11:24+05:30*
G04 #@! TF.ProjectId,BloodHound_VENOM,426c6f6f-6448-46f7-956e-645f56454e4f,1*
G04 #@! TF.SameCoordinates,Original*
G04 #@! TF.FileFunction,OtherDrawing,Comment*
%FSLAX46Y46*%
G04 Gerber Fmt 4.6, Leading zero omitted, Abs format (unit mm)*
G04 Created by KiCad (PCBNEW 9.0.6) date 2025-11-17 18:11:24*
%MOMM*%
%LPD*%
G01*
G04 APERTURE LIST*
%ADD10C,0.150000*%
%ADD11C,0.100000*%
G04 APERTURE END LIST*
D10*
X176704819Y-100495237D02*
X176704819Y-100971427D01*
X176704819Y-100971427D02*
X177181009Y-101019046D01*
X177181009Y-101019046D02*
X177133390Y-100971427D01*
X177133390Y-100971427D02*
X177085771Y-100876189D01*
X177085771Y-100876189D02*
X177085771Y-100638094D01*
X177085771Y-100638094D02*
X177133390Y-100542856D01*
X177133390Y-100542856D02*
X177181009Y-100495237D01*
X177181009Y-100495237D02*
X177276247Y-100447618D01*
X177276247Y-100447618D02*
X177514342Y-100447618D01*
X177514342Y-100447618D02*
X177609580Y-100495237D01*
X177609580Y-100495237D02*
X177657200Y-100542856D01*
X177657200Y-100542856D02*
X177704819Y-100638094D01*
X177704819Y-100638094D02*
X177704819Y-100876189D01*
X177704819Y-100876189D02*
X177657200Y-100971427D01*
X177657200Y-100971427D02*
X177609580Y-101019046D01*
X177704819Y-99971427D02*
X177704819Y-99780951D01*
X177704819Y-99780951D02*
X177657200Y-99685713D01*
X177657200Y-99685713D02*
X177609580Y-99638094D01*
X177609580Y-99638094D02*
X177466723Y-99542856D01*
X177466723Y-99542856D02*
X177276247Y-99495237D01*
X177276247Y-99495237D02*
X176895295Y-99495237D01*
X176895295Y-99495237D02*
X176800057Y-99542856D01*
X176800057Y-99542856D02*
X176752438Y-99590475D01*
X176752438Y-99590475D02*
X176704819Y-99685713D01*
X176704819Y-99685713D02*
X176704819Y-99876189D01*
X176704819Y-99876189D02*
X176752438Y-99971427D01*
X176752438Y-99971427D02*
X176800057Y-100019046D01*
X176800057Y-100019046D02*
X176895295Y-100066665D01*
X176895295Y-100066665D02*
X177133390Y-100066665D01*
X177133390Y-100066665D02*
X177228628Y-100019046D01*
X177228628Y-100019046D02*
X177276247Y-99971427D01*
X177276247Y-99971427D02*
X177323866Y-99876189D01*
X177323866Y-99876189D02*
X177323866Y-99685713D01*
X177323866Y-99685713D02*
X177276247Y-99590475D01*
X177276247Y-99590475D02*
X177228628Y-99542856D01*
X177228628Y-99542856D02*
X177133390Y-99495237D01*
X177609580Y-99066665D02*
X177657200Y-99019046D01*
X177657200Y-99019046D02*
X177704819Y-99066665D01*
X177704819Y-99066665D02*
X177657200Y-99114284D01*
X177657200Y-99114284D02*
X177609580Y-99066665D01*
X177609580Y-99066665D02*
X177704819Y-99066665D01*
X177133390Y-98447618D02*
X177085771Y-98542856D01*
X177085771Y-98542856D02*
X177038152Y-98590475D01*
X177038152Y-98590475D02*
X176942914Y-98638094D01*
X176942914Y-98638094D02*
X176895295Y-98638094D01*
X176895295Y-98638094D02*
X176800057Y-98590475D01*
X176800057Y-98590475D02*
X176752438Y-98542856D01*
X176752438Y-98542856D02*
X176704819Y-98447618D01*
X176704819Y-98447618D02*
X176704819Y-98257142D01*
X176704819Y-98257142D02*
X176752438Y-98161904D01*
X176752438Y-98161904D02*
X176800057Y-98114285D01*
X176800057Y-98114285D02*
X176895295Y-98066666D01*
X176895295Y-98066666D02*
X176942914Y-98066666D01*
X176942914Y-98066666D02*
X177038152Y-98114285D01*
X177038152Y-98114285D02*
X177085771Y-98161904D01*
X177085771Y-98161904D02*
X177133390Y-98257142D01*
X177133390Y-98257142D02*
X177133390Y-98447618D01*
X177133390Y-98447618D02*
X177181009Y-98542856D01*
X177181009Y-98542856D02*
X177228628Y-98590475D01*
X177228628Y-98590475D02*
X177323866Y-98638094D01*
X177323866Y-98638094D02*
X177514342Y-98638094D01*
X177514342Y-98638094D02*
X177609580Y-98590475D01*
X177609580Y-98590475D02*
X177657200Y-98542856D01*
X177657200Y-98542856D02*
X177704819Y-98447618D01*
X177704819Y-98447618D02*
X177704819Y-98257142D01*
X177704819Y-98257142D02*
X177657200Y-98161904D01*
X177657200Y-98161904D02*
X177609580Y-98114285D01*
X177609580Y-98114285D02*
X177514342Y-98066666D01*
X177514342Y-98066666D02*
X177323866Y-98066666D01*
X177323866Y-98066666D02*
X177228628Y-98114285D01*
X177228628Y-98114285D02*
X177181009Y-98161904D01*
X177181009Y-98161904D02*
X177133390Y-98257142D01*
X176704819Y-97447618D02*
X176704819Y-97352380D01*
X176704819Y-97352380D02*
X176752438Y-97257142D01*
X176752438Y-97257142D02*
X176800057Y-97209523D01*
X176800057Y-97209523D02*
X176895295Y-97161904D01*
X176895295Y-97161904D02*
X177085771Y-97114285D01*
X177085771Y-97114285D02*
X177323866Y-97114285D01*
X177323866Y-97114285D02*
X177514342Y-97161904D01*
X177514342Y-97161904D02*
X177609580Y-97209523D01*
X177609580Y-97209523D02*
X177657200Y-97257142D01*
X177657200Y-97257142D02*
X177704819Y-97352380D01*
X177704819Y-97352380D02*
X177704819Y-97447618D01*
X177704819Y-97447618D02*
X177657200Y-97542856D01*
X177657200Y-97542856D02*
X177609580Y-97590475D01*
X177609580Y-97590475D02*
X177514342Y-97638094D01*
X177514342Y-97638094D02*
X177323866Y-97685713D01*
X177323866Y-97685713D02*
X177085771Y-97685713D01*
X177085771Y-97685713D02*
X176895295Y-97638094D01*
X176895295Y-97638094D02*
X176800057Y-97590475D01*
X176800057Y-97590475D02*
X176752438Y-97542856D01*
X176752438Y-97542856D02*
X176704819Y-97447618D01*
X176704819Y-96495237D02*
X176704819Y-96399999D01*
X176704819Y-96399999D02*
X176752438Y-96304761D01*
X176752438Y-96304761D02*
X176800057Y-96257142D01*
X176800057Y-96257142D02*
X176895295Y-96209523D01*
X176895295Y-96209523D02*
X177085771Y-96161904D01*
X177085771Y-96161904D02*
X177323866Y-96161904D01*
X177323866Y-96161904D02*
X177514342Y-96209523D01*
X177514342Y-96209523D02*
X177609580Y-96257142D01*
X177609580Y-96257142D02*
X177657200Y-96304761D01*
X177657200Y-96304761D02*
X177704819Y-96399999D01*
X177704819Y-96399999D02*
X177704819Y-96495237D01*
X177704819Y-96495237D02*
X177657200Y-96590475D01*
X177657200Y-96590475D02*
X177609580Y-96638094D01*
X177609580Y-96638094D02*
X177514342Y-96685713D01*
X177514342Y-96685713D02*
X177323866Y-96733332D01*
X177323866Y-96733332D02*
X177085771Y-96733332D01*
X177085771Y-96733332D02*
X176895295Y-96685713D01*
X176895295Y-96685713D02*
X176800057Y-96638094D01*
X176800057Y-96638094D02*
X176752438Y-96590475D01*
X176752438Y-96590475D02*
X176704819Y-96495237D01*
X176704819Y-95542856D02*
X176704819Y-95447618D01*
X176704819Y-95447618D02*
X176752438Y-95352380D01*
X176752438Y-95352380D02*
X176800057Y-95304761D01*
X176800057Y-95304761D02*
X176895295Y-95257142D01*
X176895295Y-95257142D02*
X177085771Y-95209523D01*
X177085771Y-95209523D02*
X177323866Y-95209523D01*
X177323866Y-95209523D02*
X177514342Y-95257142D01*
X177514342Y-95257142D02*
X177609580Y-95304761D01*
X177609580Y-95304761D02*
X177657200Y-95352380D01*
X177657200Y-95352380D02*
X177704819Y-95447618D01*
X177704819Y-95447618D02*
X177704819Y-95542856D01*
X177704819Y-95542856D02*
X177657200Y-95638094D01*
X177657200Y-95638094D02*
X177609580Y-95685713D01*
X177609580Y-95685713D02*
X177514342Y-95733332D01*
X177514342Y-95733332D02*
X177323866Y-95780951D01*
X177323866Y-95780951D02*
X177085771Y-95780951D01*
X177085771Y-95780951D02*
X176895295Y-95733332D01*
X176895295Y-95733332D02*
X176800057Y-95685713D01*
X176800057Y-95685713D02*
X176752438Y-95638094D01*
X176752438Y-95638094D02*
X176704819Y-95542856D01*
X177704819Y-94019046D02*
X177038152Y-94019046D01*
X177133390Y-94019046D02*
X177085771Y-93971427D01*
X177085771Y-93971427D02*
X177038152Y-93876189D01*
X177038152Y-93876189D02*
X177038152Y-93733332D01*
X177038152Y-93733332D02*
X177085771Y-93638094D01*
X177085771Y-93638094D02*
X177181009Y-93590475D01*
X177181009Y-93590475D02*
X177704819Y-93590475D01*
X177181009Y-93590475D02*
X177085771Y-93542856D01*
X177085771Y-93542856D02*
X177038152Y-93447618D01*
X177038152Y-93447618D02*
X177038152Y-93304761D01*
X177038152Y-93304761D02*
X177085771Y-93209522D01*
X177085771Y-93209522D02*
X177181009Y-93161903D01*
X177181009Y-93161903D02*
X177704819Y-93161903D01*
X177704819Y-92685713D02*
X177038152Y-92685713D01*
X177133390Y-92685713D02*
X177085771Y-92638094D01*
X177085771Y-92638094D02*
X177038152Y-92542856D01*
X177038152Y-92542856D02*
X177038152Y-92399999D01*
X177038152Y-92399999D02*
X177085771Y-92304761D01*
X177085771Y-92304761D02*
X177181009Y-92257142D01*
X177181009Y-92257142D02*
X177704819Y-92257142D01*
X177181009Y-92257142D02*
X177085771Y-92209523D01*
X177085771Y-92209523D02*
X177038152Y-92114285D01*
X177038152Y-92114285D02*
X177038152Y-91971428D01*
X177038152Y-91971428D02*
X177085771Y-91876189D01*
X177085771Y-91876189D02*
X177181009Y-91828570D01*
X177181009Y-91828570D02*
X177704819Y-91828570D01*
D11*
X175200000Y-66500000D02*
X178986420Y-66500000D01*
X175200000Y-126300000D02*
X178986420Y-126300000D01*
X178400000Y-66500000D02*
X178400000Y-126300000D01*
X178400000Y-66500000D02*
X178986421Y-67626504D01*
X178400000Y-66500000D02*
X177813579Y-67626504D01*
X178400000Y-126300000D02*
X177813579Y-125173496D01*
X178400000Y-126300000D02*
X178986421Y-125173496D01*
D10*
X148007143Y-59338152D02*
X148007143Y-60004819D01*
X147769048Y-58957200D02*
X147530953Y-59671485D01*
X147530953Y-59671485D02*
X148150000Y-59671485D01*
X149007143Y-59004819D02*
X148530953Y-59004819D01*
X148530953Y-59004819D02*
X148483334Y-59481009D01*
X148483334Y-59481009D02*
X148530953Y-59433390D01*
X148530953Y-59433390D02*
X148626191Y-59385771D01*
X148626191Y-59385771D02*
X148864286Y-59385771D01*
X148864286Y-59385771D02*
X148959524Y-59433390D01*
X148959524Y-59433390D02*
X149007143Y-59481009D01*
X149007143Y-59481009D02*
X149054762Y-59576247D01*
X149054762Y-59576247D02*
X149054762Y-59814342D01*
X149054762Y-59814342D02*
X149007143Y-59909580D01*
X149007143Y-59909580D02*
X148959524Y-59957200D01*
X148959524Y-59957200D02*
X148864286Y-60004819D01*
X148864286Y-60004819D02*
X148626191Y-60004819D01*
X148626191Y-60004819D02*
X148530953Y-59957200D01*
X148530953Y-59957200D02*
X148483334Y-59909580D01*
X149483334Y-59909580D02*
X149530953Y-59957200D01*
X149530953Y-59957200D02*
X149483334Y-60004819D01*
X149483334Y-60004819D02*
X149435715Y-59957200D01*
X149435715Y-59957200D02*
X149483334Y-59909580D01*
X149483334Y-59909580D02*
X149483334Y-60004819D01*
X150483333Y-60004819D02*
X149911905Y-60004819D01*
X150197619Y-60004819D02*
X150197619Y-59004819D01*
X150197619Y-59004819D02*
X150102381Y-59147676D01*
X150102381Y-59147676D02*
X150007143Y-59242914D01*
X150007143Y-59242914D02*
X149911905Y-59290533D01*
X151102381Y-59004819D02*
X151197619Y-59004819D01*
X151197619Y-59004819D02*
X151292857Y-59052438D01*
X151292857Y-59052438D02*
X151340476Y-59100057D01*
X151340476Y-59100057D02*
X151388095Y-59195295D01*
X151388095Y-59195295D02*
X151435714Y-59385771D01*
X151435714Y-59385771D02*
X151435714Y-59623866D01*
X151435714Y-59623866D02*
X151388095Y-59814342D01*
X151388095Y-59814342D02*
X151340476Y-59909580D01*
X151340476Y-59909580D02*
X151292857Y-59957200D01*
X151292857Y-59957200D02*
X151197619Y-60004819D01*
X151197619Y-60004819D02*
X151102381Y-60004819D01*
X151102381Y-60004819D02*
X151007143Y-59957200D01*
X151007143Y-59957200D02*
X150959524Y-59909580D01*
X150959524Y-59909580D02*
X150911905Y-59814342D01*
X150911905Y-59814342D02*
X150864286Y-59623866D01*
X150864286Y-59623866D02*
X150864286Y-59385771D01*
X150864286Y-59385771D02*
X150911905Y-59195295D01*
X150911905Y-59195295D02*
X150959524Y-59100057D01*
X150959524Y-59100057D02*
X151007143Y-59052438D01*
X151007143Y-59052438D02*
X151102381Y-59004819D01*
X152054762Y-59004819D02*
X152150000Y-59004819D01*
X152150000Y-59004819D02*
X152245238Y-59052438D01*
X152245238Y-59052438D02*
X152292857Y-59100057D01*
X152292857Y-59100057D02*
X152340476Y-59195295D01*
X152340476Y-59195295D02*
X152388095Y-59385771D01*
X152388095Y-59385771D02*
X152388095Y-59623866D01*
X152388095Y-59623866D02*
X152340476Y-59814342D01*
X152340476Y-59814342D02*
X152292857Y-59909580D01*
X152292857Y-59909580D02*
X152245238Y-59957200D01*
X152245238Y-59957200D02*
X152150000Y-60004819D01*
X152150000Y-60004819D02*
X152054762Y-60004819D01*
X152054762Y-60004819D02*
X151959524Y-59957200D01*
X151959524Y-59957200D02*
X151911905Y-59909580D01*
X151911905Y-59909580D02*
X151864286Y-59814342D01*
X151864286Y-59814342D02*
X151816667Y-59623866D01*
X151816667Y-59623866D02*
X151816667Y-59385771D01*
X151816667Y-59385771D02*
X151864286Y-59195295D01*
X151864286Y-59195295D02*
X151911905Y-59100057D01*
X151911905Y-59100057D02*
X151959524Y-59052438D01*
X151959524Y-59052438D02*
X152054762Y-59004819D01*
X153007143Y-59004819D02*
X153102381Y-59004819D01*
X153102381Y-59004819D02*
X153197619Y-59052438D01*
X153197619Y-59052438D02*
X153245238Y-59100057D01*
X153245238Y-59100057D02*
X153292857Y-59195295D01*
X153292857Y-59195295D02*
X153340476Y-59385771D01*
X153340476Y-59385771D02*
X153340476Y-59623866D01*
X153340476Y-59623866D02*
X153292857Y-59814342D01*
X153292857Y-59814342D02*
X153245238Y-59909580D01*
X153245238Y-59909580D02*
X153197619Y-59957200D01*
X153197619Y-59957200D02*
X153102381Y-60004819D01*
X153102381Y-60004819D02*
X153007143Y-60004819D01*
X153007143Y-60004819D02*
X152911905Y-59957200D01*
X152911905Y-59957200D02*
X152864286Y-59909580D01*
X152864286Y-59909580D02*
X152816667Y-59814342D01*
X152816667Y-59814342D02*
X152769048Y-59623866D01*
X152769048Y-59623866D02*
X152769048Y-59385771D01*
X152769048Y-59385771D02*
X152816667Y-59195295D01*
X152816667Y-59195295D02*
X152864286Y-59100057D01*
X152864286Y-59100057D02*
X152911905Y-59052438D01*
X152911905Y-59052438D02*
X153007143Y-59004819D01*
X154530953Y-60004819D02*
X154530953Y-59338152D01*
X154530953Y-59433390D02*
X154578572Y-59385771D01*
X154578572Y-59385771D02*
X154673810Y-59338152D01*
X154673810Y-59338152D02*
X154816667Y-59338152D01*
X154816667Y-59338152D02*
X154911905Y-59385771D01*
X154911905Y-59385771D02*
X154959524Y-59481009D01*
X154959524Y-59481009D02*
X154959524Y-60004819D01*
X154959524Y-59481009D02*
X155007143Y-59385771D01*
X155007143Y-59385771D02*
X155102381Y-59338152D01*
X155102381Y-59338152D02*
X155245238Y-59338152D01*
X155245238Y-59338152D02*
X155340477Y-59385771D01*
X155340477Y-59385771D02*
X155388096Y-59481009D01*
X155388096Y-59481009D02*
X155388096Y-60004819D01*
X155864286Y-60004819D02*
X155864286Y-59338152D01*
X155864286Y-59433390D02*
X155911905Y-59385771D01*
X155911905Y-59385771D02*
X156007143Y-59338152D01*
X156007143Y-59338152D02*
X156150000Y-59338152D01*
X156150000Y-59338152D02*
X156245238Y-59385771D01*
X156245238Y-59385771D02*
X156292857Y-59481009D01*
X156292857Y-59481009D02*
X156292857Y-60004819D01*
X156292857Y-59481009D02*
X156340476Y-59385771D01*
X156340476Y-59385771D02*
X156435714Y-59338152D01*
X156435714Y-59338152D02*
X156578571Y-59338152D01*
X156578571Y-59338152D02*
X156673810Y-59385771D01*
X156673810Y-59385771D02*
X156721429Y-59481009D01*
X156721429Y-59481009D02*
X156721429Y-60004819D01*
D11*
X174700000Y-66000000D02*
X174700000Y-60113580D01*
X129600000Y-66000000D02*
X129600000Y-60113580D01*
X174700000Y-60700000D02*
X129600000Y-60700000D01*
X174700000Y-60700000D02*
X173573496Y-61286421D01*
X174700000Y-60700000D02*
X173573496Y-60113579D01*
X129600000Y-60700000D02*
X130726504Y-60113579D01*
X129600000Y-60700000D02*
X130726504Y-61286421D01*
X139040000Y-72350000D02*
X145840000Y-72350000D01*
X139040000Y-97950000D02*
X139040000Y-72350000D01*
X139840000Y-72350000D02*
X139040000Y-73150000D01*
X141790000Y-72400000D02*
X139040000Y-75150000D01*
X143840000Y-72350000D02*
X139040000Y-77150000D01*
X145840000Y-72350000D02*
X139040000Y-79150000D01*
X145840000Y-72350000D02*
X145840000Y-97950000D01*
X145840000Y-74350000D02*
X139040000Y-81150000D01*
X145840000Y-76350000D02*
X139040000Y-83150000D01*
X145840000Y-78350000D02*
X139040000Y-85150000D01*
X145840000Y-80350000D02*
X139040000Y-87150000D01*
X145840000Y-82350000D02*
X139040000Y-89150000D01*
X145840000Y-84350000D02*
X139040000Y-91150000D01*
X145840000Y-86350000D02*
X139040000Y-93150000D01*
X145840000Y-88350000D02*
X139040000Y-95150000D01*
X145840000Y-90350000D02*
X139040000Y-97150000D01*
X145840000Y-92350000D02*
X140240000Y-97950000D01*
X145840000Y-94350000D02*
X142240000Y-97950000D01*
X145840000Y-96350000D02*
X144240000Y-97950000D01*
X145840000Y-97950000D02*
X139040000Y-97950000D01*
M02*
