G04 #@! TF.GenerationSoftware,KiCad,Pcbnew,9.0.6*
G04 #@! TF.CreationDate,2025-11-17T18:11:24+05:30*
G04 #@! TF.ProjectId,BloodHound_VENOM,426c6f6f-6448-46f7-956e-645f56454e4f,1*
G04 #@! TF.SameCoordinates,Original*
G04 #@! TF.FileFunction,Copper,L1,Top*
G04 #@! TF.FilePolarity,Positive*
%FSLAX46Y46*%
G04 Gerber Fmt 4.6, Leading zero omitted, Abs format (unit mm)*
G04 Created by KiCad (PCBNEW 9.0.6) date 2025-11-17 18:11:24*
%MOMM*%
%LPD*%
G01*
G04 APERTURE LIST*
G04 Aperture macros list*
%AMRoundRect*
0 Rectangle with rounded corners*
0 $1 Rounding radius*
0 $2 $3 $4 $5 $6 $7 $8 $9 X,Y pos of 4 corners*
0 Add a 4 corners polygon primitive as box body*
4,1,4,$2,$3,$4,$5,$6,$7,$8,$9,$2,$3,0*
0 Add four circle primitives for the rounded corners*
1,1,$1+$1,$2,$3*
1,1,$1+$1,$4,$5*
1,1,$1+$1,$6,$7*
1,1,$1+$1,$8,$9*
0 Add four rect primitives between the rounded corners*
20,1,$1+$1,$2,$3,$4,$5,0*
20,1,$1+$1,$4,$5,$6,$7,0*
20,1,$1+$1,$6,$7,$8,$9,0*
20,1,$1+$1,$8,$9,$2,$3,0*%
%AMFreePoly0*
4,1,6,1.000000,0.000000,0.500000,-0.750000,-0.500000,-0.750000,-0.500000,0.750000,0.500000,0.750000,1.000000,0.000000,1.000000,0.000000,$1*%
%AMFreePoly1*
4,1,6,0.500000,-0.750000,-0.650000,-0.750000,-0.150000,0.000000,-0.650000,0.750000,0.500000,0.750000,0.500000,-0.750000,0.500000,-0.750000,$1*%
G04 Aperture macros list end*
G04 #@! TA.AperFunction,EtchedComponent*
%ADD10C,0.300000*%
G04 #@! TD*
G04 #@! TA.AperFunction,ComponentPad*
%ADD11C,1.800000*%
G04 #@! TD*
G04 #@! TA.AperFunction,SMDPad,CuDef*
%ADD12R,2.250000X1.000000*%
G04 #@! TD*
G04 #@! TA.AperFunction,ComponentPad*
%ADD13R,1.700000X1.700000*%
G04 #@! TD*
G04 #@! TA.AperFunction,ComponentPad*
%ADD14O,1.700000X1.700000*%
G04 #@! TD*
G04 #@! TA.AperFunction,SMDPad,CuDef*
%ADD15FreePoly0,180.000000*%
G04 #@! TD*
G04 #@! TA.AperFunction,SMDPad,CuDef*
%ADD16FreePoly1,180.000000*%
G04 #@! TD*
G04 #@! TA.AperFunction,SMDPad,CuDef*
%ADD17RoundRect,0.381000X0.381000X0.381000X-0.381000X0.381000X-0.381000X-0.381000X0.381000X-0.381000X0*%
G04 #@! TD*
G04 #@! TA.AperFunction,ComponentPad*
%ADD18R,2.000000X2.000000*%
G04 #@! TD*
G04 #@! TA.AperFunction,ComponentPad*
%ADD19O,1.600000X2.000000*%
G04 #@! TD*
G04 #@! TA.AperFunction,ComponentPad*
%ADD20C,1.400000*%
G04 #@! TD*
G04 #@! TA.AperFunction,ComponentPad*
%ADD21O,1.400000X1.400000*%
G04 #@! TD*
G04 #@! TA.AperFunction,ViaPad*
%ADD22C,0.800000*%
G04 #@! TD*
G04 #@! TA.AperFunction,Conductor*
%ADD23C,0.400000*%
G04 #@! TD*
G04 APERTURE END LIST*
D10*
X153600000Y-83500000D02*
X153600000Y-82624000D01*
X151000000Y-83500000D02*
X151000000Y-82624000D01*
D11*
X139240000Y-112010000D03*
X132740000Y-112010000D03*
X139240000Y-116510000D03*
X132740000Y-116510000D03*
X159450000Y-115950000D03*
X159450000Y-122450000D03*
X163950000Y-115950000D03*
X163950000Y-122450000D03*
X166950000Y-107950000D03*
X166950000Y-114450000D03*
X171450000Y-107950000D03*
X171450000Y-114450000D03*
X147150000Y-119550000D03*
X140650000Y-119550000D03*
X147150000Y-124050000D03*
X140650000Y-124050000D03*
X147150000Y-104450000D03*
X140650000Y-104450000D03*
X147150000Y-108950000D03*
X140650000Y-108950000D03*
X155040000Y-112010000D03*
X148540000Y-112010000D03*
X155040000Y-116510000D03*
X148540000Y-116510000D03*
D12*
X154875000Y-103750000D03*
X154875000Y-107050000D03*
X160625000Y-107050000D03*
X160625000Y-103750000D03*
D13*
X148480000Y-69000000D03*
D14*
X151020000Y-69000000D03*
X153560000Y-69000000D03*
X156100000Y-69000000D03*
D15*
X153025000Y-81850000D03*
D16*
X151575000Y-81850000D03*
D17*
X153600000Y-84262000D03*
X153600000Y-81862000D03*
X151000000Y-84262000D03*
X151000000Y-81862000D03*
D15*
X153100000Y-84250000D03*
D16*
X151650000Y-84250000D03*
D18*
X147240000Y-73700000D03*
D19*
X149780000Y-73700000D03*
X152320000Y-73700000D03*
X154860000Y-73700000D03*
X157400000Y-73700000D03*
X159940000Y-73700000D03*
X162480000Y-73700000D03*
X165020000Y-73700000D03*
X165020000Y-96560000D03*
X162480000Y-96560000D03*
X159940000Y-96560000D03*
X157400000Y-96560000D03*
X154860000Y-96560000D03*
X152320000Y-96560000D03*
X149780000Y-96560000D03*
X147240000Y-96560000D03*
D20*
X167810000Y-69200000D03*
D21*
X160190000Y-69200000D03*
D22*
X152200000Y-80100000D03*
X157700000Y-86200000D03*
X152200000Y-86200000D03*
X158199500Y-106800000D03*
D23*
X162500000Y-94000000D02*
X161280000Y-95220000D01*
X162500000Y-73720000D02*
X162500000Y-94000000D01*
X161280000Y-102720000D02*
X160250000Y-103750000D01*
X162480000Y-73700000D02*
X162500000Y-73720000D01*
X161280000Y-95220000D02*
X161280000Y-102720000D01*
X158199500Y-106800000D02*
X158449500Y-107050000D01*
X171450000Y-107950000D02*
X171450000Y-114450000D01*
X157700000Y-86200000D02*
X152200000Y-86200000D01*
X163950000Y-122450000D02*
X163950000Y-117492900D01*
X163950000Y-117492900D02*
X163950000Y-115950000D01*
X147150000Y-108950000D02*
X140650000Y-108950000D01*
X158449500Y-107050000D02*
X160250000Y-107050000D01*
X153600000Y-82012000D02*
X153600000Y-81500000D01*
X155040000Y-116510000D02*
X148540000Y-116510000D01*
X153600000Y-81500000D02*
X152200000Y-80100000D01*
X139240000Y-116510000D02*
X132740000Y-116510000D01*
X147150000Y-124050000D02*
X140650000Y-124050000D01*
X151110200Y-97610200D02*
X151110200Y-84222200D01*
X155250000Y-103750000D02*
X155250000Y-101750000D01*
X156300000Y-104800000D02*
X155250000Y-103750000D01*
X163820000Y-74900000D02*
X163820000Y-97880000D01*
X155250000Y-101750000D02*
X151110200Y-97610200D01*
X162400000Y-104200000D02*
X161800000Y-104800000D01*
X162400000Y-99300000D02*
X162400000Y-104200000D01*
X161800000Y-104800000D02*
X156300000Y-104800000D01*
X165020000Y-73700000D02*
X163820000Y-74900000D01*
X163820000Y-97880000D02*
X162400000Y-99300000D01*
X158600000Y-80087400D02*
X156130000Y-77617400D01*
X156130000Y-72950100D02*
X153430000Y-70250100D01*
X152320000Y-96560000D02*
X158600000Y-90280000D01*
X158600000Y-90280000D02*
X158600000Y-80087400D01*
X153430000Y-70250100D02*
X153430000Y-69000000D01*
X156130000Y-77617400D02*
X156130000Y-72950100D01*
X158670000Y-79070000D02*
X158670000Y-72950100D01*
X154860000Y-96560000D02*
X154860000Y-95140000D01*
X159306600Y-79706600D02*
X158670000Y-79070000D01*
X159306600Y-90693400D02*
X159306600Y-79706600D01*
X155970000Y-70250100D02*
X155970000Y-69000000D01*
X154860000Y-95140000D02*
X159306600Y-90693400D01*
X158670000Y-72950100D02*
X155970000Y-70250100D01*
X132740000Y-112010000D02*
X139240000Y-112010000D01*
X148540000Y-112010000D02*
X155040000Y-112010000D01*
X140650000Y-104450000D02*
X147150000Y-104450000D01*
X140650000Y-119550000D02*
X147150000Y-119550000D01*
X166950000Y-114450000D02*
X166950000Y-107950000D01*
X159450000Y-122450000D02*
X159450000Y-115950000D01*
X148350000Y-70250100D02*
X148350000Y-69000000D01*
X151033100Y-81978900D02*
X151033100Y-72933200D01*
X151033100Y-72933200D02*
X148350000Y-70250100D01*
X154900000Y-82977817D02*
X154900000Y-81000000D01*
X153600000Y-84112000D02*
X153765817Y-84112000D01*
X153600000Y-71580000D02*
X151020000Y-69000000D01*
X153600000Y-79700000D02*
X153600000Y-71580000D01*
X153765817Y-84112000D02*
X154900000Y-82977817D01*
X154900000Y-81000000D02*
X153600000Y-79700000D01*
M02*
