G04 #@! TF.GenerationSoftware,KiCad,Pcbnew,9.0.6*
G04 #@! TF.CreationDate,2025-11-17T18:11:24+05:30*
G04 #@! TF.ProjectId,BloodHound_VENOM,426c6f6f-6448-46f7-956e-645f56454e4f,1*
G04 #@! TF.SameCoordinates,Original*
G04 #@! TF.FileFunction,Copper,L2,Bot*
G04 #@! TF.FilePolarity,Positive*
%FSLAX46Y46*%
G04 Gerber Fmt 4.6, Leading zero omitted, Abs format (unit mm)*
G04 Created by KiCad (PCBNEW 9.0.6) date 2025-11-17 18:11:24*
%MOMM*%
%LPD*%
G01*
G04 APERTURE LIST*
G04 Aperture macros list*
%AMRoundRect*
0 Rectangle with rounded corners*
0 $1 Rounding radius*
0 $2 $3 $4 $5 $6 $7 $8 $9 X,Y pos of 4 corners*
0 Add a 4 corners polygon primitive as box body*
4,1,4,$2,$3,$4,$5,$6,$7,$8,$9,$2,$3,0*
0 Add four circle primitives for the rounded corners*
1,1,$1+$1,$2,$3*
1,1,$1+$1,$4,$5*
1,1,$1+$1,$6,$7*
1,1,$1+$1,$8,$9*
0 Add four rect primitives between the rounded corners*
20,1,$1+$1,$2,$3,$4,$5,0*
20,1,$1+$1,$4,$5,$6,$7,0*
20,1,$1+$1,$6,$7,$8,$9,0*
20,1,$1+$1,$8,$9,$2,$3,0*%
G04 Aperture macros list end*
G04 #@! TA.AperFunction,ComponentPad*
%ADD10C,1.800000*%
G04 #@! TD*
G04 #@! TA.AperFunction,ComponentPad*
%ADD11R,1.700000X1.700000*%
G04 #@! TD*
G04 #@! TA.AperFunction,ComponentPad*
%ADD12O,1.700000X1.700000*%
G04 #@! TD*
G04 #@! TA.AperFunction,ComponentPad*
%ADD13R,2.000000X2.000000*%
G04 #@! TD*
G04 #@! TA.AperFunction,ComponentPad*
%ADD14O,1.600000X2.000000*%
G04 #@! TD*
G04 #@! TA.AperFunction,ComponentPad*
%ADD15C,1.400000*%
G04 #@! TD*
G04 #@! TA.AperFunction,ComponentPad*
%ADD16O,1.400000X1.400000*%
G04 #@! TD*
G04 #@! TA.AperFunction,SMDPad,CuDef*
%ADD17RoundRect,0.250000X0.400000X0.625000X-0.400000X0.625000X-0.400000X-0.625000X0.400000X-0.625000X0*%
G04 #@! TD*
G04 #@! TA.AperFunction,ViaPad*
%ADD18C,0.800000*%
G04 #@! TD*
G04 #@! TA.AperFunction,Conductor*
%ADD19C,0.400000*%
G04 #@! TD*
G04 APERTURE END LIST*
D10*
X139240000Y-112010000D03*
X132740000Y-112010000D03*
X139240000Y-116510000D03*
X132740000Y-116510000D03*
X159450000Y-115950000D03*
X159450000Y-122450000D03*
X163950000Y-115950000D03*
X163950000Y-122450000D03*
X166950000Y-107950000D03*
X166950000Y-114450000D03*
X171450000Y-107950000D03*
X171450000Y-114450000D03*
X147150000Y-119550000D03*
X140650000Y-119550000D03*
X147150000Y-124050000D03*
X140650000Y-124050000D03*
X147150000Y-104450000D03*
X140650000Y-104450000D03*
X147150000Y-108950000D03*
X140650000Y-108950000D03*
X155040000Y-112010000D03*
X148540000Y-112010000D03*
X155040000Y-116510000D03*
X148540000Y-116510000D03*
D11*
X148480000Y-69000000D03*
D12*
X151020000Y-69000000D03*
X153560000Y-69000000D03*
X156100000Y-69000000D03*
D13*
X147240000Y-73700000D03*
D14*
X149780000Y-73700000D03*
X152320000Y-73700000D03*
X154860000Y-73700000D03*
X157400000Y-73700000D03*
X159940000Y-73700000D03*
X162480000Y-73700000D03*
X165020000Y-73700000D03*
X165020000Y-96560000D03*
X162480000Y-96560000D03*
X159940000Y-96560000D03*
X157400000Y-96560000D03*
X154860000Y-96560000D03*
X152320000Y-96560000D03*
X149780000Y-96560000D03*
X147240000Y-96560000D03*
D15*
X167810000Y-69200000D03*
D16*
X160190000Y-69200000D03*
D17*
X165500000Y-69200000D03*
X162400000Y-69200000D03*
D18*
X152200000Y-80100000D03*
X157700000Y-86200000D03*
X152200000Y-86200000D03*
X158199500Y-106800000D03*
D19*
X162480000Y-98980000D02*
X171450000Y-107950000D01*
X139240000Y-116510000D02*
X148540000Y-116510000D01*
X147500000Y-124050000D02*
X147150000Y-124050000D01*
X140150000Y-108950000D02*
X132740000Y-116360000D01*
X155940000Y-117410000D02*
X162490000Y-117410000D01*
X157700000Y-86200000D02*
X162480000Y-90980000D01*
X163950000Y-115950000D02*
X169950000Y-115950000D01*
X162480000Y-96560000D02*
X162480000Y-98980000D01*
X147150000Y-108950000D02*
X147150000Y-115120000D01*
X133110000Y-116510000D02*
X132740000Y-116510000D01*
X158199500Y-110199500D02*
X163950000Y-115950000D01*
X162490000Y-117410000D02*
X163950000Y-115950000D01*
X152200000Y-86200000D02*
X152200000Y-80100000D01*
X140650000Y-108950000D02*
X140150000Y-108950000D01*
X147150000Y-115120000D02*
X148540000Y-116510000D01*
X132740000Y-116360000D02*
X132740000Y-116510000D01*
X155040000Y-116510000D02*
X147500000Y-124050000D01*
X169950000Y-115950000D02*
X171450000Y-114450000D01*
X155040000Y-116510000D02*
X155940000Y-117410000D01*
X140650000Y-124050000D02*
X133110000Y-116510000D01*
X162480000Y-90980000D02*
X162480000Y-96560000D01*
X158199500Y-106800000D02*
X158199500Y-110199500D01*
X165500000Y-69200000D02*
X167810000Y-69200000D01*
X165020000Y-73680000D02*
X167810000Y-70890000D01*
X165020000Y-73700000D02*
X165020000Y-73680000D01*
X167810000Y-70890000D02*
X167810000Y-69200000D01*
X148500000Y-97800000D02*
X148500000Y-77520000D01*
X140513000Y-112010000D02*
X145850000Y-106673000D01*
X160190000Y-69200000D02*
X157390000Y-72000000D01*
X148500000Y-77520000D02*
X152320000Y-73700000D01*
X145850000Y-100450000D02*
X148500000Y-97800000D01*
X157390000Y-72000000D02*
X154020000Y-72000000D01*
X160190000Y-69200000D02*
X162400000Y-69200000D01*
X139240000Y-112010000D02*
X140513000Y-112010000D01*
X154020000Y-72000000D02*
X152320000Y-73700000D01*
X145850000Y-106673000D02*
X145850000Y-100450000D01*
X156200000Y-77440000D02*
X159940000Y-73700000D01*
X155040000Y-112010000D02*
X156200000Y-110850000D01*
X156200000Y-110850000D02*
X156200000Y-77440000D01*
X154860000Y-73700000D02*
X150980000Y-77580000D01*
X150980000Y-77580000D02*
X150980000Y-100620000D01*
X150980000Y-100620000D02*
X147150000Y-104450000D01*
X147150000Y-119550000D02*
X148423000Y-119550000D01*
X153520000Y-77580000D02*
X157400000Y-73700000D01*
X153520000Y-114453000D02*
X153520000Y-77580000D01*
X148423000Y-119550000D02*
X153520000Y-114453000D01*
X166950000Y-107950000D02*
X159940000Y-100940000D01*
X159940000Y-100940000D02*
X159940000Y-96560000D01*
X157400000Y-113900000D02*
X157400000Y-96560000D01*
X159450000Y-115950000D02*
X157400000Y-113900000D01*
M02*
