G04 #@! TF.GenerationSoftware,KiCad,Pcbnew,9.0.6*
G04 #@! TF.CreationDate,2025-11-17T18:11:24+05:30*
G04 #@! TF.ProjectId,BloodHound_VENOM,426c6f6f-6448-46f7-956e-645f56454e4f,1*
G04 #@! TF.SameCoordinates,Original*
G04 #@! TF.FileFunction,Other,User*
%FSLAX46Y46*%
G04 Gerber Fmt 4.6, Leading zero omitted, Abs format (unit mm)*
G04 Created by KiCad (PCBNEW 9.0.6) date 2025-11-17 18:11:24*
%MOMM*%
%LPD*%
G01*
G04 APERTURE LIST*
%ADD10C,0.050000*%
G04 APERTURE END LIST*
D10*
X146680000Y-67250000D02*
X157880000Y-67250000D01*
X146680000Y-70800000D02*
X146680000Y-67250000D01*
X157880000Y-67250000D02*
X157880000Y-70800000D01*
X157880000Y-70800000D02*
X146680000Y-70800000D01*
X150900000Y-80850000D02*
X150900000Y-82850000D01*
X150900000Y-80850000D02*
X153700000Y-80850000D01*
X153700000Y-82850000D02*
X150900000Y-82850000D01*
X153700000Y-82850000D02*
X153700000Y-80850000D01*
X134450000Y-123850000D02*
G75*
G02*
X129550000Y-123850000I-2450000J0D01*
G01*
X129550000Y-123850000D02*
G75*
G02*
X134450000Y-123850000I2450000J0D01*
G01*
X174750000Y-123850000D02*
G75*
G02*
X169850000Y-123850000I-2450000J0D01*
G01*
X169850000Y-123850000D02*
G75*
G02*
X174750000Y-123850000I2450000J0D01*
G01*
X152600000Y-81012000D02*
X152600000Y-85112000D01*
X152600000Y-85112000D02*
X154600000Y-85112000D01*
X154600000Y-81012000D02*
X152600000Y-81012000D01*
X154600000Y-85112000D02*
X154600000Y-81012000D01*
X150000000Y-81012000D02*
X150000000Y-85112000D01*
X150000000Y-85112000D02*
X152000000Y-85112000D01*
X152000000Y-81012000D02*
X150000000Y-81012000D01*
X152000000Y-85112000D02*
X152000000Y-81012000D01*
X174750000Y-68900000D02*
G75*
G02*
X169850000Y-68900000I-2450000J0D01*
G01*
X169850000Y-68900000D02*
G75*
G02*
X174750000Y-68900000I2450000J0D01*
G01*
X150975000Y-83250000D02*
X150975000Y-85250000D01*
X150975000Y-83250000D02*
X153775000Y-83250000D01*
X153775000Y-85250000D02*
X150975000Y-85250000D01*
X153775000Y-85250000D02*
X153775000Y-83250000D01*
X134450000Y-68900000D02*
G75*
G02*
X129550000Y-68900000I-2450000J0D01*
G01*
X129550000Y-68900000D02*
G75*
G02*
X134450000Y-68900000I2450000J0D01*
G01*
M02*
