G04 #@! TF.GenerationSoftware,KiCad,Pcbnew,9.0.6*
G04 #@! TF.CreationDate,2025-11-17T18:11:24+05:30*
G04 #@! TF.ProjectId,BloodHound_VENOM,426c6f6f-6448-46f7-956e-645f56454e4f,1*
G04 #@! TF.SameCoordinates,Original*
G04 #@! TF.FileFunction,Legend,Bot*
G04 #@! TF.FilePolarity,Positive*
%FSLAX46Y46*%
G04 Gerber Fmt 4.6, Leading zero omitted, Abs format (unit mm)*
G04 Created by KiCad (PCBNEW 9.0.6) date 2025-11-17 18:11:24*
%MOMM*%
%LPD*%
G01*
G04 APERTURE LIST*
G04 Aperture macros list*
%AMRoundRect*
0 Rectangle with rounded corners*
0 $1 Rounding radius*
0 $2 $3 $4 $5 $6 $7 $8 $9 X,Y pos of 4 corners*
0 Add a 4 corners polygon primitive as box body*
4,1,4,$2,$3,$4,$5,$6,$7,$8,$9,$2,$3,0*
0 Add four circle primitives for the rounded corners*
1,1,$1+$1,$2,$3*
1,1,$1+$1,$4,$5*
1,1,$1+$1,$6,$7*
1,1,$1+$1,$8,$9*
0 Add four rect primitives between the rounded corners*
20,1,$1+$1,$2,$3,$4,$5,0*
20,1,$1+$1,$4,$5,$6,$7,0*
20,1,$1+$1,$6,$7,$8,$9,0*
20,1,$1+$1,$8,$9,$2,$3,0*%
G04 Aperture macros list end*
%ADD10C,0.120000*%
%ADD11C,0.150000*%
%ADD12C,0.250000*%
%ADD13C,0.300000*%
%ADD14C,0.160000*%
%ADD15C,1.800000*%
%ADD16R,1.700000X1.700000*%
%ADD17O,1.700000X1.700000*%
%ADD18C,2.200000*%
%ADD19R,2.000000X2.000000*%
%ADD20O,1.600000X2.000000*%
%ADD21C,1.400000*%
%ADD22O,1.400000X1.400000*%
%ADD23RoundRect,0.250000X0.400000X0.625000X-0.400000X0.625000X-0.400000X-0.625000X0.400000X-0.625000X0*%
G04 APERTURE END LIST*
D10*
X162480000Y-72000000D02*
X161730000Y-71250000D01*
X163230000Y-71250000D01*
X162480000Y-72000000D01*
G36*
X162480000Y-72000000D02*
G01*
X161730000Y-71250000D01*
X163230000Y-71250000D01*
X162480000Y-72000000D01*
G37*
X165020000Y-72000000D02*
X164270000Y-71250000D01*
X165770000Y-71250000D01*
X165020000Y-72000000D01*
G36*
X165020000Y-72000000D02*
G01*
X164270000Y-71250000D01*
X165770000Y-71250000D01*
X165020000Y-72000000D01*
G37*
X154860000Y-72000000D02*
X154110000Y-71750000D01*
X155610000Y-71750000D01*
X154860000Y-72000000D01*
G36*
X154860000Y-72000000D02*
G01*
X154110000Y-71750000D01*
X155610000Y-71750000D01*
X154860000Y-72000000D01*
G37*
X163230000Y-99000000D02*
X161730000Y-99000000D01*
X162480000Y-98250000D01*
X163230000Y-99000000D01*
G36*
X163230000Y-99000000D02*
G01*
X161730000Y-99000000D01*
X162480000Y-98250000D01*
X163230000Y-99000000D01*
G37*
X153070000Y-99000000D02*
X151570000Y-99000000D01*
X152320000Y-98250000D01*
X153070000Y-99000000D01*
G36*
X153070000Y-99000000D02*
G01*
X151570000Y-99000000D01*
X152320000Y-98250000D01*
X153070000Y-99000000D01*
G37*
X157400000Y-72000000D02*
X156650000Y-71750000D01*
X158150000Y-71750000D01*
X157400000Y-72000000D01*
G36*
X157400000Y-72000000D02*
G01*
X156650000Y-71750000D01*
X158150000Y-71750000D01*
X157400000Y-72000000D01*
G37*
X160690000Y-99000000D02*
X159190000Y-99000000D01*
X159940000Y-98250000D01*
X160690000Y-99000000D01*
G36*
X160690000Y-99000000D02*
G01*
X159190000Y-99000000D01*
X159940000Y-98250000D01*
X160690000Y-99000000D01*
G37*
X159940000Y-72000000D02*
X159190000Y-71250000D01*
X160690000Y-71250000D01*
X159940000Y-72000000D01*
G36*
X159940000Y-72000000D02*
G01*
X159190000Y-71250000D01*
X160690000Y-71250000D01*
X159940000Y-72000000D01*
G37*
X158150000Y-99000000D02*
X156650000Y-99000000D01*
X157400000Y-98250000D01*
X158150000Y-99000000D01*
G36*
X158150000Y-99000000D02*
G01*
X156650000Y-99000000D01*
X157400000Y-98250000D01*
X158150000Y-99000000D01*
G37*
X155610000Y-99000000D02*
X154110000Y-99000000D01*
X154860000Y-98250000D01*
X155610000Y-99000000D01*
G36*
X155610000Y-99000000D02*
G01*
X154110000Y-99000000D01*
X154860000Y-98250000D01*
X155610000Y-99000000D01*
G37*
X152320000Y-72000000D02*
X151570000Y-71750000D01*
X153070000Y-71750000D01*
X152320000Y-72000000D01*
G36*
X152320000Y-72000000D02*
G01*
X151570000Y-71750000D01*
X153070000Y-71750000D01*
X152320000Y-72000000D01*
G37*
D11*
X137265601Y-75459607D02*
X137094173Y-75459607D01*
X137094173Y-75459607D02*
X137008458Y-75502464D01*
X137008458Y-75502464D02*
X136922744Y-75588178D01*
X136922744Y-75588178D02*
X136879887Y-75759607D01*
X136879887Y-75759607D02*
X136879887Y-76059607D01*
X136879887Y-76059607D02*
X136922744Y-76231035D01*
X136922744Y-76231035D02*
X137008458Y-76316750D01*
X137008458Y-76316750D02*
X137094173Y-76359607D01*
X137094173Y-76359607D02*
X137265601Y-76359607D01*
X137265601Y-76359607D02*
X137351316Y-76316750D01*
X137351316Y-76316750D02*
X137437030Y-76231035D01*
X137437030Y-76231035D02*
X137479887Y-76059607D01*
X137479887Y-76059607D02*
X137479887Y-75759607D01*
X137479887Y-75759607D02*
X137437030Y-75588178D01*
X137437030Y-75588178D02*
X137351316Y-75502464D01*
X137351316Y-75502464D02*
X137265601Y-75459607D01*
X136065601Y-76359607D02*
X136494173Y-76359607D01*
X136494173Y-76359607D02*
X136494173Y-75459607D01*
X135765602Y-75888178D02*
X135465602Y-75888178D01*
X135337030Y-76359607D02*
X135765602Y-76359607D01*
X135765602Y-76359607D02*
X135765602Y-75459607D01*
X135765602Y-75459607D02*
X135337030Y-75459607D01*
X134951316Y-76359607D02*
X134951316Y-75459607D01*
X134951316Y-75459607D02*
X134737030Y-75459607D01*
X134737030Y-75459607D02*
X134608459Y-75502464D01*
X134608459Y-75502464D02*
X134522744Y-75588178D01*
X134522744Y-75588178D02*
X134479887Y-75673892D01*
X134479887Y-75673892D02*
X134437030Y-75845321D01*
X134437030Y-75845321D02*
X134437030Y-75973892D01*
X134437030Y-75973892D02*
X134479887Y-76145321D01*
X134479887Y-76145321D02*
X134522744Y-76231035D01*
X134522744Y-76231035D02*
X134608459Y-76316750D01*
X134608459Y-76316750D02*
X134737030Y-76359607D01*
X134737030Y-76359607D02*
X134951316Y-76359607D01*
X134051316Y-76273892D02*
X134008459Y-76316750D01*
X134008459Y-76316750D02*
X134051316Y-76359607D01*
X134051316Y-76359607D02*
X134094173Y-76316750D01*
X134094173Y-76316750D02*
X134051316Y-76273892D01*
X134051316Y-76273892D02*
X134051316Y-76359607D01*
X134051316Y-75802464D02*
X134008459Y-75845321D01*
X134008459Y-75845321D02*
X134051316Y-75888178D01*
X134051316Y-75888178D02*
X134094173Y-75845321D01*
X134094173Y-75845321D02*
X134051316Y-75802464D01*
X134051316Y-75802464D02*
X134051316Y-75888178D01*
X137437030Y-77808557D02*
X137437030Y-76908557D01*
X137437030Y-76908557D02*
X137222744Y-76908557D01*
X137222744Y-76908557D02*
X137094173Y-76951414D01*
X137094173Y-76951414D02*
X137008458Y-77037128D01*
X137008458Y-77037128D02*
X136965601Y-77122842D01*
X136965601Y-77122842D02*
X136922744Y-77294271D01*
X136922744Y-77294271D02*
X136922744Y-77422842D01*
X136922744Y-77422842D02*
X136965601Y-77594271D01*
X136965601Y-77594271D02*
X137008458Y-77679985D01*
X137008458Y-77679985D02*
X137094173Y-77765700D01*
X137094173Y-77765700D02*
X137222744Y-77808557D01*
X137222744Y-77808557D02*
X137437030Y-77808557D01*
X136065601Y-77808557D02*
X136579887Y-77808557D01*
X136322744Y-77808557D02*
X136322744Y-76908557D01*
X136322744Y-76908557D02*
X136408458Y-77037128D01*
X136408458Y-77037128D02*
X136494173Y-77122842D01*
X136494173Y-77122842D02*
X136579887Y-77165700D01*
X135037030Y-77765700D02*
X134908459Y-77808557D01*
X134908459Y-77808557D02*
X134694173Y-77808557D01*
X134694173Y-77808557D02*
X134608459Y-77765700D01*
X134608459Y-77765700D02*
X134565601Y-77722842D01*
X134565601Y-77722842D02*
X134522744Y-77637128D01*
X134522744Y-77637128D02*
X134522744Y-77551414D01*
X134522744Y-77551414D02*
X134565601Y-77465700D01*
X134565601Y-77465700D02*
X134608459Y-77422842D01*
X134608459Y-77422842D02*
X134694173Y-77379985D01*
X134694173Y-77379985D02*
X134865601Y-77337128D01*
X134865601Y-77337128D02*
X134951316Y-77294271D01*
X134951316Y-77294271D02*
X134994173Y-77251414D01*
X134994173Y-77251414D02*
X135037030Y-77165700D01*
X135037030Y-77165700D02*
X135037030Y-77079985D01*
X135037030Y-77079985D02*
X134994173Y-76994271D01*
X134994173Y-76994271D02*
X134951316Y-76951414D01*
X134951316Y-76951414D02*
X134865601Y-76908557D01*
X134865601Y-76908557D02*
X134651316Y-76908557D01*
X134651316Y-76908557D02*
X134522744Y-76951414D01*
X133622744Y-77722842D02*
X133665601Y-77765700D01*
X133665601Y-77765700D02*
X133794173Y-77808557D01*
X133794173Y-77808557D02*
X133879887Y-77808557D01*
X133879887Y-77808557D02*
X134008458Y-77765700D01*
X134008458Y-77765700D02*
X134094173Y-77679985D01*
X134094173Y-77679985D02*
X134137030Y-77594271D01*
X134137030Y-77594271D02*
X134179887Y-77422842D01*
X134179887Y-77422842D02*
X134179887Y-77294271D01*
X134179887Y-77294271D02*
X134137030Y-77122842D01*
X134137030Y-77122842D02*
X134094173Y-77037128D01*
X134094173Y-77037128D02*
X134008458Y-76951414D01*
X134008458Y-76951414D02*
X133879887Y-76908557D01*
X133879887Y-76908557D02*
X133794173Y-76908557D01*
X133794173Y-76908557D02*
X133665601Y-76951414D01*
X133665601Y-76951414D02*
X133622744Y-76994271D01*
X132808458Y-77808557D02*
X133237030Y-77808557D01*
X133237030Y-77808557D02*
X133237030Y-76908557D01*
X137437030Y-79257507D02*
X137437030Y-78357507D01*
X137437030Y-78357507D02*
X137222744Y-78357507D01*
X137222744Y-78357507D02*
X137094173Y-78400364D01*
X137094173Y-78400364D02*
X137008458Y-78486078D01*
X137008458Y-78486078D02*
X136965601Y-78571792D01*
X136965601Y-78571792D02*
X136922744Y-78743221D01*
X136922744Y-78743221D02*
X136922744Y-78871792D01*
X136922744Y-78871792D02*
X136965601Y-79043221D01*
X136965601Y-79043221D02*
X137008458Y-79128935D01*
X137008458Y-79128935D02*
X137094173Y-79214650D01*
X137094173Y-79214650D02*
X137222744Y-79257507D01*
X137222744Y-79257507D02*
X137437030Y-79257507D01*
X136579887Y-78443221D02*
X136537030Y-78400364D01*
X136537030Y-78400364D02*
X136451316Y-78357507D01*
X136451316Y-78357507D02*
X136237030Y-78357507D01*
X136237030Y-78357507D02*
X136151316Y-78400364D01*
X136151316Y-78400364D02*
X136108458Y-78443221D01*
X136108458Y-78443221D02*
X136065601Y-78528935D01*
X136065601Y-78528935D02*
X136065601Y-78614650D01*
X136065601Y-78614650D02*
X136108458Y-78743221D01*
X136108458Y-78743221D02*
X136622744Y-79257507D01*
X136622744Y-79257507D02*
X136065601Y-79257507D01*
X135037030Y-79214650D02*
X134908459Y-79257507D01*
X134908459Y-79257507D02*
X134694173Y-79257507D01*
X134694173Y-79257507D02*
X134608459Y-79214650D01*
X134608459Y-79214650D02*
X134565601Y-79171792D01*
X134565601Y-79171792D02*
X134522744Y-79086078D01*
X134522744Y-79086078D02*
X134522744Y-79000364D01*
X134522744Y-79000364D02*
X134565601Y-78914650D01*
X134565601Y-78914650D02*
X134608459Y-78871792D01*
X134608459Y-78871792D02*
X134694173Y-78828935D01*
X134694173Y-78828935D02*
X134865601Y-78786078D01*
X134865601Y-78786078D02*
X134951316Y-78743221D01*
X134951316Y-78743221D02*
X134994173Y-78700364D01*
X134994173Y-78700364D02*
X135037030Y-78614650D01*
X135037030Y-78614650D02*
X135037030Y-78528935D01*
X135037030Y-78528935D02*
X134994173Y-78443221D01*
X134994173Y-78443221D02*
X134951316Y-78400364D01*
X134951316Y-78400364D02*
X134865601Y-78357507D01*
X134865601Y-78357507D02*
X134651316Y-78357507D01*
X134651316Y-78357507D02*
X134522744Y-78400364D01*
X134137030Y-79257507D02*
X134137030Y-78357507D01*
X134137030Y-78357507D02*
X133922744Y-78357507D01*
X133922744Y-78357507D02*
X133794173Y-78400364D01*
X133794173Y-78400364D02*
X133708458Y-78486078D01*
X133708458Y-78486078D02*
X133665601Y-78571792D01*
X133665601Y-78571792D02*
X133622744Y-78743221D01*
X133622744Y-78743221D02*
X133622744Y-78871792D01*
X133622744Y-78871792D02*
X133665601Y-79043221D01*
X133665601Y-79043221D02*
X133708458Y-79128935D01*
X133708458Y-79128935D02*
X133794173Y-79214650D01*
X133794173Y-79214650D02*
X133922744Y-79257507D01*
X133922744Y-79257507D02*
X134137030Y-79257507D01*
X133279887Y-79000364D02*
X132851316Y-79000364D01*
X133365601Y-79257507D02*
X133065601Y-78357507D01*
X133065601Y-78357507D02*
X132765601Y-79257507D01*
D12*
X173164619Y-82073996D02*
X172688428Y-81740663D01*
X173164619Y-81502568D02*
X172164619Y-81502568D01*
X172164619Y-81502568D02*
X172164619Y-81883520D01*
X172164619Y-81883520D02*
X172212238Y-81978758D01*
X172212238Y-81978758D02*
X172259857Y-82026377D01*
X172259857Y-82026377D02*
X172355095Y-82073996D01*
X172355095Y-82073996D02*
X172497952Y-82073996D01*
X172497952Y-82073996D02*
X172593190Y-82026377D01*
X172593190Y-82026377D02*
X172640809Y-81978758D01*
X172640809Y-81978758D02*
X172688428Y-81883520D01*
X172688428Y-81883520D02*
X172688428Y-81502568D01*
X172497952Y-82931139D02*
X173164619Y-82931139D01*
X172497952Y-82502568D02*
X173021761Y-82502568D01*
X173021761Y-82502568D02*
X173117000Y-82550187D01*
X173117000Y-82550187D02*
X173164619Y-82645425D01*
X173164619Y-82645425D02*
X173164619Y-82788282D01*
X173164619Y-82788282D02*
X173117000Y-82883520D01*
X173117000Y-82883520D02*
X173069380Y-82931139D01*
X173164619Y-83835901D02*
X172164619Y-83835901D01*
X173117000Y-83835901D02*
X173164619Y-83740663D01*
X173164619Y-83740663D02*
X173164619Y-83550187D01*
X173164619Y-83550187D02*
X173117000Y-83454949D01*
X173117000Y-83454949D02*
X173069380Y-83407330D01*
X173069380Y-83407330D02*
X172974142Y-83359711D01*
X172974142Y-83359711D02*
X172688428Y-83359711D01*
X172688428Y-83359711D02*
X172593190Y-83407330D01*
X172593190Y-83407330D02*
X172545571Y-83454949D01*
X172545571Y-83454949D02*
X172497952Y-83550187D01*
X172497952Y-83550187D02*
X172497952Y-83740663D01*
X172497952Y-83740663D02*
X172545571Y-83835901D01*
X173164619Y-84312092D02*
X172497952Y-84312092D01*
X172164619Y-84312092D02*
X172212238Y-84264473D01*
X172212238Y-84264473D02*
X172259857Y-84312092D01*
X172259857Y-84312092D02*
X172212238Y-84359711D01*
X172212238Y-84359711D02*
X172164619Y-84312092D01*
X172164619Y-84312092D02*
X172259857Y-84312092D01*
X173164619Y-84788282D02*
X172497952Y-84788282D01*
X172164619Y-84788282D02*
X172212238Y-84740663D01*
X172212238Y-84740663D02*
X172259857Y-84788282D01*
X172259857Y-84788282D02*
X172212238Y-84835901D01*
X172212238Y-84835901D02*
X172164619Y-84788282D01*
X172164619Y-84788282D02*
X172259857Y-84788282D01*
D11*
X163629887Y-109396009D02*
X163487030Y-109443628D01*
X163487030Y-109443628D02*
X163439411Y-109491247D01*
X163439411Y-109491247D02*
X163391792Y-109586485D01*
X163391792Y-109586485D02*
X163391792Y-109729342D01*
X163391792Y-109729342D02*
X163439411Y-109824580D01*
X163439411Y-109824580D02*
X163487030Y-109872200D01*
X163487030Y-109872200D02*
X163582268Y-109919819D01*
X163582268Y-109919819D02*
X163963220Y-109919819D01*
X163963220Y-109919819D02*
X163963220Y-108919819D01*
X163963220Y-108919819D02*
X163629887Y-108919819D01*
X163629887Y-108919819D02*
X163534649Y-108967438D01*
X163534649Y-108967438D02*
X163487030Y-109015057D01*
X163487030Y-109015057D02*
X163439411Y-109110295D01*
X163439411Y-109110295D02*
X163439411Y-109205533D01*
X163439411Y-109205533D02*
X163487030Y-109300771D01*
X163487030Y-109300771D02*
X163534649Y-109348390D01*
X163534649Y-109348390D02*
X163629887Y-109396009D01*
X163629887Y-109396009D02*
X163963220Y-109396009D01*
X162820363Y-109919819D02*
X162915601Y-109872200D01*
X162915601Y-109872200D02*
X162963220Y-109776961D01*
X162963220Y-109776961D02*
X162963220Y-108919819D01*
X162296553Y-109919819D02*
X162391791Y-109872200D01*
X162391791Y-109872200D02*
X162439410Y-109824580D01*
X162439410Y-109824580D02*
X162487029Y-109729342D01*
X162487029Y-109729342D02*
X162487029Y-109443628D01*
X162487029Y-109443628D02*
X162439410Y-109348390D01*
X162439410Y-109348390D02*
X162391791Y-109300771D01*
X162391791Y-109300771D02*
X162296553Y-109253152D01*
X162296553Y-109253152D02*
X162153696Y-109253152D01*
X162153696Y-109253152D02*
X162058458Y-109300771D01*
X162058458Y-109300771D02*
X162010839Y-109348390D01*
X162010839Y-109348390D02*
X161963220Y-109443628D01*
X161963220Y-109443628D02*
X161963220Y-109729342D01*
X161963220Y-109729342D02*
X162010839Y-109824580D01*
X162010839Y-109824580D02*
X162058458Y-109872200D01*
X162058458Y-109872200D02*
X162153696Y-109919819D01*
X162153696Y-109919819D02*
X162296553Y-109919819D01*
X161391791Y-109919819D02*
X161487029Y-109872200D01*
X161487029Y-109872200D02*
X161534648Y-109824580D01*
X161534648Y-109824580D02*
X161582267Y-109729342D01*
X161582267Y-109729342D02*
X161582267Y-109443628D01*
X161582267Y-109443628D02*
X161534648Y-109348390D01*
X161534648Y-109348390D02*
X161487029Y-109300771D01*
X161487029Y-109300771D02*
X161391791Y-109253152D01*
X161391791Y-109253152D02*
X161248934Y-109253152D01*
X161248934Y-109253152D02*
X161153696Y-109300771D01*
X161153696Y-109300771D02*
X161106077Y-109348390D01*
X161106077Y-109348390D02*
X161058458Y-109443628D01*
X161058458Y-109443628D02*
X161058458Y-109729342D01*
X161058458Y-109729342D02*
X161106077Y-109824580D01*
X161106077Y-109824580D02*
X161153696Y-109872200D01*
X161153696Y-109872200D02*
X161248934Y-109919819D01*
X161248934Y-109919819D02*
X161391791Y-109919819D01*
X160201315Y-109919819D02*
X160201315Y-108919819D01*
X160201315Y-109872200D02*
X160296553Y-109919819D01*
X160296553Y-109919819D02*
X160487029Y-109919819D01*
X160487029Y-109919819D02*
X160582267Y-109872200D01*
X160582267Y-109872200D02*
X160629886Y-109824580D01*
X160629886Y-109824580D02*
X160677505Y-109729342D01*
X160677505Y-109729342D02*
X160677505Y-109443628D01*
X160677505Y-109443628D02*
X160629886Y-109348390D01*
X160629886Y-109348390D02*
X160582267Y-109300771D01*
X160582267Y-109300771D02*
X160487029Y-109253152D01*
X160487029Y-109253152D02*
X160296553Y-109253152D01*
X160296553Y-109253152D02*
X160201315Y-109300771D01*
X159725124Y-109919819D02*
X159725124Y-108919819D01*
X159725124Y-109396009D02*
X159153696Y-109396009D01*
X159153696Y-109919819D02*
X159153696Y-108919819D01*
X158534648Y-109919819D02*
X158629886Y-109872200D01*
X158629886Y-109872200D02*
X158677505Y-109824580D01*
X158677505Y-109824580D02*
X158725124Y-109729342D01*
X158725124Y-109729342D02*
X158725124Y-109443628D01*
X158725124Y-109443628D02*
X158677505Y-109348390D01*
X158677505Y-109348390D02*
X158629886Y-109300771D01*
X158629886Y-109300771D02*
X158534648Y-109253152D01*
X158534648Y-109253152D02*
X158391791Y-109253152D01*
X158391791Y-109253152D02*
X158296553Y-109300771D01*
X158296553Y-109300771D02*
X158248934Y-109348390D01*
X158248934Y-109348390D02*
X158201315Y-109443628D01*
X158201315Y-109443628D02*
X158201315Y-109729342D01*
X158201315Y-109729342D02*
X158248934Y-109824580D01*
X158248934Y-109824580D02*
X158296553Y-109872200D01*
X158296553Y-109872200D02*
X158391791Y-109919819D01*
X158391791Y-109919819D02*
X158534648Y-109919819D01*
X157344172Y-109253152D02*
X157344172Y-109919819D01*
X157772743Y-109253152D02*
X157772743Y-109776961D01*
X157772743Y-109776961D02*
X157725124Y-109872200D01*
X157725124Y-109872200D02*
X157629886Y-109919819D01*
X157629886Y-109919819D02*
X157487029Y-109919819D01*
X157487029Y-109919819D02*
X157391791Y-109872200D01*
X157391791Y-109872200D02*
X157344172Y-109824580D01*
X156867981Y-109253152D02*
X156867981Y-109919819D01*
X156867981Y-109348390D02*
X156820362Y-109300771D01*
X156820362Y-109300771D02*
X156725124Y-109253152D01*
X156725124Y-109253152D02*
X156582267Y-109253152D01*
X156582267Y-109253152D02*
X156487029Y-109300771D01*
X156487029Y-109300771D02*
X156439410Y-109396009D01*
X156439410Y-109396009D02*
X156439410Y-109919819D01*
X155534648Y-109919819D02*
X155534648Y-108919819D01*
X155534648Y-109872200D02*
X155629886Y-109919819D01*
X155629886Y-109919819D02*
X155820362Y-109919819D01*
X155820362Y-109919819D02*
X155915600Y-109872200D01*
X155915600Y-109872200D02*
X155963219Y-109824580D01*
X155963219Y-109824580D02*
X156010838Y-109729342D01*
X156010838Y-109729342D02*
X156010838Y-109443628D01*
X156010838Y-109443628D02*
X155963219Y-109348390D01*
X155963219Y-109348390D02*
X155915600Y-109300771D01*
X155915600Y-109300771D02*
X155820362Y-109253152D01*
X155820362Y-109253152D02*
X155629886Y-109253152D01*
X155629886Y-109253152D02*
X155534648Y-109300771D01*
X155296553Y-110015057D02*
X154534648Y-110015057D01*
X154439409Y-108919819D02*
X154106076Y-109919819D01*
X154106076Y-109919819D02*
X153772743Y-108919819D01*
X153439409Y-109396009D02*
X153106076Y-109396009D01*
X152963219Y-109919819D02*
X153439409Y-109919819D01*
X153439409Y-109919819D02*
X153439409Y-108919819D01*
X153439409Y-108919819D02*
X152963219Y-108919819D01*
X152534647Y-109919819D02*
X152534647Y-108919819D01*
X152534647Y-108919819D02*
X151963219Y-109919819D01*
X151963219Y-109919819D02*
X151963219Y-108919819D01*
X151296552Y-108919819D02*
X151106076Y-108919819D01*
X151106076Y-108919819D02*
X151010838Y-108967438D01*
X151010838Y-108967438D02*
X150915600Y-109062676D01*
X150915600Y-109062676D02*
X150867981Y-109253152D01*
X150867981Y-109253152D02*
X150867981Y-109586485D01*
X150867981Y-109586485D02*
X150915600Y-109776961D01*
X150915600Y-109776961D02*
X151010838Y-109872200D01*
X151010838Y-109872200D02*
X151106076Y-109919819D01*
X151106076Y-109919819D02*
X151296552Y-109919819D01*
X151296552Y-109919819D02*
X151391790Y-109872200D01*
X151391790Y-109872200D02*
X151487028Y-109776961D01*
X151487028Y-109776961D02*
X151534647Y-109586485D01*
X151534647Y-109586485D02*
X151534647Y-109253152D01*
X151534647Y-109253152D02*
X151487028Y-109062676D01*
X151487028Y-109062676D02*
X151391790Y-108967438D01*
X151391790Y-108967438D02*
X151296552Y-108919819D01*
X150439409Y-109919819D02*
X150439409Y-108919819D01*
X150439409Y-108919819D02*
X150106076Y-109634104D01*
X150106076Y-109634104D02*
X149772743Y-108919819D01*
X149772743Y-108919819D02*
X149772743Y-109919819D01*
X164639411Y-67694819D02*
X165210839Y-67694819D01*
X164925125Y-67694819D02*
X164925125Y-66694819D01*
X164925125Y-66694819D02*
X165020363Y-66837676D01*
X165020363Y-66837676D02*
X165115601Y-66932914D01*
X165115601Y-66932914D02*
X165210839Y-66980533D01*
X164020363Y-66694819D02*
X163925125Y-66694819D01*
X163925125Y-66694819D02*
X163829887Y-66742438D01*
X163829887Y-66742438D02*
X163782268Y-66790057D01*
X163782268Y-66790057D02*
X163734649Y-66885295D01*
X163734649Y-66885295D02*
X163687030Y-67075771D01*
X163687030Y-67075771D02*
X163687030Y-67313866D01*
X163687030Y-67313866D02*
X163734649Y-67504342D01*
X163734649Y-67504342D02*
X163782268Y-67599580D01*
X163782268Y-67599580D02*
X163829887Y-67647200D01*
X163829887Y-67647200D02*
X163925125Y-67694819D01*
X163925125Y-67694819D02*
X164020363Y-67694819D01*
X164020363Y-67694819D02*
X164115601Y-67647200D01*
X164115601Y-67647200D02*
X164163220Y-67599580D01*
X164163220Y-67599580D02*
X164210839Y-67504342D01*
X164210839Y-67504342D02*
X164258458Y-67313866D01*
X164258458Y-67313866D02*
X164258458Y-67075771D01*
X164258458Y-67075771D02*
X164210839Y-66885295D01*
X164210839Y-66885295D02*
X164163220Y-66790057D01*
X164163220Y-66790057D02*
X164115601Y-66742438D01*
X164115601Y-66742438D02*
X164020363Y-66694819D01*
X163258458Y-67694819D02*
X163258458Y-66694819D01*
X162687030Y-67694819D02*
X163115601Y-67123390D01*
X162687030Y-66694819D02*
X163258458Y-67266247D01*
X137437030Y-92684082D02*
X137437030Y-91784082D01*
X137437030Y-91784082D02*
X136922744Y-92684082D01*
X136922744Y-92684082D02*
X136922744Y-91784082D01*
X136494173Y-92212653D02*
X136194173Y-92212653D01*
X136065601Y-92684082D02*
X136494173Y-92684082D01*
X136494173Y-92684082D02*
X136494173Y-91784082D01*
X136494173Y-91784082D02*
X136065601Y-91784082D01*
X135508458Y-91784082D02*
X135337030Y-91784082D01*
X135337030Y-91784082D02*
X135251315Y-91826939D01*
X135251315Y-91826939D02*
X135165601Y-91912653D01*
X135165601Y-91912653D02*
X135122744Y-92084082D01*
X135122744Y-92084082D02*
X135122744Y-92384082D01*
X135122744Y-92384082D02*
X135165601Y-92555510D01*
X135165601Y-92555510D02*
X135251315Y-92641225D01*
X135251315Y-92641225D02*
X135337030Y-92684082D01*
X135337030Y-92684082D02*
X135508458Y-92684082D01*
X135508458Y-92684082D02*
X135594173Y-92641225D01*
X135594173Y-92641225D02*
X135679887Y-92555510D01*
X135679887Y-92555510D02*
X135722744Y-92384082D01*
X135722744Y-92384082D02*
X135722744Y-92084082D01*
X135722744Y-92084082D02*
X135679887Y-91912653D01*
X135679887Y-91912653D02*
X135594173Y-91826939D01*
X135594173Y-91826939D02*
X135508458Y-91784082D01*
X134737030Y-92684082D02*
X134737030Y-91784082D01*
X134737030Y-91784082D02*
X134394173Y-91784082D01*
X134394173Y-91784082D02*
X134308458Y-91826939D01*
X134308458Y-91826939D02*
X134265601Y-91869796D01*
X134265601Y-91869796D02*
X134222744Y-91955510D01*
X134222744Y-91955510D02*
X134222744Y-92084082D01*
X134222744Y-92084082D02*
X134265601Y-92169796D01*
X134265601Y-92169796D02*
X134308458Y-92212653D01*
X134308458Y-92212653D02*
X134394173Y-92255510D01*
X134394173Y-92255510D02*
X134737030Y-92255510D01*
X133837030Y-92684082D02*
X133837030Y-91784082D01*
X133494173Y-91784082D02*
X132894173Y-92684082D01*
X132894173Y-91784082D02*
X133494173Y-92684082D01*
X132551316Y-92212653D02*
X132251316Y-92212653D01*
X132122744Y-92684082D02*
X132551316Y-92684082D01*
X132551316Y-92684082D02*
X132551316Y-91784082D01*
X132551316Y-91784082D02*
X132122744Y-91784082D01*
X131308458Y-92684082D02*
X131737030Y-92684082D01*
X131737030Y-92684082D02*
X131737030Y-91784082D01*
X131008459Y-92598367D02*
X130965602Y-92641225D01*
X130965602Y-92641225D02*
X131008459Y-92684082D01*
X131008459Y-92684082D02*
X131051316Y-92641225D01*
X131051316Y-92641225D02*
X131008459Y-92598367D01*
X131008459Y-92598367D02*
X131008459Y-92684082D01*
X131008459Y-92126939D02*
X130965602Y-92169796D01*
X130965602Y-92169796D02*
X131008459Y-92212653D01*
X131008459Y-92212653D02*
X131051316Y-92169796D01*
X131051316Y-92169796D02*
X131008459Y-92126939D01*
X131008459Y-92126939D02*
X131008459Y-92212653D01*
X137437030Y-94133032D02*
X137437030Y-93233032D01*
X137437030Y-93233032D02*
X137222744Y-93233032D01*
X137222744Y-93233032D02*
X137094173Y-93275889D01*
X137094173Y-93275889D02*
X137008458Y-93361603D01*
X137008458Y-93361603D02*
X136965601Y-93447317D01*
X136965601Y-93447317D02*
X136922744Y-93618746D01*
X136922744Y-93618746D02*
X136922744Y-93747317D01*
X136922744Y-93747317D02*
X136965601Y-93918746D01*
X136965601Y-93918746D02*
X137008458Y-94004460D01*
X137008458Y-94004460D02*
X137094173Y-94090175D01*
X137094173Y-94090175D02*
X137222744Y-94133032D01*
X137222744Y-94133032D02*
X137437030Y-94133032D01*
X136408458Y-93618746D02*
X136494173Y-93575889D01*
X136494173Y-93575889D02*
X136537030Y-93533032D01*
X136537030Y-93533032D02*
X136579887Y-93447317D01*
X136579887Y-93447317D02*
X136579887Y-93404460D01*
X136579887Y-93404460D02*
X136537030Y-93318746D01*
X136537030Y-93318746D02*
X136494173Y-93275889D01*
X136494173Y-93275889D02*
X136408458Y-93233032D01*
X136408458Y-93233032D02*
X136237030Y-93233032D01*
X136237030Y-93233032D02*
X136151316Y-93275889D01*
X136151316Y-93275889D02*
X136108458Y-93318746D01*
X136108458Y-93318746D02*
X136065601Y-93404460D01*
X136065601Y-93404460D02*
X136065601Y-93447317D01*
X136065601Y-93447317D02*
X136108458Y-93533032D01*
X136108458Y-93533032D02*
X136151316Y-93575889D01*
X136151316Y-93575889D02*
X136237030Y-93618746D01*
X136237030Y-93618746D02*
X136408458Y-93618746D01*
X136408458Y-93618746D02*
X136494173Y-93661603D01*
X136494173Y-93661603D02*
X136537030Y-93704460D01*
X136537030Y-93704460D02*
X136579887Y-93790175D01*
X136579887Y-93790175D02*
X136579887Y-93961603D01*
X136579887Y-93961603D02*
X136537030Y-94047317D01*
X136537030Y-94047317D02*
X136494173Y-94090175D01*
X136494173Y-94090175D02*
X136408458Y-94133032D01*
X136408458Y-94133032D02*
X136237030Y-94133032D01*
X136237030Y-94133032D02*
X136151316Y-94090175D01*
X136151316Y-94090175D02*
X136108458Y-94047317D01*
X136108458Y-94047317D02*
X136065601Y-93961603D01*
X136065601Y-93961603D02*
X136065601Y-93790175D01*
X136065601Y-93790175D02*
X136108458Y-93704460D01*
X136108458Y-93704460D02*
X136151316Y-93661603D01*
X136151316Y-93661603D02*
X136237030Y-93618746D01*
X134994173Y-94133032D02*
X134994173Y-93233032D01*
X134994173Y-93233032D02*
X134779887Y-93233032D01*
X134779887Y-93233032D02*
X134651316Y-93275889D01*
X134651316Y-93275889D02*
X134565601Y-93361603D01*
X134565601Y-93361603D02*
X134522744Y-93447317D01*
X134522744Y-93447317D02*
X134479887Y-93618746D01*
X134479887Y-93618746D02*
X134479887Y-93747317D01*
X134479887Y-93747317D02*
X134522744Y-93918746D01*
X134522744Y-93918746D02*
X134565601Y-94004460D01*
X134565601Y-94004460D02*
X134651316Y-94090175D01*
X134651316Y-94090175D02*
X134779887Y-94133032D01*
X134779887Y-94133032D02*
X134994173Y-94133032D01*
X134094173Y-94133032D02*
X134094173Y-93233032D01*
X137137030Y-81154778D02*
X137008458Y-81197635D01*
X137008458Y-81197635D02*
X136965601Y-81240492D01*
X136965601Y-81240492D02*
X136922744Y-81326207D01*
X136922744Y-81326207D02*
X136922744Y-81454778D01*
X136922744Y-81454778D02*
X136965601Y-81540492D01*
X136965601Y-81540492D02*
X137008458Y-81583350D01*
X137008458Y-81583350D02*
X137094173Y-81626207D01*
X137094173Y-81626207D02*
X137437030Y-81626207D01*
X137437030Y-81626207D02*
X137437030Y-80726207D01*
X137437030Y-80726207D02*
X137137030Y-80726207D01*
X137137030Y-80726207D02*
X137051316Y-80769064D01*
X137051316Y-80769064D02*
X137008458Y-80811921D01*
X137008458Y-80811921D02*
X136965601Y-80897635D01*
X136965601Y-80897635D02*
X136965601Y-80983350D01*
X136965601Y-80983350D02*
X137008458Y-81069064D01*
X137008458Y-81069064D02*
X137051316Y-81111921D01*
X137051316Y-81111921D02*
X137137030Y-81154778D01*
X137137030Y-81154778D02*
X137437030Y-81154778D01*
X136537030Y-80726207D02*
X136537030Y-81454778D01*
X136537030Y-81454778D02*
X136494173Y-81540492D01*
X136494173Y-81540492D02*
X136451316Y-81583350D01*
X136451316Y-81583350D02*
X136365601Y-81626207D01*
X136365601Y-81626207D02*
X136194173Y-81626207D01*
X136194173Y-81626207D02*
X136108458Y-81583350D01*
X136108458Y-81583350D02*
X136065601Y-81540492D01*
X136065601Y-81540492D02*
X136022744Y-81454778D01*
X136022744Y-81454778D02*
X136022744Y-80726207D01*
X135722744Y-80726207D02*
X135208459Y-80726207D01*
X135465601Y-81626207D02*
X135465601Y-80726207D01*
X135037030Y-80726207D02*
X134522745Y-80726207D01*
X134779887Y-81626207D02*
X134779887Y-80726207D01*
X134051316Y-80726207D02*
X133879888Y-80726207D01*
X133879888Y-80726207D02*
X133794173Y-80769064D01*
X133794173Y-80769064D02*
X133708459Y-80854778D01*
X133708459Y-80854778D02*
X133665602Y-81026207D01*
X133665602Y-81026207D02*
X133665602Y-81326207D01*
X133665602Y-81326207D02*
X133708459Y-81497635D01*
X133708459Y-81497635D02*
X133794173Y-81583350D01*
X133794173Y-81583350D02*
X133879888Y-81626207D01*
X133879888Y-81626207D02*
X134051316Y-81626207D01*
X134051316Y-81626207D02*
X134137031Y-81583350D01*
X134137031Y-81583350D02*
X134222745Y-81497635D01*
X134222745Y-81497635D02*
X134265602Y-81326207D01*
X134265602Y-81326207D02*
X134265602Y-81026207D01*
X134265602Y-81026207D02*
X134222745Y-80854778D01*
X134222745Y-80854778D02*
X134137031Y-80769064D01*
X134137031Y-80769064D02*
X134051316Y-80726207D01*
X133279888Y-81626207D02*
X133279888Y-80726207D01*
X133279888Y-80726207D02*
X132765602Y-81626207D01*
X132765602Y-81626207D02*
X132765602Y-80726207D01*
X132379888Y-81583350D02*
X132251317Y-81626207D01*
X132251317Y-81626207D02*
X132037031Y-81626207D01*
X132037031Y-81626207D02*
X131951317Y-81583350D01*
X131951317Y-81583350D02*
X131908459Y-81540492D01*
X131908459Y-81540492D02*
X131865602Y-81454778D01*
X131865602Y-81454778D02*
X131865602Y-81369064D01*
X131865602Y-81369064D02*
X131908459Y-81283350D01*
X131908459Y-81283350D02*
X131951317Y-81240492D01*
X131951317Y-81240492D02*
X132037031Y-81197635D01*
X132037031Y-81197635D02*
X132208459Y-81154778D01*
X132208459Y-81154778D02*
X132294174Y-81111921D01*
X132294174Y-81111921D02*
X132337031Y-81069064D01*
X132337031Y-81069064D02*
X132379888Y-80983350D01*
X132379888Y-80983350D02*
X132379888Y-80897635D01*
X132379888Y-80897635D02*
X132337031Y-80811921D01*
X132337031Y-80811921D02*
X132294174Y-80769064D01*
X132294174Y-80769064D02*
X132208459Y-80726207D01*
X132208459Y-80726207D02*
X131994174Y-80726207D01*
X131994174Y-80726207D02*
X131865602Y-80769064D01*
X131479888Y-81540492D02*
X131437031Y-81583350D01*
X131437031Y-81583350D02*
X131479888Y-81626207D01*
X131479888Y-81626207D02*
X131522745Y-81583350D01*
X131522745Y-81583350D02*
X131479888Y-81540492D01*
X131479888Y-81540492D02*
X131479888Y-81626207D01*
X131479888Y-81069064D02*
X131437031Y-81111921D01*
X131437031Y-81111921D02*
X131479888Y-81154778D01*
X131479888Y-81154778D02*
X131522745Y-81111921D01*
X131522745Y-81111921D02*
X131479888Y-81069064D01*
X131479888Y-81069064D02*
X131479888Y-81154778D01*
X137437030Y-83075157D02*
X137437030Y-82175157D01*
X137437030Y-82175157D02*
X137222744Y-82175157D01*
X137222744Y-82175157D02*
X137094173Y-82218014D01*
X137094173Y-82218014D02*
X137008458Y-82303728D01*
X137008458Y-82303728D02*
X136965601Y-82389442D01*
X136965601Y-82389442D02*
X136922744Y-82560871D01*
X136922744Y-82560871D02*
X136922744Y-82689442D01*
X136922744Y-82689442D02*
X136965601Y-82860871D01*
X136965601Y-82860871D02*
X137008458Y-82946585D01*
X137008458Y-82946585D02*
X137094173Y-83032300D01*
X137094173Y-83032300D02*
X137222744Y-83075157D01*
X137222744Y-83075157D02*
X137437030Y-83075157D01*
X136365601Y-82175157D02*
X136279887Y-82175157D01*
X136279887Y-82175157D02*
X136194173Y-82218014D01*
X136194173Y-82218014D02*
X136151316Y-82260871D01*
X136151316Y-82260871D02*
X136108458Y-82346585D01*
X136108458Y-82346585D02*
X136065601Y-82518014D01*
X136065601Y-82518014D02*
X136065601Y-82732300D01*
X136065601Y-82732300D02*
X136108458Y-82903728D01*
X136108458Y-82903728D02*
X136151316Y-82989442D01*
X136151316Y-82989442D02*
X136194173Y-83032300D01*
X136194173Y-83032300D02*
X136279887Y-83075157D01*
X136279887Y-83075157D02*
X136365601Y-83075157D01*
X136365601Y-83075157D02*
X136451316Y-83032300D01*
X136451316Y-83032300D02*
X136494173Y-82989442D01*
X136494173Y-82989442D02*
X136537030Y-82903728D01*
X136537030Y-82903728D02*
X136579887Y-82732300D01*
X136579887Y-82732300D02*
X136579887Y-82518014D01*
X136579887Y-82518014D02*
X136537030Y-82346585D01*
X136537030Y-82346585D02*
X136494173Y-82260871D01*
X136494173Y-82260871D02*
X136451316Y-82218014D01*
X136451316Y-82218014D02*
X136365601Y-82175157D01*
X134565601Y-83075157D02*
X134994173Y-83075157D01*
X134994173Y-83075157D02*
X134994173Y-82175157D01*
X133922745Y-83032300D02*
X134008459Y-83075157D01*
X134008459Y-83075157D02*
X134179888Y-83075157D01*
X134179888Y-83075157D02*
X134265602Y-83032300D01*
X134265602Y-83032300D02*
X134308459Y-82946585D01*
X134308459Y-82946585D02*
X134308459Y-82603728D01*
X134308459Y-82603728D02*
X134265602Y-82518014D01*
X134265602Y-82518014D02*
X134179888Y-82475157D01*
X134179888Y-82475157D02*
X134008459Y-82475157D01*
X134008459Y-82475157D02*
X133922745Y-82518014D01*
X133922745Y-82518014D02*
X133879888Y-82603728D01*
X133879888Y-82603728D02*
X133879888Y-82689442D01*
X133879888Y-82689442D02*
X134308459Y-82775157D01*
X133622744Y-82475157D02*
X133279887Y-82475157D01*
X133494173Y-83075157D02*
X133494173Y-82303728D01*
X133494173Y-82303728D02*
X133451316Y-82218014D01*
X133451316Y-82218014D02*
X133365601Y-82175157D01*
X133365601Y-82175157D02*
X133279887Y-82175157D01*
X133108458Y-82475157D02*
X132765601Y-82475157D01*
X132979887Y-82175157D02*
X132979887Y-82946585D01*
X132979887Y-82946585D02*
X132937030Y-83032300D01*
X132937030Y-83032300D02*
X132851315Y-83075157D01*
X132851315Y-83075157D02*
X132765601Y-83075157D01*
X137437030Y-84524107D02*
X137437030Y-83624107D01*
X137437030Y-83624107D02*
X137222744Y-83624107D01*
X137222744Y-83624107D02*
X137094173Y-83666964D01*
X137094173Y-83666964D02*
X137008458Y-83752678D01*
X137008458Y-83752678D02*
X136965601Y-83838392D01*
X136965601Y-83838392D02*
X136922744Y-84009821D01*
X136922744Y-84009821D02*
X136922744Y-84138392D01*
X136922744Y-84138392D02*
X136965601Y-84309821D01*
X136965601Y-84309821D02*
X137008458Y-84395535D01*
X137008458Y-84395535D02*
X137094173Y-84481250D01*
X137094173Y-84481250D02*
X137222744Y-84524107D01*
X137222744Y-84524107D02*
X137437030Y-84524107D01*
X136622744Y-83624107D02*
X136065601Y-83624107D01*
X136065601Y-83624107D02*
X136365601Y-83966964D01*
X136365601Y-83966964D02*
X136237030Y-83966964D01*
X136237030Y-83966964D02*
X136151316Y-84009821D01*
X136151316Y-84009821D02*
X136108458Y-84052678D01*
X136108458Y-84052678D02*
X136065601Y-84138392D01*
X136065601Y-84138392D02*
X136065601Y-84352678D01*
X136065601Y-84352678D02*
X136108458Y-84438392D01*
X136108458Y-84438392D02*
X136151316Y-84481250D01*
X136151316Y-84481250D02*
X136237030Y-84524107D01*
X136237030Y-84524107D02*
X136494173Y-84524107D01*
X136494173Y-84524107D02*
X136579887Y-84481250D01*
X136579887Y-84481250D02*
X136622744Y-84438392D01*
X134694173Y-84052678D02*
X134565601Y-84095535D01*
X134565601Y-84095535D02*
X134522744Y-84138392D01*
X134522744Y-84138392D02*
X134479887Y-84224107D01*
X134479887Y-84224107D02*
X134479887Y-84352678D01*
X134479887Y-84352678D02*
X134522744Y-84438392D01*
X134522744Y-84438392D02*
X134565601Y-84481250D01*
X134565601Y-84481250D02*
X134651316Y-84524107D01*
X134651316Y-84524107D02*
X134994173Y-84524107D01*
X134994173Y-84524107D02*
X134994173Y-83624107D01*
X134994173Y-83624107D02*
X134694173Y-83624107D01*
X134694173Y-83624107D02*
X134608459Y-83666964D01*
X134608459Y-83666964D02*
X134565601Y-83709821D01*
X134565601Y-83709821D02*
X134522744Y-83795535D01*
X134522744Y-83795535D02*
X134522744Y-83881250D01*
X134522744Y-83881250D02*
X134565601Y-83966964D01*
X134565601Y-83966964D02*
X134608459Y-84009821D01*
X134608459Y-84009821D02*
X134694173Y-84052678D01*
X134694173Y-84052678D02*
X134994173Y-84052678D01*
X137437030Y-85973057D02*
X137437030Y-85073057D01*
X137437030Y-85073057D02*
X137222744Y-85073057D01*
X137222744Y-85073057D02*
X137094173Y-85115914D01*
X137094173Y-85115914D02*
X137008458Y-85201628D01*
X137008458Y-85201628D02*
X136965601Y-85287342D01*
X136965601Y-85287342D02*
X136922744Y-85458771D01*
X136922744Y-85458771D02*
X136922744Y-85587342D01*
X136922744Y-85587342D02*
X136965601Y-85758771D01*
X136965601Y-85758771D02*
X137008458Y-85844485D01*
X137008458Y-85844485D02*
X137094173Y-85930200D01*
X137094173Y-85930200D02*
X137222744Y-85973057D01*
X137222744Y-85973057D02*
X137437030Y-85973057D01*
X136151316Y-85373057D02*
X136151316Y-85973057D01*
X136365601Y-85030200D02*
X136579887Y-85673057D01*
X136579887Y-85673057D02*
X136022744Y-85673057D01*
X135037030Y-85715914D02*
X134608459Y-85715914D01*
X135122744Y-85973057D02*
X134822744Y-85073057D01*
X134822744Y-85073057D02*
X134522744Y-85973057D01*
X137437030Y-87422007D02*
X137437030Y-86522007D01*
X137437030Y-86522007D02*
X137222744Y-86522007D01*
X137222744Y-86522007D02*
X137094173Y-86564864D01*
X137094173Y-86564864D02*
X137008458Y-86650578D01*
X137008458Y-86650578D02*
X136965601Y-86736292D01*
X136965601Y-86736292D02*
X136922744Y-86907721D01*
X136922744Y-86907721D02*
X136922744Y-87036292D01*
X136922744Y-87036292D02*
X136965601Y-87207721D01*
X136965601Y-87207721D02*
X137008458Y-87293435D01*
X137008458Y-87293435D02*
X137094173Y-87379150D01*
X137094173Y-87379150D02*
X137222744Y-87422007D01*
X137222744Y-87422007D02*
X137437030Y-87422007D01*
X136108458Y-86522007D02*
X136537030Y-86522007D01*
X136537030Y-86522007D02*
X136579887Y-86950578D01*
X136579887Y-86950578D02*
X136537030Y-86907721D01*
X136537030Y-86907721D02*
X136451316Y-86864864D01*
X136451316Y-86864864D02*
X136237030Y-86864864D01*
X136237030Y-86864864D02*
X136151316Y-86907721D01*
X136151316Y-86907721D02*
X136108458Y-86950578D01*
X136108458Y-86950578D02*
X136065601Y-87036292D01*
X136065601Y-87036292D02*
X136065601Y-87250578D01*
X136065601Y-87250578D02*
X136108458Y-87336292D01*
X136108458Y-87336292D02*
X136151316Y-87379150D01*
X136151316Y-87379150D02*
X136237030Y-87422007D01*
X136237030Y-87422007D02*
X136451316Y-87422007D01*
X136451316Y-87422007D02*
X136537030Y-87379150D01*
X136537030Y-87379150D02*
X136579887Y-87336292D01*
X134994173Y-86522007D02*
X134994173Y-87250578D01*
X134994173Y-87250578D02*
X134951316Y-87336292D01*
X134951316Y-87336292D02*
X134908459Y-87379150D01*
X134908459Y-87379150D02*
X134822744Y-87422007D01*
X134822744Y-87422007D02*
X134651316Y-87422007D01*
X134651316Y-87422007D02*
X134565601Y-87379150D01*
X134565601Y-87379150D02*
X134522744Y-87336292D01*
X134522744Y-87336292D02*
X134479887Y-87250578D01*
X134479887Y-87250578D02*
X134479887Y-86522007D01*
X134051316Y-87422007D02*
X134051316Y-86522007D01*
X134051316Y-86522007D02*
X133708459Y-86522007D01*
X133708459Y-86522007D02*
X133622744Y-86564864D01*
X133622744Y-86564864D02*
X133579887Y-86607721D01*
X133579887Y-86607721D02*
X133537030Y-86693435D01*
X133537030Y-86693435D02*
X133537030Y-86822007D01*
X133537030Y-86822007D02*
X133579887Y-86907721D01*
X133579887Y-86907721D02*
X133622744Y-86950578D01*
X133622744Y-86950578D02*
X133708459Y-86993435D01*
X133708459Y-86993435D02*
X134051316Y-86993435D01*
X137437030Y-88870957D02*
X137437030Y-87970957D01*
X137437030Y-87970957D02*
X137222744Y-87970957D01*
X137222744Y-87970957D02*
X137094173Y-88013814D01*
X137094173Y-88013814D02*
X137008458Y-88099528D01*
X137008458Y-88099528D02*
X136965601Y-88185242D01*
X136965601Y-88185242D02*
X136922744Y-88356671D01*
X136922744Y-88356671D02*
X136922744Y-88485242D01*
X136922744Y-88485242D02*
X136965601Y-88656671D01*
X136965601Y-88656671D02*
X137008458Y-88742385D01*
X137008458Y-88742385D02*
X137094173Y-88828100D01*
X137094173Y-88828100D02*
X137222744Y-88870957D01*
X137222744Y-88870957D02*
X137437030Y-88870957D01*
X136151316Y-87970957D02*
X136322744Y-87970957D01*
X136322744Y-87970957D02*
X136408458Y-88013814D01*
X136408458Y-88013814D02*
X136451316Y-88056671D01*
X136451316Y-88056671D02*
X136537030Y-88185242D01*
X136537030Y-88185242D02*
X136579887Y-88356671D01*
X136579887Y-88356671D02*
X136579887Y-88699528D01*
X136579887Y-88699528D02*
X136537030Y-88785242D01*
X136537030Y-88785242D02*
X136494173Y-88828100D01*
X136494173Y-88828100D02*
X136408458Y-88870957D01*
X136408458Y-88870957D02*
X136237030Y-88870957D01*
X136237030Y-88870957D02*
X136151316Y-88828100D01*
X136151316Y-88828100D02*
X136108458Y-88785242D01*
X136108458Y-88785242D02*
X136065601Y-88699528D01*
X136065601Y-88699528D02*
X136065601Y-88485242D01*
X136065601Y-88485242D02*
X136108458Y-88399528D01*
X136108458Y-88399528D02*
X136151316Y-88356671D01*
X136151316Y-88356671D02*
X136237030Y-88313814D01*
X136237030Y-88313814D02*
X136408458Y-88313814D01*
X136408458Y-88313814D02*
X136494173Y-88356671D01*
X136494173Y-88356671D02*
X136537030Y-88399528D01*
X136537030Y-88399528D02*
X136579887Y-88485242D01*
X134994173Y-88870957D02*
X134994173Y-87970957D01*
X134994173Y-87970957D02*
X134779887Y-87970957D01*
X134779887Y-87970957D02*
X134651316Y-88013814D01*
X134651316Y-88013814D02*
X134565601Y-88099528D01*
X134565601Y-88099528D02*
X134522744Y-88185242D01*
X134522744Y-88185242D02*
X134479887Y-88356671D01*
X134479887Y-88356671D02*
X134479887Y-88485242D01*
X134479887Y-88485242D02*
X134522744Y-88656671D01*
X134522744Y-88656671D02*
X134565601Y-88742385D01*
X134565601Y-88742385D02*
X134651316Y-88828100D01*
X134651316Y-88828100D02*
X134779887Y-88870957D01*
X134779887Y-88870957D02*
X134994173Y-88870957D01*
X133922744Y-87970957D02*
X133751316Y-87970957D01*
X133751316Y-87970957D02*
X133665601Y-88013814D01*
X133665601Y-88013814D02*
X133579887Y-88099528D01*
X133579887Y-88099528D02*
X133537030Y-88270957D01*
X133537030Y-88270957D02*
X133537030Y-88570957D01*
X133537030Y-88570957D02*
X133579887Y-88742385D01*
X133579887Y-88742385D02*
X133665601Y-88828100D01*
X133665601Y-88828100D02*
X133751316Y-88870957D01*
X133751316Y-88870957D02*
X133922744Y-88870957D01*
X133922744Y-88870957D02*
X134008459Y-88828100D01*
X134008459Y-88828100D02*
X134094173Y-88742385D01*
X134094173Y-88742385D02*
X134137030Y-88570957D01*
X134137030Y-88570957D02*
X134137030Y-88270957D01*
X134137030Y-88270957D02*
X134094173Y-88099528D01*
X134094173Y-88099528D02*
X134008459Y-88013814D01*
X134008459Y-88013814D02*
X133922744Y-87970957D01*
X133237030Y-87970957D02*
X133022744Y-88870957D01*
X133022744Y-88870957D02*
X132851316Y-88228100D01*
X132851316Y-88228100D02*
X132679887Y-88870957D01*
X132679887Y-88870957D02*
X132465602Y-87970957D01*
X132122745Y-88870957D02*
X132122745Y-87970957D01*
X132122745Y-87970957D02*
X131608459Y-88870957D01*
X131608459Y-88870957D02*
X131608459Y-87970957D01*
X137437030Y-90319907D02*
X137437030Y-89419907D01*
X137437030Y-89419907D02*
X137222744Y-89419907D01*
X137222744Y-89419907D02*
X137094173Y-89462764D01*
X137094173Y-89462764D02*
X137008458Y-89548478D01*
X137008458Y-89548478D02*
X136965601Y-89634192D01*
X136965601Y-89634192D02*
X136922744Y-89805621D01*
X136922744Y-89805621D02*
X136922744Y-89934192D01*
X136922744Y-89934192D02*
X136965601Y-90105621D01*
X136965601Y-90105621D02*
X137008458Y-90191335D01*
X137008458Y-90191335D02*
X137094173Y-90277050D01*
X137094173Y-90277050D02*
X137222744Y-90319907D01*
X137222744Y-90319907D02*
X137437030Y-90319907D01*
X136622744Y-89419907D02*
X136022744Y-89419907D01*
X136022744Y-89419907D02*
X136408458Y-90319907D01*
X134479887Y-90319907D02*
X134779887Y-89891335D01*
X134994173Y-90319907D02*
X134994173Y-89419907D01*
X134994173Y-89419907D02*
X134651316Y-89419907D01*
X134651316Y-89419907D02*
X134565601Y-89462764D01*
X134565601Y-89462764D02*
X134522744Y-89505621D01*
X134522744Y-89505621D02*
X134479887Y-89591335D01*
X134479887Y-89591335D02*
X134479887Y-89719907D01*
X134479887Y-89719907D02*
X134522744Y-89805621D01*
X134522744Y-89805621D02*
X134565601Y-89848478D01*
X134565601Y-89848478D02*
X134651316Y-89891335D01*
X134651316Y-89891335D02*
X134994173Y-89891335D01*
X134094173Y-90319907D02*
X134094173Y-89419907D01*
X133194173Y-89462764D02*
X133279888Y-89419907D01*
X133279888Y-89419907D02*
X133408459Y-89419907D01*
X133408459Y-89419907D02*
X133537030Y-89462764D01*
X133537030Y-89462764D02*
X133622745Y-89548478D01*
X133622745Y-89548478D02*
X133665602Y-89634192D01*
X133665602Y-89634192D02*
X133708459Y-89805621D01*
X133708459Y-89805621D02*
X133708459Y-89934192D01*
X133708459Y-89934192D02*
X133665602Y-90105621D01*
X133665602Y-90105621D02*
X133622745Y-90191335D01*
X133622745Y-90191335D02*
X133537030Y-90277050D01*
X133537030Y-90277050D02*
X133408459Y-90319907D01*
X133408459Y-90319907D02*
X133322745Y-90319907D01*
X133322745Y-90319907D02*
X133194173Y-90277050D01*
X133194173Y-90277050D02*
X133151316Y-90234192D01*
X133151316Y-90234192D02*
X133151316Y-89934192D01*
X133151316Y-89934192D02*
X133322745Y-89934192D01*
X132765602Y-90319907D02*
X132765602Y-89419907D01*
X132765602Y-89848478D02*
X132251316Y-89848478D01*
X132251316Y-90319907D02*
X132251316Y-89419907D01*
X131951316Y-89419907D02*
X131437031Y-89419907D01*
X131694173Y-90319907D02*
X131694173Y-89419907D01*
X168817030Y-67074295D02*
X168321792Y-67074295D01*
X168321792Y-67074295D02*
X168588458Y-67379057D01*
X168588458Y-67379057D02*
X168474173Y-67379057D01*
X168474173Y-67379057D02*
X168397982Y-67417152D01*
X168397982Y-67417152D02*
X168359887Y-67455247D01*
X168359887Y-67455247D02*
X168321792Y-67531438D01*
X168321792Y-67531438D02*
X168321792Y-67721914D01*
X168321792Y-67721914D02*
X168359887Y-67798104D01*
X168359887Y-67798104D02*
X168397982Y-67836200D01*
X168397982Y-67836200D02*
X168474173Y-67874295D01*
X168474173Y-67874295D02*
X168702744Y-67874295D01*
X168702744Y-67874295D02*
X168778935Y-67836200D01*
X168778935Y-67836200D02*
X168817030Y-67798104D01*
X168093220Y-67074295D02*
X167826553Y-67874295D01*
X167826553Y-67874295D02*
X167559887Y-67074295D01*
X167369411Y-67074295D02*
X166874173Y-67074295D01*
X166874173Y-67074295D02*
X167140839Y-67379057D01*
X167140839Y-67379057D02*
X167026554Y-67379057D01*
X167026554Y-67379057D02*
X166950363Y-67417152D01*
X166950363Y-67417152D02*
X166912268Y-67455247D01*
X166912268Y-67455247D02*
X166874173Y-67531438D01*
X166874173Y-67531438D02*
X166874173Y-67721914D01*
X166874173Y-67721914D02*
X166912268Y-67798104D01*
X166912268Y-67798104D02*
X166950363Y-67836200D01*
X166950363Y-67836200D02*
X167026554Y-67874295D01*
X167026554Y-67874295D02*
X167255125Y-67874295D01*
X167255125Y-67874295D02*
X167331316Y-67836200D01*
X167331316Y-67836200D02*
X167369411Y-67798104D01*
D13*
G36*
X173011140Y-101345000D02*
G01*
X172365643Y-101345000D01*
X172154203Y-101337831D01*
X171987006Y-101318438D01*
X171832854Y-101281319D01*
X171693108Y-101224191D01*
X171582805Y-101156729D01*
X171484637Y-101071322D01*
X171398002Y-100965812D01*
X171333736Y-100850091D01*
X171294604Y-100723775D01*
X171281168Y-100584519D01*
X171281395Y-100581954D01*
X171769275Y-100581954D01*
X171776652Y-100681549D01*
X171797284Y-100765078D01*
X171829506Y-100835112D01*
X171876741Y-100898184D01*
X171939245Y-100952479D01*
X172018879Y-100998694D01*
X172095330Y-101027255D01*
X172172533Y-101045039D01*
X172262471Y-101053973D01*
X172419719Y-101057770D01*
X172538970Y-101057770D01*
X172538970Y-100108154D01*
X172419719Y-100108154D01*
X172276916Y-100111308D01*
X172191657Y-100118870D01*
X172117264Y-100134157D01*
X172043499Y-100159078D01*
X171955269Y-100205429D01*
X171886612Y-100260774D01*
X171835111Y-100325774D01*
X171799587Y-100398678D01*
X171777187Y-100483338D01*
X171769275Y-100581954D01*
X171281395Y-100581954D01*
X171294010Y-100439437D01*
X171330785Y-100312309D01*
X171389978Y-100200203D01*
X171471842Y-100098395D01*
X171570790Y-100012313D01*
X171688162Y-99940634D01*
X171807431Y-99891304D01*
X171961177Y-99852157D01*
X172131260Y-99829355D01*
X172347178Y-99820924D01*
X173011140Y-99820924D01*
X173011140Y-101345000D01*
G37*
G36*
X170408971Y-100168399D02*
G01*
X170537855Y-100189719D01*
X170650563Y-100223628D01*
X170749370Y-100269570D01*
X170836036Y-100327698D01*
X170910068Y-100397544D01*
X170967873Y-100476205D01*
X171010095Y-100564928D01*
X171036429Y-100665426D01*
X171045633Y-100779791D01*
X171035828Y-100895354D01*
X171007930Y-100995347D01*
X170963388Y-101082258D01*
X170902498Y-101158079D01*
X170824385Y-101224191D01*
X170734777Y-101277087D01*
X170629089Y-101319891D01*
X170504771Y-101352164D01*
X170358739Y-101372819D01*
X170187461Y-101380170D01*
X170030130Y-101374258D01*
X169893564Y-101357547D01*
X169759747Y-101328827D01*
X169610767Y-101284549D01*
X169610767Y-100987428D01*
X169659896Y-100987428D01*
X169744763Y-101032630D01*
X169867735Y-101079385D01*
X170001571Y-101111555D01*
X170139431Y-101122250D01*
X170284981Y-101112856D01*
X170393923Y-101087716D01*
X170474544Y-101049893D01*
X170537932Y-100995527D01*
X170579081Y-100927167D01*
X170598082Y-100840882D01*
X169584938Y-100840882D01*
X169584938Y-100711647D01*
X169592864Y-100623995D01*
X170025125Y-100623995D01*
X170599291Y-100623995D01*
X170583201Y-100545178D01*
X170551970Y-100487256D01*
X170507187Y-100445300D01*
X170448953Y-100414995D01*
X170379761Y-100396175D01*
X170296821Y-100389521D01*
X170207788Y-100397020D01*
X170142110Y-100417215D01*
X170094038Y-100448415D01*
X170059256Y-100490945D01*
X170035624Y-100548042D01*
X170025125Y-100623995D01*
X169592864Y-100623995D01*
X169596986Y-100578410D01*
X169630606Y-100468546D01*
X169683340Y-100377821D01*
X169754638Y-100302968D01*
X169844023Y-100243842D01*
X169954924Y-100199661D01*
X170091996Y-100171199D01*
X170261210Y-100160910D01*
X170408971Y-100168399D01*
G37*
G36*
X168072367Y-100982024D02*
G01*
X168084336Y-101067115D01*
X168119290Y-101142107D01*
X168178021Y-101209496D01*
X168264159Y-101270628D01*
X168361641Y-101315887D01*
X168479053Y-101350150D01*
X168620118Y-101372241D01*
X168789195Y-101380170D01*
X168968930Y-101372712D01*
X169123649Y-101351686D01*
X169265643Y-101319889D01*
X169364680Y-101288579D01*
X169364680Y-100987428D01*
X169324124Y-100987428D01*
X169247297Y-101027453D01*
X169123649Y-101074165D01*
X168967578Y-101112267D01*
X168878402Y-101124044D01*
X168780622Y-101128112D01*
X168659081Y-101121368D01*
X168587622Y-101105214D01*
X168551127Y-101086315D01*
X168531392Y-101064142D01*
X168524863Y-101037528D01*
X168534493Y-101000473D01*
X168561793Y-100976345D01*
X168607487Y-100959766D01*
X168701927Y-100939801D01*
X168835357Y-100919742D01*
X168988461Y-100893456D01*
X169109474Y-100858588D01*
X169200585Y-100815610D01*
X169267520Y-100765411D01*
X169317473Y-100703677D01*
X169347913Y-100632347D01*
X169358525Y-100548798D01*
X169347050Y-100470001D01*
X169313141Y-100398806D01*
X169255420Y-100333044D01*
X169169811Y-100271552D01*
X169073665Y-100225734D01*
X168958168Y-100191146D01*
X168819702Y-100168889D01*
X168654007Y-100160910D01*
X168501136Y-100167583D01*
X168357032Y-100187197D01*
X168223369Y-100216215D01*
X168135125Y-100243342D01*
X168135125Y-100536067D01*
X168173264Y-100536067D01*
X168276960Y-100487196D01*
X168397698Y-100447224D01*
X168524844Y-100421480D01*
X168652798Y-100412969D01*
X168754944Y-100419291D01*
X168832939Y-100436325D01*
X168876568Y-100455981D01*
X168898945Y-100477746D01*
X168906029Y-100502545D01*
X168897377Y-100539451D01*
X168872836Y-100565285D01*
X168827655Y-100583884D01*
X168716655Y-100608516D01*
X168571025Y-100630681D01*
X168414185Y-100657883D01*
X168301954Y-100690334D01*
X168217694Y-100730570D01*
X168156008Y-100777776D01*
X168110196Y-100835707D01*
X168082165Y-100902960D01*
X168072367Y-100982024D01*
G37*
G36*
X167335095Y-101345000D02*
G01*
X167777700Y-101345000D01*
X167777700Y-100196081D01*
X167335095Y-100196081D01*
X167335095Y-101345000D01*
G37*
G36*
X167322786Y-100031950D02*
G01*
X167790010Y-100031950D01*
X167790010Y-99750582D01*
X167322786Y-99750582D01*
X167322786Y-100031950D01*
G37*
G36*
X166512579Y-100170843D02*
G01*
X166633105Y-100200935D01*
X166743378Y-100249357D01*
X166832920Y-100312585D01*
X166909992Y-100395647D01*
X166968218Y-100493019D01*
X166993946Y-100563133D01*
X167010332Y-100644545D01*
X167016139Y-100739033D01*
X167004421Y-100889975D01*
X166972314Y-101010538D01*
X166923211Y-101106320D01*
X166858749Y-101181876D01*
X166774606Y-101243904D01*
X166674343Y-101288984D01*
X166554702Y-101317338D01*
X166411198Y-101327414D01*
X166295687Y-101319204D01*
X166194787Y-101295632D01*
X166101811Y-101258154D01*
X166017723Y-101209536D01*
X166017723Y-101230969D01*
X166022382Y-101299532D01*
X166034978Y-101353151D01*
X166057897Y-101400354D01*
X166090263Y-101436774D01*
X166137470Y-101466330D01*
X166207756Y-101490263D01*
X166290484Y-101503863D01*
X166407571Y-101509131D01*
X166502338Y-101504008D01*
X166616618Y-101487149D01*
X166728540Y-101463113D01*
X166814565Y-101438789D01*
X166868640Y-101438789D01*
X166868640Y-101729132D01*
X166761708Y-101747613D01*
X166627060Y-101764303D01*
X166486786Y-101775137D01*
X166343604Y-101778775D01*
X166171467Y-101771349D01*
X166025746Y-101750565D01*
X165934238Y-101727208D01*
X165854558Y-101696590D01*
X165785265Y-101658974D01*
X165724995Y-101613089D01*
X165673412Y-101555969D01*
X165630402Y-101485958D01*
X165600883Y-101410838D01*
X165581839Y-101320947D01*
X165575008Y-101213658D01*
X165575008Y-100459314D01*
X166017723Y-100459314D01*
X166017723Y-100982299D01*
X166072916Y-101008133D01*
X166134556Y-101028644D01*
X166199234Y-101041710D01*
X166264909Y-101046046D01*
X166359232Y-101037852D01*
X166431027Y-101015453D01*
X166485607Y-100980284D01*
X166523416Y-100932024D01*
X166549730Y-100857931D01*
X166560015Y-100748101D01*
X166549173Y-100650580D01*
X166519363Y-100574200D01*
X166472747Y-100514360D01*
X166407949Y-100469330D01*
X166322785Y-100440913D01*
X166210833Y-100430554D01*
X166111256Y-100438248D01*
X166017723Y-100459314D01*
X165575008Y-100459314D01*
X165575008Y-100196081D01*
X166004204Y-100196081D01*
X166020141Y-100243983D01*
X166098503Y-100209508D01*
X166186763Y-100182984D01*
X166281345Y-100166654D01*
X166390205Y-100160910D01*
X166512579Y-100170843D01*
G37*
G36*
X163768759Y-101345000D02*
G01*
X164213782Y-101345000D01*
X164213782Y-100773746D01*
X164222465Y-100634711D01*
X164235360Y-100570406D01*
X164251920Y-100532678D01*
X164282225Y-100499891D01*
X164323911Y-100477357D01*
X164376263Y-100464831D01*
X164456022Y-100459863D01*
X164516232Y-100463886D01*
X164578461Y-100476258D01*
X164640877Y-100496644D01*
X164713100Y-100528557D01*
X164713100Y-101345000D01*
X165155704Y-101345000D01*
X165155704Y-100196081D01*
X164713100Y-100196081D01*
X164713100Y-100319912D01*
X164594002Y-100250210D01*
X164486247Y-100201943D01*
X164373019Y-100171437D01*
X164244666Y-100160910D01*
X164133744Y-100168427D01*
X164040467Y-100189631D01*
X163961623Y-100223373D01*
X163894825Y-100269720D01*
X163842590Y-100326696D01*
X163803343Y-100397720D01*
X163777957Y-100485852D01*
X163768759Y-100594960D01*
X163768759Y-101345000D01*
G37*
G36*
X162826110Y-100168399D02*
G01*
X162954994Y-100189719D01*
X163067702Y-100223628D01*
X163166509Y-100269570D01*
X163253175Y-100327698D01*
X163327207Y-100397544D01*
X163385012Y-100476205D01*
X163427234Y-100564928D01*
X163453568Y-100665426D01*
X163462772Y-100779791D01*
X163452967Y-100895354D01*
X163425068Y-100995347D01*
X163380527Y-101082258D01*
X163319637Y-101158079D01*
X163241524Y-101224191D01*
X163151916Y-101277087D01*
X163046228Y-101319891D01*
X162921910Y-101352164D01*
X162775878Y-101372819D01*
X162604600Y-101380170D01*
X162447269Y-101374258D01*
X162310702Y-101357547D01*
X162176885Y-101328827D01*
X162027906Y-101284549D01*
X162027906Y-100987428D01*
X162077035Y-100987428D01*
X162161902Y-101032630D01*
X162284874Y-101079385D01*
X162418710Y-101111555D01*
X162556570Y-101122250D01*
X162702120Y-101112856D01*
X162811062Y-101087716D01*
X162891683Y-101049893D01*
X162955071Y-100995527D01*
X162996220Y-100927167D01*
X163015221Y-100840882D01*
X162002077Y-100840882D01*
X162002077Y-100711647D01*
X162010003Y-100623995D01*
X162442264Y-100623995D01*
X163016430Y-100623995D01*
X163000340Y-100545178D01*
X162969109Y-100487256D01*
X162924326Y-100445300D01*
X162866092Y-100414995D01*
X162796900Y-100396175D01*
X162713960Y-100389521D01*
X162624927Y-100397020D01*
X162559249Y-100417215D01*
X162511177Y-100448415D01*
X162476395Y-100490945D01*
X162452763Y-100548042D01*
X162442264Y-100623995D01*
X162010003Y-100623995D01*
X162014125Y-100578410D01*
X162047744Y-100468546D01*
X162100479Y-100377821D01*
X162171777Y-100302968D01*
X162261162Y-100243842D01*
X162372063Y-100199661D01*
X162509135Y-100171199D01*
X162678349Y-100160910D01*
X162826110Y-100168399D01*
G37*
G36*
X160789558Y-100238763D02*
G01*
X160952553Y-100182984D01*
X161037723Y-100167024D01*
X161155996Y-100160910D01*
X161274012Y-100171361D01*
X161394499Y-100203592D01*
X161505329Y-100255190D01*
X161597391Y-100323484D01*
X161675653Y-100411638D01*
X161736976Y-100518482D01*
X161764597Y-100595384D01*
X161781920Y-100681848D01*
X161787974Y-100779241D01*
X161777277Y-100917920D01*
X161747236Y-101035010D01*
X161700065Y-101133956D01*
X161636739Y-101217596D01*
X161554012Y-101289281D01*
X161460862Y-101339303D01*
X161355162Y-101369653D01*
X161233482Y-101380170D01*
X161108359Y-101370112D01*
X161003551Y-101341611D01*
X160904370Y-101295412D01*
X160789558Y-101225107D01*
X160789558Y-101345000D01*
X160346843Y-101345000D01*
X160346843Y-100461512D01*
X160789558Y-100461512D01*
X160789558Y-101029743D01*
X160844361Y-101057314D01*
X160908920Y-101079752D01*
X160976034Y-101094241D01*
X161036744Y-101098803D01*
X161135690Y-101089204D01*
X161208521Y-101063135D01*
X161261838Y-101021958D01*
X161297650Y-100967232D01*
X161322349Y-100887691D01*
X161331850Y-100775028D01*
X161320929Y-100669304D01*
X161291001Y-100586546D01*
X161244582Y-100521871D01*
X161197105Y-100482969D01*
X161139231Y-100454740D01*
X161068790Y-100436925D01*
X160982669Y-100430554D01*
X160887927Y-100437790D01*
X160789558Y-100461512D01*
X160346843Y-100461512D01*
X160346843Y-99750582D01*
X160789558Y-99750582D01*
X160789558Y-100238763D01*
G37*
G36*
X159042990Y-101345000D02*
G01*
X158243729Y-101345000D01*
X158053386Y-101337088D01*
X157914881Y-101316423D01*
X157790577Y-101278173D01*
X157676927Y-101220436D01*
X157593501Y-101155963D01*
X157529978Y-101076546D01*
X157500670Y-101017194D01*
X157482665Y-100951898D01*
X157476453Y-100879534D01*
X157476980Y-100875412D01*
X157965879Y-100875412D01*
X157973033Y-100928451D01*
X157993576Y-100973506D01*
X158030631Y-101010427D01*
X158095022Y-101041741D01*
X158170092Y-101061152D01*
X158253621Y-101068486D01*
X158538946Y-101069494D01*
X158573347Y-101069494D01*
X158573347Y-100688475D01*
X158470033Y-100688475D01*
X158267140Y-100689482D01*
X158175270Y-100694089D01*
X158114696Y-100703862D01*
X158042560Y-100729842D01*
X157999731Y-100762938D01*
X157975269Y-100807862D01*
X157965879Y-100875412D01*
X157476980Y-100875412D01*
X157488984Y-100781572D01*
X157524363Y-100701176D01*
X157581636Y-100634528D01*
X157657683Y-100580863D01*
X157751396Y-100539888D01*
X157866301Y-100511979D01*
X157866301Y-100503736D01*
X157785730Y-100467128D01*
X157720384Y-100423236D01*
X157668354Y-100371844D01*
X157629682Y-100313021D01*
X157607123Y-100250669D01*
X158081503Y-100250669D01*
X158086656Y-100298735D01*
X158101177Y-100338780D01*
X158130050Y-100371852D01*
X158184818Y-100400696D01*
X158234944Y-100414165D01*
X158309015Y-100421578D01*
X158499598Y-100424692D01*
X158573347Y-100424692D01*
X158573347Y-100096430D01*
X158529054Y-100096430D01*
X158313302Y-100097987D01*
X158240018Y-100103721D01*
X158184818Y-100116214D01*
X158134813Y-100140624D01*
X158104254Y-100173550D01*
X158087040Y-100212625D01*
X158081503Y-100250669D01*
X157607123Y-100250669D01*
X157606271Y-100248314D01*
X157598232Y-100176206D01*
X157611356Y-100084823D01*
X157649340Y-100006304D01*
X157688430Y-99960823D01*
X157739655Y-99921389D01*
X157804752Y-99887694D01*
X157907137Y-99852747D01*
X158008304Y-99833289D01*
X158125887Y-99824614D01*
X158332316Y-99820924D01*
X159042990Y-99820924D01*
X159042990Y-101345000D01*
G37*
G36*
X156525627Y-100940350D02*
G01*
X156210847Y-100196081D01*
X155755933Y-100196081D01*
X156523209Y-101767051D01*
X157002744Y-101767051D01*
X156783804Y-101339138D01*
X157321151Y-100196081D01*
X156856344Y-100196081D01*
X156525627Y-100940350D01*
G37*
G36*
X154982611Y-100600547D02*
G01*
X155442471Y-100600547D01*
X155442471Y-100196081D01*
X154982611Y-100196081D01*
X154982611Y-100600547D01*
G37*
G36*
X154982611Y-101345000D02*
G01*
X155442471Y-101345000D01*
X155442471Y-100940533D01*
X154982611Y-100940533D01*
X154982611Y-101345000D01*
G37*
G36*
X153632705Y-100811573D02*
G01*
X154570891Y-100811573D01*
X154570891Y-100518482D01*
X153632705Y-100518482D01*
X153632705Y-100811573D01*
G37*
G36*
X152404469Y-101345000D02*
G01*
X151934827Y-101345000D01*
X151934827Y-100788126D01*
X151717206Y-100788126D01*
X151217888Y-101345000D01*
X150641194Y-101345000D01*
X151252400Y-100693787D01*
X151141382Y-100640615D01*
X151052807Y-100581473D01*
X150983672Y-100516375D01*
X150933013Y-100441519D01*
X150901022Y-100350814D01*
X150894237Y-100285291D01*
X151377806Y-100285291D01*
X151384130Y-100346887D01*
X151400558Y-100389613D01*
X151429076Y-100426022D01*
X151472438Y-100460688D01*
X151528919Y-100487512D01*
X151600373Y-100503278D01*
X151681216Y-100510049D01*
X151789746Y-100512620D01*
X151934827Y-100512620D01*
X151934827Y-100096430D01*
X151763918Y-100096430D01*
X151615101Y-100100094D01*
X151553643Y-100107215D01*
X151503213Y-100120335D01*
X151442921Y-100149701D01*
X151406163Y-100185731D01*
X151385250Y-100230141D01*
X151377806Y-100285291D01*
X150894237Y-100285291D01*
X150889589Y-100240411D01*
X150896981Y-100159683D01*
X150917725Y-100092271D01*
X150950479Y-100035797D01*
X151021526Y-99962179D01*
X151114574Y-99902990D01*
X151220466Y-99860643D01*
X151333513Y-99836311D01*
X151455860Y-99825097D01*
X151612573Y-99820924D01*
X152404469Y-99820924D01*
X152404469Y-101345000D01*
G37*
G36*
X149083560Y-101345000D02*
G01*
X149526275Y-101345000D01*
X149526275Y-101221168D01*
X149648679Y-101292200D01*
X149751369Y-101339687D01*
X149820985Y-101361525D01*
X149901459Y-101375307D01*
X149994708Y-101380170D01*
X150108245Y-101372509D01*
X150202606Y-101351009D01*
X150281338Y-101316981D01*
X150347077Y-101270444D01*
X150398300Y-101213073D01*
X150436775Y-101141980D01*
X150461627Y-101054225D01*
X150470615Y-100946120D01*
X150470615Y-100196081D01*
X150025483Y-100196081D01*
X150025483Y-100767335D01*
X150018778Y-100912506D01*
X150006891Y-100967335D01*
X149987344Y-101008402D01*
X149958086Y-101041168D01*
X149916672Y-101063815D01*
X149864232Y-101076277D01*
X149784452Y-101081217D01*
X149726838Y-101077135D01*
X149659155Y-101063815D01*
X149591880Y-101042400D01*
X149526275Y-101012524D01*
X149526275Y-100196081D01*
X149083560Y-100196081D01*
X149083560Y-101345000D01*
G37*
G36*
X147765748Y-100238763D02*
G01*
X147928743Y-100182984D01*
X148013913Y-100167024D01*
X148132185Y-100160910D01*
X148250202Y-100171361D01*
X148370689Y-100203592D01*
X148481519Y-100255190D01*
X148573581Y-100323484D01*
X148651843Y-100411638D01*
X148713166Y-100518482D01*
X148740786Y-100595384D01*
X148758110Y-100681848D01*
X148764164Y-100779241D01*
X148753467Y-100917920D01*
X148723426Y-101035010D01*
X148676254Y-101133956D01*
X148612929Y-101217596D01*
X148530201Y-101289281D01*
X148437052Y-101339303D01*
X148331352Y-101369653D01*
X148209671Y-101380170D01*
X148084549Y-101370112D01*
X147979741Y-101341611D01*
X147880560Y-101295412D01*
X147765748Y-101225107D01*
X147765748Y-101345000D01*
X147323033Y-101345000D01*
X147323033Y-100461512D01*
X147765748Y-100461512D01*
X147765748Y-101029743D01*
X147820551Y-101057314D01*
X147885109Y-101079752D01*
X147952224Y-101094241D01*
X148012934Y-101098803D01*
X148111880Y-101089204D01*
X148184711Y-101063135D01*
X148238028Y-101021958D01*
X148273840Y-100967232D01*
X148298539Y-100887691D01*
X148308040Y-100775028D01*
X148297118Y-100669304D01*
X148267191Y-100586546D01*
X148220772Y-100521871D01*
X148173295Y-100482969D01*
X148115421Y-100454740D01*
X148044980Y-100436925D01*
X147958858Y-100430554D01*
X147864117Y-100437790D01*
X147765748Y-100461512D01*
X147323033Y-100461512D01*
X147323033Y-99750582D01*
X147765748Y-99750582D01*
X147765748Y-100238763D01*
G37*
G36*
X145902786Y-100553653D02*
G01*
X145942133Y-100553653D01*
X146033138Y-100540464D01*
X146137662Y-100536067D01*
X146229648Y-100538782D01*
X146304944Y-100546234D01*
X146378349Y-100559529D01*
X146461125Y-100580764D01*
X146461125Y-101345000D01*
X146903729Y-101345000D01*
X146903729Y-100196081D01*
X146461125Y-100196081D01*
X146461125Y-100365158D01*
X146359537Y-100298608D01*
X146275690Y-100254614D01*
X146206575Y-100228413D01*
X146099639Y-100203686D01*
X146007309Y-100196081D01*
X145954443Y-100197180D01*
X145902786Y-100200203D01*
X145902786Y-100553653D01*
G37*
G36*
X145247968Y-100166142D02*
G01*
X145406325Y-100181885D01*
X145634387Y-100218155D01*
X145634387Y-100495034D01*
X145593831Y-100495034D01*
X145415558Y-100445300D01*
X145292494Y-100420703D01*
X145181891Y-100412969D01*
X145060095Y-100417928D01*
X144970611Y-100430938D01*
X144906458Y-100449697D01*
X144854890Y-100480485D01*
X144824120Y-100523395D01*
X144813035Y-100582595D01*
X144813035Y-100588824D01*
X145006775Y-100600784D01*
X145190573Y-100617675D01*
X145363957Y-100645309D01*
X145495462Y-100683620D01*
X145573845Y-100719328D01*
X145637172Y-100761536D01*
X145687363Y-100810382D01*
X145723696Y-100866534D01*
X145746719Y-100934621D01*
X145754958Y-101017470D01*
X145746308Y-101094763D01*
X145721309Y-101162847D01*
X145680303Y-101223551D01*
X145622187Y-101278138D01*
X145552374Y-101322484D01*
X145475230Y-101354100D01*
X145389310Y-101373470D01*
X145292679Y-101380170D01*
X145210961Y-101376673D01*
X145139026Y-101366707D01*
X145070153Y-101350201D01*
X145003728Y-101327597D01*
X144904150Y-101277405D01*
X144815563Y-101223092D01*
X144815563Y-101345000D01*
X144376585Y-101345000D01*
X144376585Y-101045955D01*
X144815563Y-101045955D01*
X144870820Y-101079089D01*
X144935474Y-101105580D01*
X145003996Y-101122615D01*
X145070003Y-101128112D01*
X145148103Y-101125220D01*
X145192991Y-101118403D01*
X145229943Y-101105753D01*
X145260586Y-101088087D01*
X145285341Y-101066167D01*
X145297515Y-101044947D01*
X145304879Y-100986420D01*
X145295645Y-100936127D01*
X145269818Y-100898676D01*
X145228653Y-100870127D01*
X145168372Y-100847843D01*
X145107786Y-100835339D01*
X145009883Y-100822656D01*
X144815563Y-100805711D01*
X144815563Y-101045955D01*
X144376585Y-101045955D01*
X144376585Y-100561713D01*
X144388253Y-100460174D01*
X144420807Y-100378167D01*
X144472529Y-100311601D01*
X144544417Y-100257814D01*
X144628768Y-100219739D01*
X144742567Y-100189287D01*
X144893309Y-100168631D01*
X145089677Y-100160910D01*
X145247968Y-100166142D01*
G37*
G36*
X141618522Y-100866619D02*
G01*
X141627828Y-100954101D01*
X141654952Y-101033056D01*
X141699704Y-101105186D01*
X141763224Y-101171726D01*
X141847902Y-101233350D01*
X141965259Y-101292030D01*
X142105227Y-101336049D01*
X142272015Y-101364236D01*
X142470648Y-101374309D01*
X142690578Y-101365321D01*
X142867201Y-101340786D01*
X143032506Y-101302340D01*
X143183850Y-101255790D01*
X143183850Y-100887777D01*
X143132192Y-100887777D01*
X143030860Y-100950336D01*
X142921897Y-101002389D01*
X142804553Y-101044214D01*
X142682239Y-101075141D01*
X142566367Y-101093008D01*
X142455921Y-101098803D01*
X142342824Y-101092391D01*
X142276228Y-101083270D01*
X142228408Y-101070959D01*
X142178101Y-101048786D01*
X142139272Y-101022874D01*
X142113740Y-100988873D01*
X142104211Y-100937328D01*
X142116628Y-100891139D01*
X142155319Y-100850683D01*
X142214173Y-100819984D01*
X142304685Y-100794720D01*
X142522855Y-100756344D01*
X142635626Y-100735661D01*
X142738717Y-100710640D01*
X142887389Y-100660218D01*
X142995515Y-100603357D01*
X143071303Y-100540922D01*
X143126679Y-100465516D01*
X143160791Y-100377827D01*
X143172749Y-100274758D01*
X143163588Y-100192580D01*
X143136794Y-100118059D01*
X143092340Y-100049554D01*
X143028806Y-99985906D01*
X142943478Y-99926529D01*
X142826055Y-99869627D01*
X142690767Y-99827535D01*
X142534568Y-99800979D01*
X142353815Y-99791615D01*
X142174092Y-99798882D01*
X141996720Y-99820649D01*
X141826903Y-99854603D01*
X141691062Y-99893464D01*
X141691062Y-100242976D01*
X141741510Y-100242976D01*
X141861474Y-100175637D01*
X142012656Y-100117588D01*
X142120953Y-100089432D01*
X142229919Y-100072695D01*
X142340296Y-100067121D01*
X142457789Y-100074082D01*
X142515101Y-100084024D01*
X142570226Y-100100094D01*
X142614746Y-100120147D01*
X142652658Y-100148545D01*
X142678552Y-100183434D01*
X142687060Y-100222459D01*
X142680646Y-100260429D01*
X142662386Y-100290760D01*
X142631775Y-100315333D01*
X142562962Y-100342936D01*
X142422728Y-100374226D01*
X142229068Y-100408114D01*
X142029253Y-100453269D01*
X141893919Y-100499248D01*
X141792537Y-100551640D01*
X141718759Y-100609706D01*
X141664392Y-100679896D01*
X141630537Y-100764297D01*
X141618522Y-100866619D01*
G37*
G36*
X139931634Y-101345000D02*
G01*
X140376657Y-101345000D01*
X140376657Y-100773746D01*
X140385340Y-100634711D01*
X140398235Y-100570406D01*
X140414795Y-100532678D01*
X140445100Y-100499891D01*
X140486786Y-100477357D01*
X140539138Y-100464831D01*
X140618897Y-100459863D01*
X140679107Y-100463886D01*
X140741336Y-100476258D01*
X140803752Y-100496644D01*
X140875975Y-100528557D01*
X140875975Y-101345000D01*
X141318579Y-101345000D01*
X141318579Y-99750582D01*
X140875975Y-99750582D01*
X140875975Y-100319912D01*
X140756878Y-100250210D01*
X140649122Y-100201943D01*
X140535894Y-100171437D01*
X140407541Y-100160910D01*
X140296619Y-100168427D01*
X140203342Y-100189631D01*
X140124498Y-100223373D01*
X140057700Y-100269720D01*
X140005465Y-100326696D01*
X139966218Y-100397720D01*
X139940832Y-100485852D01*
X139931634Y-100594960D01*
X139931634Y-101345000D01*
G37*
G36*
X139121185Y-100166142D02*
G01*
X139279542Y-100181885D01*
X139507604Y-100218155D01*
X139507604Y-100495034D01*
X139467048Y-100495034D01*
X139288775Y-100445300D01*
X139165711Y-100420703D01*
X139055108Y-100412969D01*
X138933312Y-100417928D01*
X138843828Y-100430938D01*
X138779675Y-100449697D01*
X138728107Y-100480485D01*
X138697337Y-100523395D01*
X138686252Y-100582595D01*
X138686252Y-100588824D01*
X138879992Y-100600784D01*
X139063790Y-100617675D01*
X139237174Y-100645309D01*
X139368679Y-100683620D01*
X139447062Y-100719328D01*
X139510389Y-100761536D01*
X139560580Y-100810382D01*
X139596913Y-100866534D01*
X139619936Y-100934621D01*
X139628175Y-101017470D01*
X139619525Y-101094763D01*
X139594526Y-101162847D01*
X139553520Y-101223551D01*
X139495404Y-101278138D01*
X139425591Y-101322484D01*
X139348447Y-101354100D01*
X139262527Y-101373470D01*
X139165896Y-101380170D01*
X139084178Y-101376673D01*
X139012243Y-101366707D01*
X138943370Y-101350201D01*
X138876945Y-101327597D01*
X138777367Y-101277405D01*
X138688780Y-101223092D01*
X138688780Y-101345000D01*
X138249802Y-101345000D01*
X138249802Y-101045955D01*
X138688780Y-101045955D01*
X138744037Y-101079089D01*
X138808691Y-101105580D01*
X138877213Y-101122615D01*
X138943220Y-101128112D01*
X139021320Y-101125220D01*
X139066208Y-101118403D01*
X139103161Y-101105753D01*
X139133803Y-101088087D01*
X139158558Y-101066167D01*
X139170732Y-101044947D01*
X139178096Y-100986420D01*
X139168862Y-100936127D01*
X139143035Y-100898676D01*
X139101870Y-100870127D01*
X139041589Y-100847843D01*
X138981003Y-100835339D01*
X138883100Y-100822656D01*
X138688780Y-100805711D01*
X138688780Y-101045955D01*
X138249802Y-101045955D01*
X138249802Y-100561713D01*
X138261470Y-100460174D01*
X138294024Y-100378167D01*
X138345746Y-100311601D01*
X138417634Y-100257814D01*
X138501985Y-100219739D01*
X138615784Y-100189287D01*
X138766526Y-100168631D01*
X138962894Y-100160910D01*
X139121185Y-100166142D01*
G37*
G36*
X136840985Y-100553653D02*
G01*
X136880333Y-100553653D01*
X136971338Y-100540464D01*
X137075861Y-100536067D01*
X137167848Y-100538782D01*
X137243143Y-100546234D01*
X137316549Y-100559529D01*
X137399324Y-100580764D01*
X137399324Y-101345000D01*
X137841929Y-101345000D01*
X137841929Y-100196081D01*
X137399324Y-100196081D01*
X137399324Y-100365158D01*
X137297737Y-100298608D01*
X137213890Y-100254614D01*
X137144774Y-100228413D01*
X137037839Y-100203686D01*
X136945509Y-100196081D01*
X136892642Y-100197180D01*
X136840985Y-100200203D01*
X136840985Y-100553653D01*
G37*
G36*
X135239717Y-100528557D02*
G01*
X135239717Y-101345000D01*
X135684849Y-101345000D01*
X135684849Y-100769624D01*
X135689795Y-100626559D01*
X135699677Y-100570836D01*
X135716833Y-100530663D01*
X135744654Y-100498733D01*
X135783878Y-100476808D01*
X135833663Y-100464682D01*
X135909944Y-100459863D01*
X135973984Y-100465347D01*
X136036559Y-100481937D01*
X136147238Y-100528557D01*
X136147238Y-101345000D01*
X136589842Y-101345000D01*
X136589842Y-100196081D01*
X136147238Y-100196081D01*
X136147238Y-100319912D01*
X136032046Y-100251481D01*
X135928298Y-100202950D01*
X135819487Y-100171646D01*
X135697159Y-100160910D01*
X135607821Y-100166815D01*
X135528030Y-100183897D01*
X135456128Y-100211743D01*
X135392195Y-100250367D01*
X135337868Y-100299670D01*
X135292583Y-100361037D01*
X135158112Y-100275637D01*
X135034406Y-100214308D01*
X134949039Y-100183985D01*
X134867415Y-100166565D01*
X134788429Y-100160910D01*
X134677628Y-100168727D01*
X134586362Y-100190611D01*
X134510882Y-100225242D01*
X134448480Y-100272743D01*
X134400324Y-100330702D01*
X134364101Y-100401807D01*
X134340734Y-100488778D01*
X134332306Y-100594960D01*
X134332306Y-101345000D01*
X134777438Y-101345000D01*
X134777438Y-100769624D01*
X134781725Y-100626010D01*
X134791106Y-100570785D01*
X134808213Y-100530663D01*
X134835176Y-100498804D01*
X134874598Y-100476808D01*
X134925084Y-100464683D01*
X135002423Y-100459863D01*
X135056993Y-100463832D01*
X135110573Y-100475800D01*
X135239717Y-100528557D01*
G37*
G36*
X133520208Y-100166142D02*
G01*
X133678565Y-100181885D01*
X133906627Y-100218155D01*
X133906627Y-100495034D01*
X133866071Y-100495034D01*
X133687798Y-100445300D01*
X133564734Y-100420703D01*
X133454131Y-100412969D01*
X133332335Y-100417928D01*
X133242851Y-100430938D01*
X133178698Y-100449697D01*
X133127130Y-100480485D01*
X133096360Y-100523395D01*
X133085275Y-100582595D01*
X133085275Y-100588824D01*
X133279015Y-100600784D01*
X133462813Y-100617675D01*
X133636197Y-100645309D01*
X133767702Y-100683620D01*
X133846085Y-100719328D01*
X133909412Y-100761536D01*
X133959603Y-100810382D01*
X133995936Y-100866534D01*
X134018959Y-100934621D01*
X134027198Y-101017470D01*
X134018548Y-101094763D01*
X133993549Y-101162847D01*
X133952543Y-101223551D01*
X133894427Y-101278138D01*
X133824614Y-101322484D01*
X133747470Y-101354100D01*
X133661550Y-101373470D01*
X133564919Y-101380170D01*
X133483201Y-101376673D01*
X133411266Y-101366707D01*
X133342393Y-101350201D01*
X133275968Y-101327597D01*
X133176390Y-101277405D01*
X133087803Y-101223092D01*
X133087803Y-101345000D01*
X132648825Y-101345000D01*
X132648825Y-101045955D01*
X133087803Y-101045955D01*
X133143060Y-101079089D01*
X133207714Y-101105580D01*
X133276236Y-101122615D01*
X133342243Y-101128112D01*
X133420343Y-101125220D01*
X133465231Y-101118403D01*
X133502184Y-101105753D01*
X133532826Y-101088087D01*
X133557581Y-101066167D01*
X133569755Y-101044947D01*
X133577119Y-100986420D01*
X133567885Y-100936127D01*
X133542058Y-100898676D01*
X133500893Y-100870127D01*
X133440612Y-100847843D01*
X133380026Y-100835339D01*
X133282123Y-100822656D01*
X133087803Y-100805711D01*
X133087803Y-101045955D01*
X132648825Y-101045955D01*
X132648825Y-100561713D01*
X132660493Y-100460174D01*
X132693048Y-100378167D01*
X132744769Y-100311601D01*
X132816657Y-100257814D01*
X132901008Y-100219739D01*
X133014807Y-100189287D01*
X133165549Y-100168631D01*
X133361917Y-100160910D01*
X133520208Y-100166142D01*
G37*
D11*
X172965601Y-102083104D02*
X172656077Y-103383104D01*
X172656077Y-103383104D02*
X172408458Y-102454533D01*
X172408458Y-102454533D02*
X172160839Y-103383104D01*
X172160839Y-103383104D02*
X171851316Y-102083104D01*
X170860840Y-103321200D02*
X170984649Y-103383104D01*
X170984649Y-103383104D02*
X171232268Y-103383104D01*
X171232268Y-103383104D02*
X171356078Y-103321200D01*
X171356078Y-103321200D02*
X171417982Y-103197390D01*
X171417982Y-103197390D02*
X171417982Y-102702152D01*
X171417982Y-102702152D02*
X171356078Y-102578342D01*
X171356078Y-102578342D02*
X171232268Y-102516438D01*
X171232268Y-102516438D02*
X170984649Y-102516438D01*
X170984649Y-102516438D02*
X170860840Y-102578342D01*
X170860840Y-102578342D02*
X170798935Y-102702152D01*
X170798935Y-102702152D02*
X170798935Y-102825961D01*
X170798935Y-102825961D02*
X171417982Y-102949771D01*
X170241792Y-103383104D02*
X170241792Y-102083104D01*
X170241792Y-102578342D02*
X170117982Y-102516438D01*
X170117982Y-102516438D02*
X169870363Y-102516438D01*
X169870363Y-102516438D02*
X169746554Y-102578342D01*
X169746554Y-102578342D02*
X169684649Y-102640247D01*
X169684649Y-102640247D02*
X169622744Y-102764057D01*
X169622744Y-102764057D02*
X169622744Y-103135485D01*
X169622744Y-103135485D02*
X169684649Y-103259295D01*
X169684649Y-103259295D02*
X169746554Y-103321200D01*
X169746554Y-103321200D02*
X169870363Y-103383104D01*
X169870363Y-103383104D02*
X170117982Y-103383104D01*
X170117982Y-103383104D02*
X170241792Y-103321200D01*
X169127506Y-103321200D02*
X168941792Y-103383104D01*
X168941792Y-103383104D02*
X168632268Y-103383104D01*
X168632268Y-103383104D02*
X168508459Y-103321200D01*
X168508459Y-103321200D02*
X168446554Y-103259295D01*
X168446554Y-103259295D02*
X168384649Y-103135485D01*
X168384649Y-103135485D02*
X168384649Y-103011676D01*
X168384649Y-103011676D02*
X168446554Y-102887866D01*
X168446554Y-102887866D02*
X168508459Y-102825961D01*
X168508459Y-102825961D02*
X168632268Y-102764057D01*
X168632268Y-102764057D02*
X168879887Y-102702152D01*
X168879887Y-102702152D02*
X169003697Y-102640247D01*
X169003697Y-102640247D02*
X169065602Y-102578342D01*
X169065602Y-102578342D02*
X169127506Y-102454533D01*
X169127506Y-102454533D02*
X169127506Y-102330723D01*
X169127506Y-102330723D02*
X169065602Y-102206914D01*
X169065602Y-102206914D02*
X169003697Y-102145009D01*
X169003697Y-102145009D02*
X168879887Y-102083104D01*
X168879887Y-102083104D02*
X168570364Y-102083104D01*
X168570364Y-102083104D02*
X168384649Y-102145009D01*
X167827507Y-103383104D02*
X167827507Y-102516438D01*
X167827507Y-102083104D02*
X167889411Y-102145009D01*
X167889411Y-102145009D02*
X167827507Y-102206914D01*
X167827507Y-102206914D02*
X167765602Y-102145009D01*
X167765602Y-102145009D02*
X167827507Y-102083104D01*
X167827507Y-102083104D02*
X167827507Y-102206914D01*
X167394173Y-102516438D02*
X166898935Y-102516438D01*
X167208459Y-102083104D02*
X167208459Y-103197390D01*
X167208459Y-103197390D02*
X167146554Y-103321200D01*
X167146554Y-103321200D02*
X167022744Y-103383104D01*
X167022744Y-103383104D02*
X166898935Y-103383104D01*
X165970364Y-103321200D02*
X166094173Y-103383104D01*
X166094173Y-103383104D02*
X166341792Y-103383104D01*
X166341792Y-103383104D02*
X166465602Y-103321200D01*
X166465602Y-103321200D02*
X166527506Y-103197390D01*
X166527506Y-103197390D02*
X166527506Y-102702152D01*
X166527506Y-102702152D02*
X166465602Y-102578342D01*
X166465602Y-102578342D02*
X166341792Y-102516438D01*
X166341792Y-102516438D02*
X166094173Y-102516438D01*
X166094173Y-102516438D02*
X165970364Y-102578342D01*
X165970364Y-102578342D02*
X165908459Y-102702152D01*
X165908459Y-102702152D02*
X165908459Y-102825961D01*
X165908459Y-102825961D02*
X166527506Y-102949771D01*
X165351316Y-103259295D02*
X165289411Y-103321200D01*
X165289411Y-103321200D02*
X165351316Y-103383104D01*
X165351316Y-103383104D02*
X165413220Y-103321200D01*
X165413220Y-103321200D02*
X165351316Y-103259295D01*
X165351316Y-103259295D02*
X165351316Y-103383104D01*
X165351316Y-102578342D02*
X165289411Y-102640247D01*
X165289411Y-102640247D02*
X165351316Y-102702152D01*
X165351316Y-102702152D02*
X165413220Y-102640247D01*
X165413220Y-102640247D02*
X165351316Y-102578342D01*
X165351316Y-102578342D02*
X165351316Y-102702152D01*
X164732268Y-102887866D02*
X163741792Y-102887866D01*
X162132268Y-103383104D02*
X162132268Y-102516438D01*
X162132268Y-102764057D02*
X162070363Y-102640247D01*
X162070363Y-102640247D02*
X162008458Y-102578342D01*
X162008458Y-102578342D02*
X161884649Y-102516438D01*
X161884649Y-102516438D02*
X161760839Y-102516438D01*
X160770363Y-102516438D02*
X160770363Y-103383104D01*
X161327506Y-102516438D02*
X161327506Y-103197390D01*
X161327506Y-103197390D02*
X161265601Y-103321200D01*
X161265601Y-103321200D02*
X161141791Y-103383104D01*
X161141791Y-103383104D02*
X160956077Y-103383104D01*
X160956077Y-103383104D02*
X160832268Y-103321200D01*
X160832268Y-103321200D02*
X160770363Y-103259295D01*
X159594173Y-103383104D02*
X159594173Y-102083104D01*
X159594173Y-103321200D02*
X159717982Y-103383104D01*
X159717982Y-103383104D02*
X159965601Y-103383104D01*
X159965601Y-103383104D02*
X160089411Y-103321200D01*
X160089411Y-103321200D02*
X160151316Y-103259295D01*
X160151316Y-103259295D02*
X160213220Y-103135485D01*
X160213220Y-103135485D02*
X160213220Y-102764057D01*
X160213220Y-102764057D02*
X160151316Y-102640247D01*
X160151316Y-102640247D02*
X160089411Y-102578342D01*
X160089411Y-102578342D02*
X159965601Y-102516438D01*
X159965601Y-102516438D02*
X159717982Y-102516438D01*
X159717982Y-102516438D02*
X159594173Y-102578342D01*
X158975126Y-103383104D02*
X158975126Y-102516438D01*
X158975126Y-102764057D02*
X158913221Y-102640247D01*
X158913221Y-102640247D02*
X158851316Y-102578342D01*
X158851316Y-102578342D02*
X158727507Y-102516438D01*
X158727507Y-102516438D02*
X158603697Y-102516438D01*
X157613221Y-103383104D02*
X157613221Y-102702152D01*
X157613221Y-102702152D02*
X157675126Y-102578342D01*
X157675126Y-102578342D02*
X157798935Y-102516438D01*
X157798935Y-102516438D02*
X158046554Y-102516438D01*
X158046554Y-102516438D02*
X158170364Y-102578342D01*
X157613221Y-103321200D02*
X157737030Y-103383104D01*
X157737030Y-103383104D02*
X158046554Y-103383104D01*
X158046554Y-103383104D02*
X158170364Y-103321200D01*
X158170364Y-103321200D02*
X158232268Y-103197390D01*
X158232268Y-103197390D02*
X158232268Y-103073580D01*
X158232268Y-103073580D02*
X158170364Y-102949771D01*
X158170364Y-102949771D02*
X158046554Y-102887866D01*
X158046554Y-102887866D02*
X157737030Y-102887866D01*
X157737030Y-102887866D02*
X157613221Y-102825961D01*
X157056078Y-103321200D02*
X156932269Y-103383104D01*
X156932269Y-103383104D02*
X156684650Y-103383104D01*
X156684650Y-103383104D02*
X156560840Y-103321200D01*
X156560840Y-103321200D02*
X156498936Y-103197390D01*
X156498936Y-103197390D02*
X156498936Y-103135485D01*
X156498936Y-103135485D02*
X156560840Y-103011676D01*
X156560840Y-103011676D02*
X156684650Y-102949771D01*
X156684650Y-102949771D02*
X156870364Y-102949771D01*
X156870364Y-102949771D02*
X156994174Y-102887866D01*
X156994174Y-102887866D02*
X157056078Y-102764057D01*
X157056078Y-102764057D02*
X157056078Y-102702152D01*
X157056078Y-102702152D02*
X156994174Y-102578342D01*
X156994174Y-102578342D02*
X156870364Y-102516438D01*
X156870364Y-102516438D02*
X156684650Y-102516438D01*
X156684650Y-102516438D02*
X156560840Y-102578342D01*
X155941793Y-103383104D02*
X155941793Y-102083104D01*
X155384650Y-103383104D02*
X155384650Y-102702152D01*
X155384650Y-102702152D02*
X155446555Y-102578342D01*
X155446555Y-102578342D02*
X155570364Y-102516438D01*
X155570364Y-102516438D02*
X155756078Y-102516438D01*
X155756078Y-102516438D02*
X155879888Y-102578342D01*
X155879888Y-102578342D02*
X155941793Y-102640247D01*
X154208460Y-103383104D02*
X154208460Y-102702152D01*
X154208460Y-102702152D02*
X154270365Y-102578342D01*
X154270365Y-102578342D02*
X154394174Y-102516438D01*
X154394174Y-102516438D02*
X154641793Y-102516438D01*
X154641793Y-102516438D02*
X154765603Y-102578342D01*
X154208460Y-103321200D02*
X154332269Y-103383104D01*
X154332269Y-103383104D02*
X154641793Y-103383104D01*
X154641793Y-103383104D02*
X154765603Y-103321200D01*
X154765603Y-103321200D02*
X154827507Y-103197390D01*
X154827507Y-103197390D02*
X154827507Y-103073580D01*
X154827507Y-103073580D02*
X154765603Y-102949771D01*
X154765603Y-102949771D02*
X154641793Y-102887866D01*
X154641793Y-102887866D02*
X154332269Y-102887866D01*
X154332269Y-102887866D02*
X154208460Y-102825961D01*
X153589413Y-103383104D02*
X153589413Y-102516438D01*
X153589413Y-102764057D02*
X153527508Y-102640247D01*
X153527508Y-102640247D02*
X153465603Y-102578342D01*
X153465603Y-102578342D02*
X153341794Y-102516438D01*
X153341794Y-102516438D02*
X153217984Y-102516438D01*
X152784651Y-103383104D02*
X152784651Y-102516438D01*
X152784651Y-102640247D02*
X152722746Y-102578342D01*
X152722746Y-102578342D02*
X152598936Y-102516438D01*
X152598936Y-102516438D02*
X152413222Y-102516438D01*
X152413222Y-102516438D02*
X152289413Y-102578342D01*
X152289413Y-102578342D02*
X152227508Y-102702152D01*
X152227508Y-102702152D02*
X152227508Y-103383104D01*
X152227508Y-102702152D02*
X152165603Y-102578342D01*
X152165603Y-102578342D02*
X152041794Y-102516438D01*
X152041794Y-102516438D02*
X151856079Y-102516438D01*
X151856079Y-102516438D02*
X151732270Y-102578342D01*
X151732270Y-102578342D02*
X151670365Y-102702152D01*
X151670365Y-102702152D02*
X151670365Y-103383104D01*
X150494175Y-103383104D02*
X150494175Y-102702152D01*
X150494175Y-102702152D02*
X150556080Y-102578342D01*
X150556080Y-102578342D02*
X150679889Y-102516438D01*
X150679889Y-102516438D02*
X150927508Y-102516438D01*
X150927508Y-102516438D02*
X151051318Y-102578342D01*
X150494175Y-103321200D02*
X150617984Y-103383104D01*
X150617984Y-103383104D02*
X150927508Y-103383104D01*
X150927508Y-103383104D02*
X151051318Y-103321200D01*
X151051318Y-103321200D02*
X151113222Y-103197390D01*
X151113222Y-103197390D02*
X151113222Y-103073580D01*
X151113222Y-103073580D02*
X151051318Y-102949771D01*
X151051318Y-102949771D02*
X150927508Y-102887866D01*
X150927508Y-102887866D02*
X150617984Y-102887866D01*
X150617984Y-102887866D02*
X150494175Y-102825961D01*
X149937032Y-102206914D02*
X149875128Y-102145009D01*
X149875128Y-102145009D02*
X149751318Y-102083104D01*
X149751318Y-102083104D02*
X149441794Y-102083104D01*
X149441794Y-102083104D02*
X149317985Y-102145009D01*
X149317985Y-102145009D02*
X149256080Y-102206914D01*
X149256080Y-102206914D02*
X149194175Y-102330723D01*
X149194175Y-102330723D02*
X149194175Y-102454533D01*
X149194175Y-102454533D02*
X149256080Y-102640247D01*
X149256080Y-102640247D02*
X149998937Y-103383104D01*
X149998937Y-103383104D02*
X149194175Y-103383104D01*
X148017985Y-102083104D02*
X148637033Y-102083104D01*
X148637033Y-102083104D02*
X148698937Y-102702152D01*
X148698937Y-102702152D02*
X148637033Y-102640247D01*
X148637033Y-102640247D02*
X148513223Y-102578342D01*
X148513223Y-102578342D02*
X148203699Y-102578342D01*
X148203699Y-102578342D02*
X148079890Y-102640247D01*
X148079890Y-102640247D02*
X148017985Y-102702152D01*
X148017985Y-102702152D02*
X147956080Y-102825961D01*
X147956080Y-102825961D02*
X147956080Y-103135485D01*
X147956080Y-103135485D02*
X148017985Y-103259295D01*
X148017985Y-103259295D02*
X148079890Y-103321200D01*
X148079890Y-103321200D02*
X148203699Y-103383104D01*
X148203699Y-103383104D02*
X148513223Y-103383104D01*
X148513223Y-103383104D02*
X148637033Y-103321200D01*
X148637033Y-103321200D02*
X148698937Y-103259295D01*
X147398938Y-103259295D02*
X147337033Y-103321200D01*
X147337033Y-103321200D02*
X147398938Y-103383104D01*
X147398938Y-103383104D02*
X147460842Y-103321200D01*
X147460842Y-103321200D02*
X147398938Y-103259295D01*
X147398938Y-103259295D02*
X147398938Y-103383104D01*
X146222747Y-103321200D02*
X146346556Y-103383104D01*
X146346556Y-103383104D02*
X146594175Y-103383104D01*
X146594175Y-103383104D02*
X146717985Y-103321200D01*
X146717985Y-103321200D02*
X146779890Y-103259295D01*
X146779890Y-103259295D02*
X146841794Y-103135485D01*
X146841794Y-103135485D02*
X146841794Y-102764057D01*
X146841794Y-102764057D02*
X146779890Y-102640247D01*
X146779890Y-102640247D02*
X146717985Y-102578342D01*
X146717985Y-102578342D02*
X146594175Y-102516438D01*
X146594175Y-102516438D02*
X146346556Y-102516438D01*
X146346556Y-102516438D02*
X146222747Y-102578342D01*
X145479889Y-103383104D02*
X145603699Y-103321200D01*
X145603699Y-103321200D02*
X145665604Y-103259295D01*
X145665604Y-103259295D02*
X145727508Y-103135485D01*
X145727508Y-103135485D02*
X145727508Y-102764057D01*
X145727508Y-102764057D02*
X145665604Y-102640247D01*
X145665604Y-102640247D02*
X145603699Y-102578342D01*
X145603699Y-102578342D02*
X145479889Y-102516438D01*
X145479889Y-102516438D02*
X145294175Y-102516438D01*
X145294175Y-102516438D02*
X145170366Y-102578342D01*
X145170366Y-102578342D02*
X145108461Y-102640247D01*
X145108461Y-102640247D02*
X145046556Y-102764057D01*
X145046556Y-102764057D02*
X145046556Y-103135485D01*
X145046556Y-103135485D02*
X145108461Y-103259295D01*
X145108461Y-103259295D02*
X145170366Y-103321200D01*
X145170366Y-103321200D02*
X145294175Y-103383104D01*
X145294175Y-103383104D02*
X145479889Y-103383104D01*
X144489414Y-103383104D02*
X144489414Y-102516438D01*
X144489414Y-102640247D02*
X144427509Y-102578342D01*
X144427509Y-102578342D02*
X144303699Y-102516438D01*
X144303699Y-102516438D02*
X144117985Y-102516438D01*
X144117985Y-102516438D02*
X143994176Y-102578342D01*
X143994176Y-102578342D02*
X143932271Y-102702152D01*
X143932271Y-102702152D02*
X143932271Y-103383104D01*
X143932271Y-102702152D02*
X143870366Y-102578342D01*
X143870366Y-102578342D02*
X143746557Y-102516438D01*
X143746557Y-102516438D02*
X143560842Y-102516438D01*
X143560842Y-102516438D02*
X143437033Y-102578342D01*
X143437033Y-102578342D02*
X143375128Y-102702152D01*
X143375128Y-102702152D02*
X143375128Y-103383104D01*
X161870839Y-67764295D02*
X161870839Y-66964295D01*
X161870839Y-66964295D02*
X161680363Y-66964295D01*
X161680363Y-66964295D02*
X161566077Y-67002390D01*
X161566077Y-67002390D02*
X161489887Y-67078580D01*
X161489887Y-67078580D02*
X161451792Y-67154771D01*
X161451792Y-67154771D02*
X161413696Y-67307152D01*
X161413696Y-67307152D02*
X161413696Y-67421438D01*
X161413696Y-67421438D02*
X161451792Y-67573819D01*
X161451792Y-67573819D02*
X161489887Y-67650009D01*
X161489887Y-67650009D02*
X161566077Y-67726200D01*
X161566077Y-67726200D02*
X161680363Y-67764295D01*
X161680363Y-67764295D02*
X161870839Y-67764295D01*
X160918458Y-66964295D02*
X160842268Y-66964295D01*
X160842268Y-66964295D02*
X160766077Y-67002390D01*
X160766077Y-67002390D02*
X160727982Y-67040485D01*
X160727982Y-67040485D02*
X160689887Y-67116676D01*
X160689887Y-67116676D02*
X160651792Y-67269057D01*
X160651792Y-67269057D02*
X160651792Y-67459533D01*
X160651792Y-67459533D02*
X160689887Y-67611914D01*
X160689887Y-67611914D02*
X160727982Y-67688104D01*
X160727982Y-67688104D02*
X160766077Y-67726200D01*
X160766077Y-67726200D02*
X160842268Y-67764295D01*
X160842268Y-67764295D02*
X160918458Y-67764295D01*
X160918458Y-67764295D02*
X160994649Y-67726200D01*
X160994649Y-67726200D02*
X161032744Y-67688104D01*
X161032744Y-67688104D02*
X161070839Y-67611914D01*
X161070839Y-67611914D02*
X161108935Y-67459533D01*
X161108935Y-67459533D02*
X161108935Y-67269057D01*
X161108935Y-67269057D02*
X161070839Y-67116676D01*
X161070839Y-67116676D02*
X161032744Y-67040485D01*
X161032744Y-67040485D02*
X160994649Y-67002390D01*
X160994649Y-67002390D02*
X160918458Y-66964295D01*
X159318458Y-67764295D02*
X159699410Y-67764295D01*
X159699410Y-67764295D02*
X159699410Y-66964295D01*
X158747029Y-67726200D02*
X158823220Y-67764295D01*
X158823220Y-67764295D02*
X158975601Y-67764295D01*
X158975601Y-67764295D02*
X159051791Y-67726200D01*
X159051791Y-67726200D02*
X159089887Y-67650009D01*
X159089887Y-67650009D02*
X159089887Y-67345247D01*
X159089887Y-67345247D02*
X159051791Y-67269057D01*
X159051791Y-67269057D02*
X158975601Y-67230961D01*
X158975601Y-67230961D02*
X158823220Y-67230961D01*
X158823220Y-67230961D02*
X158747029Y-67269057D01*
X158747029Y-67269057D02*
X158708934Y-67345247D01*
X158708934Y-67345247D02*
X158708934Y-67421438D01*
X158708934Y-67421438D02*
X159089887Y-67497628D01*
X158480363Y-67230961D02*
X158175601Y-67230961D01*
X158366077Y-67764295D02*
X158366077Y-67078580D01*
X158366077Y-67078580D02*
X158327982Y-67002390D01*
X158327982Y-67002390D02*
X158251792Y-66964295D01*
X158251792Y-66964295D02*
X158175601Y-66964295D01*
X158023220Y-67230961D02*
X157718458Y-67230961D01*
X157908934Y-66964295D02*
X157908934Y-67650009D01*
X157908934Y-67650009D02*
X157870839Y-67726200D01*
X157870839Y-67726200D02*
X157794649Y-67764295D01*
X157794649Y-67764295D02*
X157718458Y-67764295D01*
X172160839Y-105545009D02*
X172284649Y-105483104D01*
X172284649Y-105483104D02*
X172470363Y-105483104D01*
X172470363Y-105483104D02*
X172656077Y-105545009D01*
X172656077Y-105545009D02*
X172779887Y-105668819D01*
X172779887Y-105668819D02*
X172841792Y-105792628D01*
X172841792Y-105792628D02*
X172903696Y-106040247D01*
X172903696Y-106040247D02*
X172903696Y-106225961D01*
X172903696Y-106225961D02*
X172841792Y-106473580D01*
X172841792Y-106473580D02*
X172779887Y-106597390D01*
X172779887Y-106597390D02*
X172656077Y-106721200D01*
X172656077Y-106721200D02*
X172470363Y-106783104D01*
X172470363Y-106783104D02*
X172346554Y-106783104D01*
X172346554Y-106783104D02*
X172160839Y-106721200D01*
X172160839Y-106721200D02*
X172098935Y-106659295D01*
X172098935Y-106659295D02*
X172098935Y-106225961D01*
X172098935Y-106225961D02*
X172346554Y-106225961D01*
X171541792Y-106783104D02*
X171541792Y-105916438D01*
X171541792Y-105483104D02*
X171603696Y-105545009D01*
X171603696Y-105545009D02*
X171541792Y-105606914D01*
X171541792Y-105606914D02*
X171479887Y-105545009D01*
X171479887Y-105545009D02*
X171541792Y-105483104D01*
X171541792Y-105483104D02*
X171541792Y-105606914D01*
X171108458Y-105916438D02*
X170613220Y-105916438D01*
X170922744Y-105483104D02*
X170922744Y-106597390D01*
X170922744Y-106597390D02*
X170860839Y-106721200D01*
X170860839Y-106721200D02*
X170737029Y-106783104D01*
X170737029Y-106783104D02*
X170613220Y-106783104D01*
X170179887Y-106783104D02*
X170179887Y-105483104D01*
X169622744Y-106783104D02*
X169622744Y-106102152D01*
X169622744Y-106102152D02*
X169684649Y-105978342D01*
X169684649Y-105978342D02*
X169808458Y-105916438D01*
X169808458Y-105916438D02*
X169994172Y-105916438D01*
X169994172Y-105916438D02*
X170117982Y-105978342D01*
X170117982Y-105978342D02*
X170179887Y-106040247D01*
X168446554Y-105916438D02*
X168446554Y-106783104D01*
X169003697Y-105916438D02*
X169003697Y-106597390D01*
X169003697Y-106597390D02*
X168941792Y-106721200D01*
X168941792Y-106721200D02*
X168817982Y-106783104D01*
X168817982Y-106783104D02*
X168632268Y-106783104D01*
X168632268Y-106783104D02*
X168508459Y-106721200D01*
X168508459Y-106721200D02*
X168446554Y-106659295D01*
X167827507Y-106783104D02*
X167827507Y-105483104D01*
X167827507Y-105978342D02*
X167703697Y-105916438D01*
X167703697Y-105916438D02*
X167456078Y-105916438D01*
X167456078Y-105916438D02*
X167332269Y-105978342D01*
X167332269Y-105978342D02*
X167270364Y-106040247D01*
X167270364Y-106040247D02*
X167208459Y-106164057D01*
X167208459Y-106164057D02*
X167208459Y-106535485D01*
X167208459Y-106535485D02*
X167270364Y-106659295D01*
X167270364Y-106659295D02*
X167332269Y-106721200D01*
X167332269Y-106721200D02*
X167456078Y-106783104D01*
X167456078Y-106783104D02*
X167703697Y-106783104D01*
X167703697Y-106783104D02*
X167827507Y-106721200D01*
X166651317Y-106659295D02*
X166589412Y-106721200D01*
X166589412Y-106721200D02*
X166651317Y-106783104D01*
X166651317Y-106783104D02*
X166713221Y-106721200D01*
X166713221Y-106721200D02*
X166651317Y-106659295D01*
X166651317Y-106659295D02*
X166651317Y-106783104D01*
X166651317Y-105978342D02*
X166589412Y-106040247D01*
X166589412Y-106040247D02*
X166651317Y-106102152D01*
X166651317Y-106102152D02*
X166713221Y-106040247D01*
X166713221Y-106040247D02*
X166651317Y-105978342D01*
X166651317Y-105978342D02*
X166651317Y-106102152D01*
X166032269Y-106287866D02*
X165041793Y-106287866D01*
X163432269Y-106783104D02*
X163432269Y-105483104D01*
X162875126Y-106783104D02*
X162875126Y-106102152D01*
X162875126Y-106102152D02*
X162937031Y-105978342D01*
X162937031Y-105978342D02*
X163060840Y-105916438D01*
X163060840Y-105916438D02*
X163246554Y-105916438D01*
X163246554Y-105916438D02*
X163370364Y-105978342D01*
X163370364Y-105978342D02*
X163432269Y-106040247D01*
X162441793Y-105916438D02*
X161946555Y-105916438D01*
X162256079Y-105483104D02*
X162256079Y-106597390D01*
X162256079Y-106597390D02*
X162194174Y-106721200D01*
X162194174Y-106721200D02*
X162070364Y-106783104D01*
X162070364Y-106783104D02*
X161946555Y-106783104D01*
X161698936Y-105916438D02*
X161203698Y-105916438D01*
X161513222Y-105483104D02*
X161513222Y-106597390D01*
X161513222Y-106597390D02*
X161451317Y-106721200D01*
X161451317Y-106721200D02*
X161327507Y-106783104D01*
X161327507Y-106783104D02*
X161203698Y-106783104D01*
X160770365Y-105916438D02*
X160770365Y-107216438D01*
X160770365Y-105978342D02*
X160646555Y-105916438D01*
X160646555Y-105916438D02*
X160398936Y-105916438D01*
X160398936Y-105916438D02*
X160275127Y-105978342D01*
X160275127Y-105978342D02*
X160213222Y-106040247D01*
X160213222Y-106040247D02*
X160151317Y-106164057D01*
X160151317Y-106164057D02*
X160151317Y-106535485D01*
X160151317Y-106535485D02*
X160213222Y-106659295D01*
X160213222Y-106659295D02*
X160275127Y-106721200D01*
X160275127Y-106721200D02*
X160398936Y-106783104D01*
X160398936Y-106783104D02*
X160646555Y-106783104D01*
X160646555Y-106783104D02*
X160770365Y-106721200D01*
X159656079Y-106721200D02*
X159532270Y-106783104D01*
X159532270Y-106783104D02*
X159284651Y-106783104D01*
X159284651Y-106783104D02*
X159160841Y-106721200D01*
X159160841Y-106721200D02*
X159098937Y-106597390D01*
X159098937Y-106597390D02*
X159098937Y-106535485D01*
X159098937Y-106535485D02*
X159160841Y-106411676D01*
X159160841Y-106411676D02*
X159284651Y-106349771D01*
X159284651Y-106349771D02*
X159470365Y-106349771D01*
X159470365Y-106349771D02*
X159594175Y-106287866D01*
X159594175Y-106287866D02*
X159656079Y-106164057D01*
X159656079Y-106164057D02*
X159656079Y-106102152D01*
X159656079Y-106102152D02*
X159594175Y-105978342D01*
X159594175Y-105978342D02*
X159470365Y-105916438D01*
X159470365Y-105916438D02*
X159284651Y-105916438D01*
X159284651Y-105916438D02*
X159160841Y-105978342D01*
X158541794Y-106659295D02*
X158479889Y-106721200D01*
X158479889Y-106721200D02*
X158541794Y-106783104D01*
X158541794Y-106783104D02*
X158603698Y-106721200D01*
X158603698Y-106721200D02*
X158541794Y-106659295D01*
X158541794Y-106659295D02*
X158541794Y-106783104D01*
X158541794Y-105978342D02*
X158479889Y-106040247D01*
X158479889Y-106040247D02*
X158541794Y-106102152D01*
X158541794Y-106102152D02*
X158603698Y-106040247D01*
X158603698Y-106040247D02*
X158541794Y-105978342D01*
X158541794Y-105978342D02*
X158541794Y-106102152D01*
X156994174Y-105421200D02*
X158108460Y-107092628D01*
X155632269Y-105421200D02*
X156746555Y-107092628D01*
X154641793Y-105916438D02*
X154641793Y-106968819D01*
X154641793Y-106968819D02*
X154703698Y-107092628D01*
X154703698Y-107092628D02*
X154765602Y-107154533D01*
X154765602Y-107154533D02*
X154889412Y-107216438D01*
X154889412Y-107216438D02*
X155075126Y-107216438D01*
X155075126Y-107216438D02*
X155198936Y-107154533D01*
X154641793Y-106721200D02*
X154765602Y-106783104D01*
X154765602Y-106783104D02*
X155013221Y-106783104D01*
X155013221Y-106783104D02*
X155137031Y-106721200D01*
X155137031Y-106721200D02*
X155198936Y-106659295D01*
X155198936Y-106659295D02*
X155260840Y-106535485D01*
X155260840Y-106535485D02*
X155260840Y-106164057D01*
X155260840Y-106164057D02*
X155198936Y-106040247D01*
X155198936Y-106040247D02*
X155137031Y-105978342D01*
X155137031Y-105978342D02*
X155013221Y-105916438D01*
X155013221Y-105916438D02*
X154765602Y-105916438D01*
X154765602Y-105916438D02*
X154641793Y-105978342D01*
X154022746Y-106783104D02*
X154022746Y-105916438D01*
X154022746Y-105483104D02*
X154084650Y-105545009D01*
X154084650Y-105545009D02*
X154022746Y-105606914D01*
X154022746Y-105606914D02*
X153960841Y-105545009D01*
X153960841Y-105545009D02*
X154022746Y-105483104D01*
X154022746Y-105483104D02*
X154022746Y-105606914D01*
X153589412Y-105916438D02*
X153094174Y-105916438D01*
X153403698Y-105483104D02*
X153403698Y-106597390D01*
X153403698Y-106597390D02*
X153341793Y-106721200D01*
X153341793Y-106721200D02*
X153217983Y-106783104D01*
X153217983Y-106783104D02*
X153094174Y-106783104D01*
X152660841Y-106783104D02*
X152660841Y-105483104D01*
X152103698Y-106783104D02*
X152103698Y-106102152D01*
X152103698Y-106102152D02*
X152165603Y-105978342D01*
X152165603Y-105978342D02*
X152289412Y-105916438D01*
X152289412Y-105916438D02*
X152475126Y-105916438D01*
X152475126Y-105916438D02*
X152598936Y-105978342D01*
X152598936Y-105978342D02*
X152660841Y-106040247D01*
X150927508Y-105916438D02*
X150927508Y-106783104D01*
X151484651Y-105916438D02*
X151484651Y-106597390D01*
X151484651Y-106597390D02*
X151422746Y-106721200D01*
X151422746Y-106721200D02*
X151298936Y-106783104D01*
X151298936Y-106783104D02*
X151113222Y-106783104D01*
X151113222Y-106783104D02*
X150989413Y-106721200D01*
X150989413Y-106721200D02*
X150927508Y-106659295D01*
X150308461Y-106783104D02*
X150308461Y-105483104D01*
X150308461Y-105978342D02*
X150184651Y-105916438D01*
X150184651Y-105916438D02*
X149937032Y-105916438D01*
X149937032Y-105916438D02*
X149813223Y-105978342D01*
X149813223Y-105978342D02*
X149751318Y-106040247D01*
X149751318Y-106040247D02*
X149689413Y-106164057D01*
X149689413Y-106164057D02*
X149689413Y-106535485D01*
X149689413Y-106535485D02*
X149751318Y-106659295D01*
X149751318Y-106659295D02*
X149813223Y-106721200D01*
X149813223Y-106721200D02*
X149937032Y-106783104D01*
X149937032Y-106783104D02*
X150184651Y-106783104D01*
X150184651Y-106783104D02*
X150308461Y-106721200D01*
X149132271Y-106659295D02*
X149070366Y-106721200D01*
X149070366Y-106721200D02*
X149132271Y-106783104D01*
X149132271Y-106783104D02*
X149194175Y-106721200D01*
X149194175Y-106721200D02*
X149132271Y-106659295D01*
X149132271Y-106659295D02*
X149132271Y-106783104D01*
X147956080Y-106721200D02*
X148079889Y-106783104D01*
X148079889Y-106783104D02*
X148327508Y-106783104D01*
X148327508Y-106783104D02*
X148451318Y-106721200D01*
X148451318Y-106721200D02*
X148513223Y-106659295D01*
X148513223Y-106659295D02*
X148575127Y-106535485D01*
X148575127Y-106535485D02*
X148575127Y-106164057D01*
X148575127Y-106164057D02*
X148513223Y-106040247D01*
X148513223Y-106040247D02*
X148451318Y-105978342D01*
X148451318Y-105978342D02*
X148327508Y-105916438D01*
X148327508Y-105916438D02*
X148079889Y-105916438D01*
X148079889Y-105916438D02*
X147956080Y-105978342D01*
X147213222Y-106783104D02*
X147337032Y-106721200D01*
X147337032Y-106721200D02*
X147398937Y-106659295D01*
X147398937Y-106659295D02*
X147460841Y-106535485D01*
X147460841Y-106535485D02*
X147460841Y-106164057D01*
X147460841Y-106164057D02*
X147398937Y-106040247D01*
X147398937Y-106040247D02*
X147337032Y-105978342D01*
X147337032Y-105978342D02*
X147213222Y-105916438D01*
X147213222Y-105916438D02*
X147027508Y-105916438D01*
X147027508Y-105916438D02*
X146903699Y-105978342D01*
X146903699Y-105978342D02*
X146841794Y-106040247D01*
X146841794Y-106040247D02*
X146779889Y-106164057D01*
X146779889Y-106164057D02*
X146779889Y-106535485D01*
X146779889Y-106535485D02*
X146841794Y-106659295D01*
X146841794Y-106659295D02*
X146903699Y-106721200D01*
X146903699Y-106721200D02*
X147027508Y-106783104D01*
X147027508Y-106783104D02*
X147213222Y-106783104D01*
X146222747Y-106783104D02*
X146222747Y-105916438D01*
X146222747Y-106040247D02*
X146160842Y-105978342D01*
X146160842Y-105978342D02*
X146037032Y-105916438D01*
X146037032Y-105916438D02*
X145851318Y-105916438D01*
X145851318Y-105916438D02*
X145727509Y-105978342D01*
X145727509Y-105978342D02*
X145665604Y-106102152D01*
X145665604Y-106102152D02*
X145665604Y-106783104D01*
X145665604Y-106102152D02*
X145603699Y-105978342D01*
X145603699Y-105978342D02*
X145479890Y-105916438D01*
X145479890Y-105916438D02*
X145294175Y-105916438D01*
X145294175Y-105916438D02*
X145170366Y-105978342D01*
X145170366Y-105978342D02*
X145108461Y-106102152D01*
X145108461Y-106102152D02*
X145108461Y-106783104D01*
X143560842Y-105421200D02*
X144675128Y-107092628D01*
X142384652Y-106783104D02*
X142817985Y-106164057D01*
X143127509Y-106783104D02*
X143127509Y-105483104D01*
X143127509Y-105483104D02*
X142632271Y-105483104D01*
X142632271Y-105483104D02*
X142508461Y-105545009D01*
X142508461Y-105545009D02*
X142446556Y-105606914D01*
X142446556Y-105606914D02*
X142384652Y-105730723D01*
X142384652Y-105730723D02*
X142384652Y-105916438D01*
X142384652Y-105916438D02*
X142446556Y-106040247D01*
X142446556Y-106040247D02*
X142508461Y-106102152D01*
X142508461Y-106102152D02*
X142632271Y-106164057D01*
X142632271Y-106164057D02*
X143127509Y-106164057D01*
X141270366Y-105916438D02*
X141270366Y-106783104D01*
X141827509Y-105916438D02*
X141827509Y-106597390D01*
X141827509Y-106597390D02*
X141765604Y-106721200D01*
X141765604Y-106721200D02*
X141641794Y-106783104D01*
X141641794Y-106783104D02*
X141456080Y-106783104D01*
X141456080Y-106783104D02*
X141332271Y-106721200D01*
X141332271Y-106721200D02*
X141270366Y-106659295D01*
X140094176Y-106783104D02*
X140094176Y-105483104D01*
X140094176Y-106721200D02*
X140217985Y-106783104D01*
X140217985Y-106783104D02*
X140465604Y-106783104D01*
X140465604Y-106783104D02*
X140589414Y-106721200D01*
X140589414Y-106721200D02*
X140651319Y-106659295D01*
X140651319Y-106659295D02*
X140713223Y-106535485D01*
X140713223Y-106535485D02*
X140713223Y-106164057D01*
X140713223Y-106164057D02*
X140651319Y-106040247D01*
X140651319Y-106040247D02*
X140589414Y-105978342D01*
X140589414Y-105978342D02*
X140465604Y-105916438D01*
X140465604Y-105916438D02*
X140217985Y-105916438D01*
X140217985Y-105916438D02*
X140094176Y-105978342D01*
X139475129Y-106783104D02*
X139475129Y-105916438D01*
X139475129Y-105483104D02*
X139537033Y-105545009D01*
X139537033Y-105545009D02*
X139475129Y-105606914D01*
X139475129Y-105606914D02*
X139413224Y-105545009D01*
X139413224Y-105545009D02*
X139475129Y-105483104D01*
X139475129Y-105483104D02*
X139475129Y-105606914D01*
X138856081Y-106783104D02*
X138856081Y-105916438D01*
X138856081Y-105483104D02*
X138917985Y-105545009D01*
X138917985Y-105545009D02*
X138856081Y-105606914D01*
X138856081Y-105606914D02*
X138794176Y-105545009D01*
X138794176Y-105545009D02*
X138856081Y-105483104D01*
X138856081Y-105483104D02*
X138856081Y-105606914D01*
X138237033Y-106287866D02*
X137246557Y-106287866D01*
X136689413Y-105606914D02*
X136627509Y-105545009D01*
X136627509Y-105545009D02*
X136503699Y-105483104D01*
X136503699Y-105483104D02*
X136194175Y-105483104D01*
X136194175Y-105483104D02*
X136070366Y-105545009D01*
X136070366Y-105545009D02*
X136008461Y-105606914D01*
X136008461Y-105606914D02*
X135946556Y-105730723D01*
X135946556Y-105730723D02*
X135946556Y-105854533D01*
X135946556Y-105854533D02*
X136008461Y-106040247D01*
X136008461Y-106040247D02*
X136751318Y-106783104D01*
X136751318Y-106783104D02*
X135946556Y-106783104D01*
X134770366Y-105483104D02*
X135389414Y-105483104D01*
X135389414Y-105483104D02*
X135451318Y-106102152D01*
X135451318Y-106102152D02*
X135389414Y-106040247D01*
X135389414Y-106040247D02*
X135265604Y-105978342D01*
X135265604Y-105978342D02*
X134956080Y-105978342D01*
X134956080Y-105978342D02*
X134832271Y-106040247D01*
X134832271Y-106040247D02*
X134770366Y-106102152D01*
X134770366Y-106102152D02*
X134708461Y-106225961D01*
X134708461Y-106225961D02*
X134708461Y-106535485D01*
X134708461Y-106535485D02*
X134770366Y-106659295D01*
X134770366Y-106659295D02*
X134832271Y-106721200D01*
X134832271Y-106721200D02*
X134956080Y-106783104D01*
X134956080Y-106783104D02*
X135265604Y-106783104D01*
X135265604Y-106783104D02*
X135389414Y-106721200D01*
X135389414Y-106721200D02*
X135451318Y-106659295D01*
D13*
X162670000Y-84540870D02*
X163384286Y-84540870D01*
X163384286Y-84540870D02*
X163384286Y-83040870D01*
X161955714Y-84540870D02*
X162098571Y-84469442D01*
X162098571Y-84469442D02*
X162170000Y-84398013D01*
X162170000Y-84398013D02*
X162241428Y-84255156D01*
X162241428Y-84255156D02*
X162241428Y-83826584D01*
X162241428Y-83826584D02*
X162170000Y-83683727D01*
X162170000Y-83683727D02*
X162098571Y-83612299D01*
X162098571Y-83612299D02*
X161955714Y-83540870D01*
X161955714Y-83540870D02*
X161741428Y-83540870D01*
X161741428Y-83540870D02*
X161598571Y-83612299D01*
X161598571Y-83612299D02*
X161527143Y-83683727D01*
X161527143Y-83683727D02*
X161455714Y-83826584D01*
X161455714Y-83826584D02*
X161455714Y-84255156D01*
X161455714Y-84255156D02*
X161527143Y-84398013D01*
X161527143Y-84398013D02*
X161598571Y-84469442D01*
X161598571Y-84469442D02*
X161741428Y-84540870D01*
X161741428Y-84540870D02*
X161955714Y-84540870D01*
X160598571Y-84540870D02*
X160741428Y-84469442D01*
X160741428Y-84469442D02*
X160812857Y-84326584D01*
X160812857Y-84326584D02*
X160812857Y-83040870D01*
X160027143Y-84540870D02*
X160027143Y-83540870D01*
X160027143Y-83040870D02*
X160098571Y-83112299D01*
X160098571Y-83112299D02*
X160027143Y-83183727D01*
X160027143Y-83183727D02*
X159955714Y-83112299D01*
X159955714Y-83112299D02*
X160027143Y-83040870D01*
X160027143Y-83040870D02*
X160027143Y-83183727D01*
X159312857Y-83540870D02*
X159312857Y-84540870D01*
X159312857Y-83683727D02*
X159241428Y-83612299D01*
X159241428Y-83612299D02*
X159098571Y-83540870D01*
X159098571Y-83540870D02*
X158884285Y-83540870D01*
X158884285Y-83540870D02*
X158741428Y-83612299D01*
X158741428Y-83612299D02*
X158670000Y-83755156D01*
X158670000Y-83755156D02*
X158670000Y-84540870D01*
X156812857Y-84540870D02*
X156812857Y-83040870D01*
X156812857Y-83040870D02*
X156455714Y-83040870D01*
X156455714Y-83040870D02*
X156241428Y-83112299D01*
X156241428Y-83112299D02*
X156098571Y-83255156D01*
X156098571Y-83255156D02*
X156027142Y-83398013D01*
X156027142Y-83398013D02*
X155955714Y-83683727D01*
X155955714Y-83683727D02*
X155955714Y-83898013D01*
X155955714Y-83898013D02*
X156027142Y-84183727D01*
X156027142Y-84183727D02*
X156098571Y-84326584D01*
X156098571Y-84326584D02*
X156241428Y-84469442D01*
X156241428Y-84469442D02*
X156455714Y-84540870D01*
X156455714Y-84540870D02*
X156812857Y-84540870D01*
X154527142Y-84540870D02*
X155384285Y-84540870D01*
X154955714Y-84540870D02*
X154955714Y-83040870D01*
X154955714Y-83040870D02*
X155098571Y-83255156D01*
X155098571Y-83255156D02*
X155241428Y-83398013D01*
X155241428Y-83398013D02*
X155384285Y-83469442D01*
X152741429Y-84540870D02*
X152741429Y-83040870D01*
X152741429Y-83040870D02*
X152241429Y-84112299D01*
X152241429Y-84112299D02*
X151741429Y-83040870D01*
X151741429Y-83040870D02*
X151741429Y-84540870D01*
X151027143Y-84540870D02*
X151027143Y-83540870D01*
X151027143Y-83040870D02*
X151098571Y-83112299D01*
X151098571Y-83112299D02*
X151027143Y-83183727D01*
X151027143Y-83183727D02*
X150955714Y-83112299D01*
X150955714Y-83112299D02*
X151027143Y-83040870D01*
X151027143Y-83040870D02*
X151027143Y-83183727D01*
X150312857Y-83540870D02*
X150312857Y-84540870D01*
X150312857Y-83683727D02*
X150241428Y-83612299D01*
X150241428Y-83612299D02*
X150098571Y-83540870D01*
X150098571Y-83540870D02*
X149884285Y-83540870D01*
X149884285Y-83540870D02*
X149741428Y-83612299D01*
X149741428Y-83612299D02*
X149670000Y-83755156D01*
X149670000Y-83755156D02*
X149670000Y-84540870D01*
X148955714Y-84540870D02*
X148955714Y-83540870D01*
X148955714Y-83040870D02*
X149027142Y-83112299D01*
X149027142Y-83112299D02*
X148955714Y-83183727D01*
X148955714Y-83183727D02*
X148884285Y-83112299D01*
X148884285Y-83112299D02*
X148955714Y-83040870D01*
X148955714Y-83040870D02*
X148955714Y-83183727D01*
X167884284Y-87527215D02*
X167955713Y-87455786D01*
X167955713Y-87455786D02*
X168098570Y-87241500D01*
X168098570Y-87241500D02*
X168169999Y-87098643D01*
X168169999Y-87098643D02*
X168241427Y-86884358D01*
X168241427Y-86884358D02*
X168312856Y-86527215D01*
X168312856Y-86527215D02*
X168312856Y-86241500D01*
X168312856Y-86241500D02*
X168241427Y-85884358D01*
X168241427Y-85884358D02*
X168169999Y-85670072D01*
X168169999Y-85670072D02*
X168098570Y-85527215D01*
X168098570Y-85527215D02*
X167955713Y-85312929D01*
X167955713Y-85312929D02*
X167884284Y-85241500D01*
X167312856Y-86955786D02*
X167312856Y-85455786D01*
X167312856Y-85455786D02*
X166741427Y-85455786D01*
X166741427Y-85455786D02*
X166598570Y-85527215D01*
X166598570Y-85527215D02*
X166527141Y-85598643D01*
X166527141Y-85598643D02*
X166455713Y-85741500D01*
X166455713Y-85741500D02*
X166455713Y-85955786D01*
X166455713Y-85955786D02*
X166527141Y-86098643D01*
X166527141Y-86098643D02*
X166598570Y-86170072D01*
X166598570Y-86170072D02*
X166741427Y-86241500D01*
X166741427Y-86241500D02*
X167312856Y-86241500D01*
X165598570Y-86955786D02*
X165741427Y-86884358D01*
X165741427Y-86884358D02*
X165812856Y-86741500D01*
X165812856Y-86741500D02*
X165812856Y-85455786D01*
X164384285Y-86955786D02*
X164384285Y-86170072D01*
X164384285Y-86170072D02*
X164455713Y-86027215D01*
X164455713Y-86027215D02*
X164598570Y-85955786D01*
X164598570Y-85955786D02*
X164884285Y-85955786D01*
X164884285Y-85955786D02*
X165027142Y-86027215D01*
X164384285Y-86884358D02*
X164527142Y-86955786D01*
X164527142Y-86955786D02*
X164884285Y-86955786D01*
X164884285Y-86955786D02*
X165027142Y-86884358D01*
X165027142Y-86884358D02*
X165098570Y-86741500D01*
X165098570Y-86741500D02*
X165098570Y-86598643D01*
X165098570Y-86598643D02*
X165027142Y-86455786D01*
X165027142Y-86455786D02*
X164884285Y-86384358D01*
X164884285Y-86384358D02*
X164527142Y-86384358D01*
X164527142Y-86384358D02*
X164384285Y-86312929D01*
X163027142Y-86884358D02*
X163169999Y-86955786D01*
X163169999Y-86955786D02*
X163455713Y-86955786D01*
X163455713Y-86955786D02*
X163598570Y-86884358D01*
X163598570Y-86884358D02*
X163669999Y-86812929D01*
X163669999Y-86812929D02*
X163741427Y-86670072D01*
X163741427Y-86670072D02*
X163741427Y-86241500D01*
X163741427Y-86241500D02*
X163669999Y-86098643D01*
X163669999Y-86098643D02*
X163598570Y-86027215D01*
X163598570Y-86027215D02*
X163455713Y-85955786D01*
X163455713Y-85955786D02*
X163169999Y-85955786D01*
X163169999Y-85955786D02*
X163027142Y-86027215D01*
X161812856Y-86884358D02*
X161955713Y-86955786D01*
X161955713Y-86955786D02*
X162241428Y-86955786D01*
X162241428Y-86955786D02*
X162384285Y-86884358D01*
X162384285Y-86884358D02*
X162455713Y-86741500D01*
X162455713Y-86741500D02*
X162455713Y-86170072D01*
X162455713Y-86170072D02*
X162384285Y-86027215D01*
X162384285Y-86027215D02*
X162241428Y-85955786D01*
X162241428Y-85955786D02*
X161955713Y-85955786D01*
X161955713Y-85955786D02*
X161812856Y-86027215D01*
X161812856Y-86027215D02*
X161741428Y-86170072D01*
X161741428Y-86170072D02*
X161741428Y-86312929D01*
X161741428Y-86312929D02*
X162455713Y-86455786D01*
X158741428Y-86955786D02*
X158812857Y-86955786D01*
X158812857Y-86955786D02*
X158955714Y-86884358D01*
X158955714Y-86884358D02*
X159169999Y-86670072D01*
X159169999Y-86670072D02*
X159527142Y-86241500D01*
X159527142Y-86241500D02*
X159669999Y-86027215D01*
X159669999Y-86027215D02*
X159741428Y-85812929D01*
X159741428Y-85812929D02*
X159741428Y-85670072D01*
X159741428Y-85670072D02*
X159669999Y-85527215D01*
X159669999Y-85527215D02*
X159527142Y-85455786D01*
X159527142Y-85455786D02*
X159455714Y-85455786D01*
X159455714Y-85455786D02*
X159312857Y-85527215D01*
X159312857Y-85527215D02*
X159241428Y-85670072D01*
X159241428Y-85670072D02*
X159241428Y-85741500D01*
X159241428Y-85741500D02*
X159312857Y-85884358D01*
X159312857Y-85884358D02*
X159384285Y-85955786D01*
X159384285Y-85955786D02*
X159812857Y-86241500D01*
X159812857Y-86241500D02*
X159884285Y-86312929D01*
X159884285Y-86312929D02*
X159955714Y-86455786D01*
X159955714Y-86455786D02*
X159955714Y-86670072D01*
X159955714Y-86670072D02*
X159884285Y-86812929D01*
X159884285Y-86812929D02*
X159812857Y-86884358D01*
X159812857Y-86884358D02*
X159669999Y-86955786D01*
X159669999Y-86955786D02*
X159455714Y-86955786D01*
X159455714Y-86955786D02*
X159312857Y-86884358D01*
X159312857Y-86884358D02*
X159241428Y-86812929D01*
X159241428Y-86812929D02*
X159027142Y-86527215D01*
X159027142Y-86527215D02*
X158955714Y-86312929D01*
X158955714Y-86312929D02*
X158955714Y-86170072D01*
X157027142Y-86884358D02*
X156884285Y-86955786D01*
X156884285Y-86955786D02*
X156598571Y-86955786D01*
X156598571Y-86955786D02*
X156455714Y-86884358D01*
X156455714Y-86884358D02*
X156384285Y-86741500D01*
X156384285Y-86741500D02*
X156384285Y-86670072D01*
X156384285Y-86670072D02*
X156455714Y-86527215D01*
X156455714Y-86527215D02*
X156598571Y-86455786D01*
X156598571Y-86455786D02*
X156812857Y-86455786D01*
X156812857Y-86455786D02*
X156955714Y-86384358D01*
X156955714Y-86384358D02*
X157027142Y-86241500D01*
X157027142Y-86241500D02*
X157027142Y-86170072D01*
X157027142Y-86170072D02*
X156955714Y-86027215D01*
X156955714Y-86027215D02*
X156812857Y-85955786D01*
X156812857Y-85955786D02*
X156598571Y-85955786D01*
X156598571Y-85955786D02*
X156455714Y-86027215D01*
X155527142Y-86955786D02*
X155669999Y-86884358D01*
X155669999Y-86884358D02*
X155741428Y-86812929D01*
X155741428Y-86812929D02*
X155812856Y-86670072D01*
X155812856Y-86670072D02*
X155812856Y-86241500D01*
X155812856Y-86241500D02*
X155741428Y-86098643D01*
X155741428Y-86098643D02*
X155669999Y-86027215D01*
X155669999Y-86027215D02*
X155527142Y-85955786D01*
X155527142Y-85955786D02*
X155312856Y-85955786D01*
X155312856Y-85955786D02*
X155169999Y-86027215D01*
X155169999Y-86027215D02*
X155098571Y-86098643D01*
X155098571Y-86098643D02*
X155027142Y-86241500D01*
X155027142Y-86241500D02*
X155027142Y-86670072D01*
X155027142Y-86670072D02*
X155098571Y-86812929D01*
X155098571Y-86812929D02*
X155169999Y-86884358D01*
X155169999Y-86884358D02*
X155312856Y-86955786D01*
X155312856Y-86955786D02*
X155527142Y-86955786D01*
X154169999Y-86955786D02*
X154312856Y-86884358D01*
X154312856Y-86884358D02*
X154384285Y-86741500D01*
X154384285Y-86741500D02*
X154384285Y-85455786D01*
X152955714Y-86955786D02*
X152955714Y-85455786D01*
X152955714Y-86884358D02*
X153098571Y-86955786D01*
X153098571Y-86955786D02*
X153384285Y-86955786D01*
X153384285Y-86955786D02*
X153527142Y-86884358D01*
X153527142Y-86884358D02*
X153598571Y-86812929D01*
X153598571Y-86812929D02*
X153669999Y-86670072D01*
X153669999Y-86670072D02*
X153669999Y-86241500D01*
X153669999Y-86241500D02*
X153598571Y-86098643D01*
X153598571Y-86098643D02*
X153527142Y-86027215D01*
X153527142Y-86027215D02*
X153384285Y-85955786D01*
X153384285Y-85955786D02*
X153098571Y-85955786D01*
X153098571Y-85955786D02*
X152955714Y-86027215D01*
X151669999Y-86884358D02*
X151812856Y-86955786D01*
X151812856Y-86955786D02*
X152098571Y-86955786D01*
X152098571Y-86955786D02*
X152241428Y-86884358D01*
X152241428Y-86884358D02*
X152312856Y-86741500D01*
X152312856Y-86741500D02*
X152312856Y-86170072D01*
X152312856Y-86170072D02*
X152241428Y-86027215D01*
X152241428Y-86027215D02*
X152098571Y-85955786D01*
X152098571Y-85955786D02*
X151812856Y-85955786D01*
X151812856Y-85955786D02*
X151669999Y-86027215D01*
X151669999Y-86027215D02*
X151598571Y-86170072D01*
X151598571Y-86170072D02*
X151598571Y-86312929D01*
X151598571Y-86312929D02*
X152312856Y-86455786D01*
X150955714Y-86955786D02*
X150955714Y-85955786D01*
X150955714Y-86241500D02*
X150884285Y-86098643D01*
X150884285Y-86098643D02*
X150812857Y-86027215D01*
X150812857Y-86027215D02*
X150669999Y-85955786D01*
X150669999Y-85955786D02*
X150527142Y-85955786D01*
X149098571Y-85955786D02*
X148527143Y-85955786D01*
X148884286Y-86955786D02*
X148884286Y-85670072D01*
X148884286Y-85670072D02*
X148812857Y-85527215D01*
X148812857Y-85527215D02*
X148670000Y-85455786D01*
X148670000Y-85455786D02*
X148527143Y-85455786D01*
X148027143Y-86955786D02*
X148027143Y-85955786D01*
X148027143Y-85455786D02*
X148098571Y-85527215D01*
X148098571Y-85527215D02*
X148027143Y-85598643D01*
X148027143Y-85598643D02*
X147955714Y-85527215D01*
X147955714Y-85527215D02*
X148027143Y-85455786D01*
X148027143Y-85455786D02*
X148027143Y-85598643D01*
X147312857Y-86955786D02*
X147312857Y-85955786D01*
X147312857Y-86241500D02*
X147241428Y-86098643D01*
X147241428Y-86098643D02*
X147170000Y-86027215D01*
X147170000Y-86027215D02*
X147027142Y-85955786D01*
X147027142Y-85955786D02*
X146884285Y-85955786D01*
X146455714Y-86884358D02*
X146312857Y-86955786D01*
X146312857Y-86955786D02*
X146027143Y-86955786D01*
X146027143Y-86955786D02*
X145884286Y-86884358D01*
X145884286Y-86884358D02*
X145812857Y-86741500D01*
X145812857Y-86741500D02*
X145812857Y-86670072D01*
X145812857Y-86670072D02*
X145884286Y-86527215D01*
X145884286Y-86527215D02*
X146027143Y-86455786D01*
X146027143Y-86455786D02*
X146241429Y-86455786D01*
X146241429Y-86455786D02*
X146384286Y-86384358D01*
X146384286Y-86384358D02*
X146455714Y-86241500D01*
X146455714Y-86241500D02*
X146455714Y-86170072D01*
X146455714Y-86170072D02*
X146384286Y-86027215D01*
X146384286Y-86027215D02*
X146241429Y-85955786D01*
X146241429Y-85955786D02*
X146027143Y-85955786D01*
X146027143Y-85955786D02*
X145884286Y-86027215D01*
X145384285Y-85955786D02*
X144812857Y-85955786D01*
X145170000Y-85455786D02*
X145170000Y-86741500D01*
X145170000Y-86741500D02*
X145098571Y-86884358D01*
X145098571Y-86884358D02*
X144955714Y-86955786D01*
X144955714Y-86955786D02*
X144812857Y-86955786D01*
X144455714Y-87527215D02*
X144384285Y-87455786D01*
X144384285Y-87455786D02*
X144241428Y-87241500D01*
X144241428Y-87241500D02*
X144170000Y-87098643D01*
X144170000Y-87098643D02*
X144098571Y-86884358D01*
X144098571Y-86884358D02*
X144027142Y-86527215D01*
X144027142Y-86527215D02*
X144027142Y-86241500D01*
X144027142Y-86241500D02*
X144098571Y-85884358D01*
X144098571Y-85884358D02*
X144170000Y-85670072D01*
X144170000Y-85670072D02*
X144241428Y-85527215D01*
X144241428Y-85527215D02*
X144384285Y-85312929D01*
X144384285Y-85312929D02*
X144455714Y-85241500D01*
D14*
X149466666Y-70761775D02*
X149199999Y-71561775D01*
X149199999Y-71561775D02*
X148933333Y-70761775D01*
X148666666Y-71561775D02*
X148666666Y-70761775D01*
X148666666Y-70761775D02*
X148476190Y-70761775D01*
X148476190Y-70761775D02*
X148361904Y-70799870D01*
X148361904Y-70799870D02*
X148285714Y-70876060D01*
X148285714Y-70876060D02*
X148247619Y-70952251D01*
X148247619Y-70952251D02*
X148209523Y-71104632D01*
X148209523Y-71104632D02*
X148209523Y-71218918D01*
X148209523Y-71218918D02*
X148247619Y-71371299D01*
X148247619Y-71371299D02*
X148285714Y-71447489D01*
X148285714Y-71447489D02*
X148361904Y-71523680D01*
X148361904Y-71523680D02*
X148476190Y-71561775D01*
X148476190Y-71561775D02*
X148666666Y-71561775D01*
X147866666Y-71561775D02*
X147866666Y-70761775D01*
X147866666Y-70761775D02*
X147676190Y-70761775D01*
X147676190Y-70761775D02*
X147561904Y-70799870D01*
X147561904Y-70799870D02*
X147485714Y-70876060D01*
X147485714Y-70876060D02*
X147447619Y-70952251D01*
X147447619Y-70952251D02*
X147409523Y-71104632D01*
X147409523Y-71104632D02*
X147409523Y-71218918D01*
X147409523Y-71218918D02*
X147447619Y-71371299D01*
X147447619Y-71371299D02*
X147485714Y-71447489D01*
X147485714Y-71447489D02*
X147561904Y-71523680D01*
X147561904Y-71523680D02*
X147676190Y-71561775D01*
X147676190Y-71561775D02*
X147866666Y-71561775D01*
X157051428Y-71523680D02*
X156937142Y-71561775D01*
X156937142Y-71561775D02*
X156746666Y-71561775D01*
X156746666Y-71561775D02*
X156670475Y-71523680D01*
X156670475Y-71523680D02*
X156632380Y-71485584D01*
X156632380Y-71485584D02*
X156594285Y-71409394D01*
X156594285Y-71409394D02*
X156594285Y-71333203D01*
X156594285Y-71333203D02*
X156632380Y-71257013D01*
X156632380Y-71257013D02*
X156670475Y-71218918D01*
X156670475Y-71218918D02*
X156746666Y-71180822D01*
X156746666Y-71180822D02*
X156899047Y-71142727D01*
X156899047Y-71142727D02*
X156975237Y-71104632D01*
X156975237Y-71104632D02*
X157013332Y-71066537D01*
X157013332Y-71066537D02*
X157051428Y-70990346D01*
X157051428Y-70990346D02*
X157051428Y-70914156D01*
X157051428Y-70914156D02*
X157013332Y-70837965D01*
X157013332Y-70837965D02*
X156975237Y-70799870D01*
X156975237Y-70799870D02*
X156899047Y-70761775D01*
X156899047Y-70761775D02*
X156708570Y-70761775D01*
X156708570Y-70761775D02*
X156594285Y-70799870D01*
X156251427Y-71561775D02*
X156251427Y-70761775D01*
X156251427Y-70761775D02*
X156060951Y-70761775D01*
X156060951Y-70761775D02*
X155946665Y-70799870D01*
X155946665Y-70799870D02*
X155870475Y-70876060D01*
X155870475Y-70876060D02*
X155832380Y-70952251D01*
X155832380Y-70952251D02*
X155794284Y-71104632D01*
X155794284Y-71104632D02*
X155794284Y-71218918D01*
X155794284Y-71218918D02*
X155832380Y-71371299D01*
X155832380Y-71371299D02*
X155870475Y-71447489D01*
X155870475Y-71447489D02*
X155946665Y-71523680D01*
X155946665Y-71523680D02*
X156060951Y-71561775D01*
X156060951Y-71561775D02*
X156251427Y-71561775D01*
X155489523Y-71333203D02*
X155108570Y-71333203D01*
X155565713Y-71561775D02*
X155299046Y-70761775D01*
X155299046Y-70761775D02*
X155032380Y-71561775D01*
X154568571Y-71523680D02*
X154454285Y-71561775D01*
X154454285Y-71561775D02*
X154263809Y-71561775D01*
X154263809Y-71561775D02*
X154187618Y-71523680D01*
X154187618Y-71523680D02*
X154149523Y-71485584D01*
X154149523Y-71485584D02*
X154111428Y-71409394D01*
X154111428Y-71409394D02*
X154111428Y-71333203D01*
X154111428Y-71333203D02*
X154149523Y-71257013D01*
X154149523Y-71257013D02*
X154187618Y-71218918D01*
X154187618Y-71218918D02*
X154263809Y-71180822D01*
X154263809Y-71180822D02*
X154416190Y-71142727D01*
X154416190Y-71142727D02*
X154492380Y-71104632D01*
X154492380Y-71104632D02*
X154530475Y-71066537D01*
X154530475Y-71066537D02*
X154568571Y-70990346D01*
X154568571Y-70990346D02*
X154568571Y-70914156D01*
X154568571Y-70914156D02*
X154530475Y-70837965D01*
X154530475Y-70837965D02*
X154492380Y-70799870D01*
X154492380Y-70799870D02*
X154416190Y-70761775D01*
X154416190Y-70761775D02*
X154225713Y-70761775D01*
X154225713Y-70761775D02*
X154111428Y-70799870D01*
X153311427Y-71485584D02*
X153349523Y-71523680D01*
X153349523Y-71523680D02*
X153463808Y-71561775D01*
X153463808Y-71561775D02*
X153539999Y-71561775D01*
X153539999Y-71561775D02*
X153654285Y-71523680D01*
X153654285Y-71523680D02*
X153730475Y-71447489D01*
X153730475Y-71447489D02*
X153768570Y-71371299D01*
X153768570Y-71371299D02*
X153806666Y-71218918D01*
X153806666Y-71218918D02*
X153806666Y-71104632D01*
X153806666Y-71104632D02*
X153768570Y-70952251D01*
X153768570Y-70952251D02*
X153730475Y-70876060D01*
X153730475Y-70876060D02*
X153654285Y-70799870D01*
X153654285Y-70799870D02*
X153539999Y-70761775D01*
X153539999Y-70761775D02*
X153463808Y-70761775D01*
X153463808Y-70761775D02*
X153349523Y-70799870D01*
X153349523Y-70799870D02*
X153311427Y-70837965D01*
X152968570Y-71561775D02*
X152968570Y-70761775D01*
X152511427Y-71561775D02*
X152854285Y-71104632D01*
X152511427Y-70761775D02*
X152968570Y-71218918D01*
X151669523Y-70799870D02*
X151745713Y-70761775D01*
X151745713Y-70761775D02*
X151859999Y-70761775D01*
X151859999Y-70761775D02*
X151974285Y-70799870D01*
X151974285Y-70799870D02*
X152050475Y-70876060D01*
X152050475Y-70876060D02*
X152088570Y-70952251D01*
X152088570Y-70952251D02*
X152126666Y-71104632D01*
X152126666Y-71104632D02*
X152126666Y-71218918D01*
X152126666Y-71218918D02*
X152088570Y-71371299D01*
X152088570Y-71371299D02*
X152050475Y-71447489D01*
X152050475Y-71447489D02*
X151974285Y-71523680D01*
X151974285Y-71523680D02*
X151859999Y-71561775D01*
X151859999Y-71561775D02*
X151783808Y-71561775D01*
X151783808Y-71561775D02*
X151669523Y-71523680D01*
X151669523Y-71523680D02*
X151631427Y-71485584D01*
X151631427Y-71485584D02*
X151631427Y-71218918D01*
X151631427Y-71218918D02*
X151783808Y-71218918D01*
X151288570Y-71561775D02*
X151288570Y-70761775D01*
X151288570Y-70761775D02*
X150831427Y-71561775D01*
X150831427Y-71561775D02*
X150831427Y-70761775D01*
X150450475Y-71561775D02*
X150450475Y-70761775D01*
X150450475Y-70761775D02*
X150259999Y-70761775D01*
X150259999Y-70761775D02*
X150145713Y-70799870D01*
X150145713Y-70799870D02*
X150069523Y-70876060D01*
X150069523Y-70876060D02*
X150031428Y-70952251D01*
X150031428Y-70952251D02*
X149993332Y-71104632D01*
X149993332Y-71104632D02*
X149993332Y-71218918D01*
X149993332Y-71218918D02*
X150031428Y-71371299D01*
X150031428Y-71371299D02*
X150069523Y-71447489D01*
X150069523Y-71447489D02*
X150145713Y-71523680D01*
X150145713Y-71523680D02*
X150259999Y-71561775D01*
X150259999Y-71561775D02*
X150450475Y-71561775D01*
D10*
X140116137Y-95940000D02*
X140116137Y-74330000D01*
X166460000Y-72200000D02*
X142246137Y-72200000D01*
X166460000Y-72200000D02*
X166460000Y-74740000D01*
X166460000Y-74740000D02*
X174240000Y-74740000D01*
X174240000Y-74740000D02*
X174240000Y-98060000D01*
X174240000Y-98060000D02*
X142246137Y-98060000D01*
X140116137Y-74330000D02*
G75*
G02*
X142246137Y-72200000I2130002J-2D01*
G01*
X142246137Y-98060000D02*
G75*
G02*
X140116140Y-95930000I-67J2129930D01*
G01*
X161130000Y-69200000D02*
X161610000Y-69200000D01*
X161610000Y-68200000D02*
X166310000Y-68200000D01*
X161610000Y-70200000D02*
X161610000Y-68200000D01*
X166310000Y-68200000D02*
X166310000Y-70200000D01*
X166310000Y-70200000D02*
X161610000Y-70200000D01*
X166870000Y-69200000D02*
X166310000Y-69200000D01*
X164677064Y-68290000D02*
X163222936Y-68290000D01*
X164677064Y-70110000D02*
X163222936Y-70110000D01*
%LPC*%
D15*
X139240000Y-112010000D03*
X132740000Y-112010000D03*
X139240000Y-116510000D03*
X132740000Y-116510000D03*
X159450000Y-115950000D03*
X159450000Y-122450000D03*
X163950000Y-115950000D03*
X163950000Y-122450000D03*
X166950000Y-107950000D03*
X166950000Y-114450000D03*
X171450000Y-107950000D03*
X171450000Y-114450000D03*
X147150000Y-119550000D03*
X140650000Y-119550000D03*
X147150000Y-124050000D03*
X140650000Y-124050000D03*
X147150000Y-104450000D03*
X140650000Y-104450000D03*
X147150000Y-108950000D03*
X140650000Y-108950000D03*
X155040000Y-112010000D03*
X148540000Y-112010000D03*
X155040000Y-116510000D03*
X148540000Y-116510000D03*
D16*
X148480000Y-69000000D03*
D17*
X151020000Y-69000000D03*
X153560000Y-69000000D03*
X156100000Y-69000000D03*
D18*
X132000000Y-123850000D03*
X172300000Y-123850000D03*
X172300000Y-68900000D03*
X132000000Y-68900000D03*
D19*
X147240000Y-73700000D03*
D20*
X149780000Y-73700000D03*
X152320000Y-73700000D03*
X154860000Y-73700000D03*
X157400000Y-73700000D03*
X159940000Y-73700000D03*
X162480000Y-73700000D03*
X165020000Y-73700000D03*
X165020000Y-96560000D03*
X162480000Y-96560000D03*
X159940000Y-96560000D03*
X157400000Y-96560000D03*
X154860000Y-96560000D03*
X152320000Y-96560000D03*
X149780000Y-96560000D03*
X147240000Y-96560000D03*
D21*
X167810000Y-69200000D03*
D22*
X160190000Y-69200000D03*
D23*
X165500000Y-69200000D03*
X162400000Y-69200000D03*
%LPD*%
M02*
