G04 #@! TF.GenerationSoftware,KiCad,Pcbnew,9.0.6*
G04 #@! TF.CreationDate,2025-11-17T18:11:24+05:30*
G04 #@! TF.ProjectId,BloodHound_VENOM,426c6f6f-6448-46f7-956e-645f56454e4f,1*
G04 #@! TF.SameCoordinates,Original*
G04 #@! TF.FileFunction,Other,Comment*
%FSLAX46Y46*%
G04 Gerber Fmt 4.6, Leading zero omitted, Abs format (unit mm)*
G04 Created by KiCad (PCBNEW 9.0.6) date 2025-11-17 18:11:24*
%MOMM*%
%LPD*%
G01*
G04 APERTURE LIST*
%ADD10C,0.150000*%
%ADD11C,0.400000*%
G04 APERTURE END LIST*
D10*
X143884819Y-88772857D02*
X142884819Y-88772857D01*
X142884819Y-88772857D02*
X143884819Y-88201429D01*
X143884819Y-88201429D02*
X142884819Y-88201429D01*
X143884819Y-87582381D02*
X143837200Y-87677619D01*
X143837200Y-87677619D02*
X143789580Y-87725238D01*
X143789580Y-87725238D02*
X143694342Y-87772857D01*
X143694342Y-87772857D02*
X143408628Y-87772857D01*
X143408628Y-87772857D02*
X143313390Y-87725238D01*
X143313390Y-87725238D02*
X143265771Y-87677619D01*
X143265771Y-87677619D02*
X143218152Y-87582381D01*
X143218152Y-87582381D02*
X143218152Y-87439524D01*
X143218152Y-87439524D02*
X143265771Y-87344286D01*
X143265771Y-87344286D02*
X143313390Y-87296667D01*
X143313390Y-87296667D02*
X143408628Y-87249048D01*
X143408628Y-87249048D02*
X143694342Y-87249048D01*
X143694342Y-87249048D02*
X143789580Y-87296667D01*
X143789580Y-87296667D02*
X143837200Y-87344286D01*
X143837200Y-87344286D02*
X143884819Y-87439524D01*
X143884819Y-87439524D02*
X143884819Y-87582381D01*
X143837200Y-85630000D02*
X143884819Y-85725238D01*
X143884819Y-85725238D02*
X143884819Y-85915714D01*
X143884819Y-85915714D02*
X143837200Y-86010952D01*
X143837200Y-86010952D02*
X143789580Y-86058571D01*
X143789580Y-86058571D02*
X143694342Y-86106190D01*
X143694342Y-86106190D02*
X143408628Y-86106190D01*
X143408628Y-86106190D02*
X143313390Y-86058571D01*
X143313390Y-86058571D02*
X143265771Y-86010952D01*
X143265771Y-86010952D02*
X143218152Y-85915714D01*
X143218152Y-85915714D02*
X143218152Y-85725238D01*
X143218152Y-85725238D02*
X143265771Y-85630000D01*
X143884819Y-85058571D02*
X143837200Y-85153809D01*
X143837200Y-85153809D02*
X143789580Y-85201428D01*
X143789580Y-85201428D02*
X143694342Y-85249047D01*
X143694342Y-85249047D02*
X143408628Y-85249047D01*
X143408628Y-85249047D02*
X143313390Y-85201428D01*
X143313390Y-85201428D02*
X143265771Y-85153809D01*
X143265771Y-85153809D02*
X143218152Y-85058571D01*
X143218152Y-85058571D02*
X143218152Y-84915714D01*
X143218152Y-84915714D02*
X143265771Y-84820476D01*
X143265771Y-84820476D02*
X143313390Y-84772857D01*
X143313390Y-84772857D02*
X143408628Y-84725238D01*
X143408628Y-84725238D02*
X143694342Y-84725238D01*
X143694342Y-84725238D02*
X143789580Y-84772857D01*
X143789580Y-84772857D02*
X143837200Y-84820476D01*
X143837200Y-84820476D02*
X143884819Y-84915714D01*
X143884819Y-84915714D02*
X143884819Y-85058571D01*
X143218152Y-84296666D02*
X144218152Y-84296666D01*
X143265771Y-84296666D02*
X143218152Y-84201428D01*
X143218152Y-84201428D02*
X143218152Y-84010952D01*
X143218152Y-84010952D02*
X143265771Y-83915714D01*
X143265771Y-83915714D02*
X143313390Y-83868095D01*
X143313390Y-83868095D02*
X143408628Y-83820476D01*
X143408628Y-83820476D02*
X143694342Y-83820476D01*
X143694342Y-83820476D02*
X143789580Y-83868095D01*
X143789580Y-83868095D02*
X143837200Y-83915714D01*
X143837200Y-83915714D02*
X143884819Y-84010952D01*
X143884819Y-84010952D02*
X143884819Y-84201428D01*
X143884819Y-84201428D02*
X143837200Y-84296666D01*
X143218152Y-83391904D02*
X144218152Y-83391904D01*
X143265771Y-83391904D02*
X143218152Y-83296666D01*
X143218152Y-83296666D02*
X143218152Y-83106190D01*
X143218152Y-83106190D02*
X143265771Y-83010952D01*
X143265771Y-83010952D02*
X143313390Y-82963333D01*
X143313390Y-82963333D02*
X143408628Y-82915714D01*
X143408628Y-82915714D02*
X143694342Y-82915714D01*
X143694342Y-82915714D02*
X143789580Y-82963333D01*
X143789580Y-82963333D02*
X143837200Y-83010952D01*
X143837200Y-83010952D02*
X143884819Y-83106190D01*
X143884819Y-83106190D02*
X143884819Y-83296666D01*
X143884819Y-83296666D02*
X143837200Y-83391904D01*
X143837200Y-82106190D02*
X143884819Y-82201428D01*
X143884819Y-82201428D02*
X143884819Y-82391904D01*
X143884819Y-82391904D02*
X143837200Y-82487142D01*
X143837200Y-82487142D02*
X143741961Y-82534761D01*
X143741961Y-82534761D02*
X143361009Y-82534761D01*
X143361009Y-82534761D02*
X143265771Y-82487142D01*
X143265771Y-82487142D02*
X143218152Y-82391904D01*
X143218152Y-82391904D02*
X143218152Y-82201428D01*
X143218152Y-82201428D02*
X143265771Y-82106190D01*
X143265771Y-82106190D02*
X143361009Y-82058571D01*
X143361009Y-82058571D02*
X143456247Y-82058571D01*
X143456247Y-82058571D02*
X143551485Y-82534761D01*
X143884819Y-81629999D02*
X143218152Y-81629999D01*
X143408628Y-81629999D02*
X143313390Y-81582380D01*
X143313390Y-81582380D02*
X143265771Y-81534761D01*
X143265771Y-81534761D02*
X143218152Y-81439523D01*
X143218152Y-81439523D02*
X143218152Y-81344285D01*
X141344819Y-88606190D02*
X140344819Y-88606190D01*
X141344819Y-88034762D02*
X140773390Y-88463333D01*
X140344819Y-88034762D02*
X140916247Y-88606190D01*
X140821009Y-87606190D02*
X140821009Y-87272857D01*
X141344819Y-87130000D02*
X141344819Y-87606190D01*
X141344819Y-87606190D02*
X140344819Y-87606190D01*
X140344819Y-87606190D02*
X140344819Y-87130000D01*
X140821009Y-86701428D02*
X140821009Y-86368095D01*
X141344819Y-86225238D02*
X141344819Y-86701428D01*
X141344819Y-86701428D02*
X140344819Y-86701428D01*
X140344819Y-86701428D02*
X140344819Y-86225238D01*
X141344819Y-85796666D02*
X140344819Y-85796666D01*
X140344819Y-85796666D02*
X140344819Y-85415714D01*
X140344819Y-85415714D02*
X140392438Y-85320476D01*
X140392438Y-85320476D02*
X140440057Y-85272857D01*
X140440057Y-85272857D02*
X140535295Y-85225238D01*
X140535295Y-85225238D02*
X140678152Y-85225238D01*
X140678152Y-85225238D02*
X140773390Y-85272857D01*
X140773390Y-85272857D02*
X140821009Y-85320476D01*
X140821009Y-85320476D02*
X140868628Y-85415714D01*
X140868628Y-85415714D02*
X140868628Y-85796666D01*
X140344819Y-83844285D02*
X140344819Y-83653809D01*
X140344819Y-83653809D02*
X140392438Y-83558571D01*
X140392438Y-83558571D02*
X140487676Y-83463333D01*
X140487676Y-83463333D02*
X140678152Y-83415714D01*
X140678152Y-83415714D02*
X141011485Y-83415714D01*
X141011485Y-83415714D02*
X141201961Y-83463333D01*
X141201961Y-83463333D02*
X141297200Y-83558571D01*
X141297200Y-83558571D02*
X141344819Y-83653809D01*
X141344819Y-83653809D02*
X141344819Y-83844285D01*
X141344819Y-83844285D02*
X141297200Y-83939523D01*
X141297200Y-83939523D02*
X141201961Y-84034761D01*
X141201961Y-84034761D02*
X141011485Y-84082380D01*
X141011485Y-84082380D02*
X140678152Y-84082380D01*
X140678152Y-84082380D02*
X140487676Y-84034761D01*
X140487676Y-84034761D02*
X140392438Y-83939523D01*
X140392438Y-83939523D02*
X140344819Y-83844285D01*
X140344819Y-82987142D02*
X141154342Y-82987142D01*
X141154342Y-82987142D02*
X141249580Y-82939523D01*
X141249580Y-82939523D02*
X141297200Y-82891904D01*
X141297200Y-82891904D02*
X141344819Y-82796666D01*
X141344819Y-82796666D02*
X141344819Y-82606190D01*
X141344819Y-82606190D02*
X141297200Y-82510952D01*
X141297200Y-82510952D02*
X141249580Y-82463333D01*
X141249580Y-82463333D02*
X141154342Y-82415714D01*
X141154342Y-82415714D02*
X140344819Y-82415714D01*
X140344819Y-82082380D02*
X140344819Y-81510952D01*
X141344819Y-81796666D02*
X140344819Y-81796666D01*
D11*
X153450000Y-103670000D02*
G75*
G02*
X153050000Y-103670000I-200000J0D01*
G01*
X153050000Y-103670000D02*
G75*
G02*
X153450000Y-103670000I200000J0D01*
G01*
D10*
X134200000Y-123850000D02*
G75*
G02*
X129800000Y-123850000I-2200000J0D01*
G01*
X129800000Y-123850000D02*
G75*
G02*
X134200000Y-123850000I2200000J0D01*
G01*
X174500000Y-123850000D02*
G75*
G02*
X170100000Y-123850000I-2200000J0D01*
G01*
X170100000Y-123850000D02*
G75*
G02*
X174500000Y-123850000I2200000J0D01*
G01*
X174500000Y-68900000D02*
G75*
G02*
X170100000Y-68900000I-2200000J0D01*
G01*
X170100000Y-68900000D02*
G75*
G02*
X174500000Y-68900000I2200000J0D01*
G01*
X134200000Y-68900000D02*
G75*
G02*
X129800000Y-68900000I-2200000J0D01*
G01*
X129800000Y-68900000D02*
G75*
G02*
X134200000Y-68900000I2200000J0D01*
G01*
M02*
